SplineFontDB: 2.0
FontName: THSarabunPSK-Bold
FullName: THSarabunPSK-Bold
FamilyName: TH SarabunPSK
Weight: Bold
Copyright: Copyright (c) 2006 by Department of Intellectual Property (DIP), Ministry of Commerce and Software Industry Promotion Agency (Public Organization) (SIPA). All rights reserved.\nCreated by : Suppakit CHALERMLARP.
Version: 1.1
ItalicAngle: 0
UnderlinePosition: -35
UnderlineWidth: 30
Ascent: 800
Descent: 200
XUID: [1021 375 425136265 10574758]
FSType: 0
OS2Version: 3
OS2_WeightWidthSlopeOnly: 0
OS2_UseTypoMetrics: 1
CreationTime: 1158862012
ModificationTime: 1204861829
PfmFamily: 17
TTFWeight: 700
TTFWidth: 5
LineGap: 30
VLineGap: 0
Panose: 2 11 5 0 4 2 0 2 0 3
OS2TypoAscent: 50
OS2TypoAOffset: 1
OS2TypoDescent: -50
OS2TypoDOffset: 1
OS2TypoLinegap: 0
OS2WinAscent: 6
OS2WinAOffset: 1
OS2WinDescent: -207
OS2WinDOffset: 1
HheadAscent: 6
HheadAOffset: 1
HheadDescent: 207
HheadDOffset: 1
OS2SubXSize: 700
OS2SubYSize: 650
OS2SubXOff: 0
OS2SubYOff: 140
OS2SupXSize: 700
OS2SupYSize: 650
OS2SupXOff: 0
OS2SupYOff: 477
OS2StrikeYSize: 30
OS2StrikeYPos: 250
OS2FamilyClass: 2053
OS2Vendor: 'psk '
Lookup: 4 0 0 "'frac' Diagonal Fractions in Latin lookup 0"  {"'frac' Diagonal Fractions in Latin lookup 0 subtable"  } ['frac' ('latn' <'dflt' > ) ]
Lookup: 6 0 0 "'rlig' Required Ligatures in Latin lookup 1"  {"'rlig' Required Ligatures in Latin lookup 1 subtable"  } ['rlig' ('latn' <'dflt' > ) ]
Lookup: 6 0 0 "'rlig' Required Ligatures in Latin lookup 2"  {"'rlig' Required Ligatures in Latin lookup 2 subtable"  } ['rlig' ('latn' <'dflt' > ) ]
Lookup: 6 0 0 "'rlig' Required Ligatures in Latin lookup 3"  {"'rlig' Required Ligatures in Latin lookup 3 subtable"  } ['rlig' ('latn' <'dflt' > ) ]
Lookup: 6 0 0 "'rlig' Required Ligatures in Latin lookup 4"  {"'rlig' Required Ligatures in Latin lookup 4 subtable"  } ['rlig' ('latn' <'dflt' > ) ]

StartChar: .notdef
Encoding: 65536 -1 0
Width: 1049
VWidth: 1504
Flags: W
HStem: 0 47<134 916> 1170 47<134 916>
VStem: 80 54<47 1170> 916 54<47 1170>
Fore
970 0 m 1
 80 0 l 1
 80 1217 l 1
 970 1217 l 1
 970 0 l 1
916 47 m 1
 916 1170 l 1
 134 1170 l 1
 134 47 l 1
 916 47 l 1
EndSplineSet
EndChar
StartChar: exclam
Encoding: 33 33 2
Width: 252
VWidth: 1504
Flags: W
HStem: -14 145<75.0743 178.25> 696 20G<72 181>
VStem: 54 145<7.59771 109.926> 72 109<589.25 716> 83 84<209 335.75>
Fore
167 209 m 1xc8
 83 209 l 1xc8
 72 716 l 1
 181 716 l 1xd0
 167 209 l 1xc8
126 131 m 256
 168 131 199 98 199 59 c 256
 199 16 165 -14 126 -14 c 256
 83 -14 54 22 54 59 c 256xe0
 54 102 88 131 126 131 c 256
EndSplineSet
EndChar
StartChar: quotedbl
Encoding: 34 34 3
Width: 437
VWidth: 1504
Flags: W
HStem: 501 290<93 161 275 344>
VStem: 74 289<737.579 791 791 791 791 791>
Fore
344 501 m 1
 275 501 l 1
 256 791 l 1
 363 791 l 1
 344 501 l 1
161 501 m 1
 93 501 l 1
 74 791 l 1
 181 791 l 1
 161 501 l 1
EndSplineSet
EndChar
StartChar: numbersign
Encoding: 35 35 4
Width: 694
VWidth: 1504
Flags: W
HStem: 0 21G<117 208.43 396 486.71> 214 79<50 143 242 426 520 621> 427 81<69 171 269 451 549 644>
Fore
484 0 m 1
 396 0 l 1
 426 214 l 1
 232 214 l 1
 206 0 l 1
 117 0 l 1
 143 214 l 1
 50 214 l 1
 50 293 l 1
 153 293 l 1
 171 427 l 1
 69 427 l 1
 69 508 l 1
 181 508 l 1
 209 714 l 1
 295 714 l 1
 269 508 l 1
 460 508 l 1
 486 714 l 1
 575 714 l 1
 549 508 l 1
 644 508 l 1
 644 427 l 1
 537 427 l 1
 520 293 l 1
 621 293 l 1
 621 214 l 1
 513 214 l 1
 484 0 l 1
433 293 m 1
 451 427 l 1
 259 427 l 1
 242 293 l 1
 433 293 l 1
EndSplineSet
EndChar
StartChar: dollar
Encoding: 36 36 5
Width: 552
VWidth: 1504
Flags: W
HStem: -83 187<232.261 318.375> 23 81<156.151 232> 612 80<331 396.308> 612 190<245.719 329.494>
VStem: 83 91<479.247 579.011> 232 88<-83 23> 244 87<692 802> 396 91<147.017 259.282>
Fore
290 612 m 0x1b
 228 612 174 582 174 525 c 0
 174 487 218 448 307 409 c 0
 426 357 487 304 487 208 c 0
 487 133 435 50 320 26 c 1
 320 -83 l 1
 232 -83 l 1x9d
 232 23 l 1x4d
 165 29 110 49 65 84 c 1
 105 156 l 1
 149 121 202 104 263 104 c 0
 345 104 396 144 396 205 c 0
 396 252 355 292 274 326 c 0
 147 381 83 444 83 517 c 0
 83 614 153 672 244 690 c 1
 244 802 l 1
 331 802 l 1x9b
 331 692 l 1x2b
 378 686 426 669 475 642 c 1
 430 569 l 1
 396 598 349 612 290 612 c 0x1b
EndSplineSet
EndChar
StartChar: percent
Encoding: 37 37 6
Width: 1034
VWidth: 1504
Flags: W
HStem: -12 81<740.034 852.569> 289 81<183.158 292.353> 350 79<740.034 852.569> 650 80<183.158 292.353>
VStem: 59 90<405.804 612.449> 326 89<406.899 611.325> 617 90<106.84 311.504> 886 90<106.84 311.504>
Fore
326 -14 m 1x9f
 235 -14 l 1
 693 716 l 1
 785 716 l 1
 326 -14 l 1x9f
415 508 m 0
 415 362 355 289 236 289 c 0xdf
 118 289 59 362 59 508 c 0
 59 656 118 730 236 730 c 0
 355 730 415 656 415 508 c 0
326 508 m 0
 326 603 296 650 236 650 c 0
 178 650 149 603 149 508 c 0
 149 416 178 370 236 370 c 0
 296 370 326 416 326 508 c 0
976 209 m 0
 976 62 916 -12 796 -12 c 0
 677 -12 617 62 617 209 c 0
 617 356 677 429 796 429 c 0xbf
 916 429 976 356 976 209 c 0
886 209 m 0
 886 303 856 350 796 350 c 0
 737 350 707 303 707 209 c 0
 707 116 737 69 796 69 c 0
 856 69 886 116 886 209 c 0
EndSplineSet
EndChar
StartChar: ampersand
Encoding: 38 38 7
Width: 731
VWidth: 1504
Flags: W
HStem: -14 82<215.962 408.868> 663 77<268.545 395.576>
VStem: 53 94<133.024 277.484> 140 92<495.81 626.57> 417 87<525.21 641.881> 608 79<274.996 400>
Fore
335 740 m 0xdc
 435 740 504 674 504 582 c 0
 504 503 447 437 332 384 c 1
 377 333 441 269 523 190 c 1
 572 254 601 324 608 400 c 1
 687 400 l 1
 673 292 640 203 587 134 c 1
 713 21 l 1
 632 -21 l 1
 529 72 l 1
 450 15 370 -14 289 -14 c 0
 149 -14 53 85 53 202 c 0xec
 53 291 101 361 196 414 c 1
 159 462 140 509 140 554 c 0
 140 656 217 740 335 740 c 0xdc
331 663 m 0
 269 663 232 616 232 560 c 256xdc
 232 531 250 493 287 448 c 1
 374 491 417 535 417 578 c 0
 417 635 388 663 331 663 c 0
147 208 m 0xec
 147 124 213 68 301 68 c 0
 367 68 423 88 469 128 c 1
 251 350 l 1
 182 311 147 264 147 208 c 0xec
EndSplineSet
EndChar
StartChar: quotesingle
Encoding: 39 39 8
Width: 254
VWidth: 1504
Flags: W
HStem: 501 290<93 161>
VStem: 74 107<740.25 791 791 791 791 791>
Fore
161 501 m 1
 93 501 l 1
 74 791 l 1
 181 791 l 1
 161 501 l 1
EndSplineSet
EndChar
StartChar: parenleft
Encoding: 40 40 9
Width: 367
VWidth: 1504
Flags: W
VStem: 66 93<208.838 504.971>
Fore
244 -83 m 1
 125 40 66 185 66 353 c 0
 66 511 124 659 239 797 c 1
 350 797 l 1
 223 658 159 510 159 353 c 0
 159 205 222 60 349 -83 c 1
 244 -83 l 1
EndSplineSet
EndChar
StartChar: parenright
Encoding: 41 41 10
Width: 367
VWidth: 1504
Flags: W
VStem: 206 93<215.213 500.726>
Fore
299 358 m 0
 299 193 240 46 122 -83 c 1
 18 -83 l 1
 143 66 206 213 206 358 c 0
 206 503 143 650 17 797 c 1
 120 797 l 1
 239 670 299 523 299 358 c 0
EndSplineSet
EndChar
StartChar: asterisk
Encoding: 42 42 11
Width: 515
VWidth: 1504
Flags: MW
Fore
400 417 m 1
 323 372 l 1
 257 501 l 1
 191 372 l 1
 114 417 l 1
 208 532 l 1
 59 519 l 1
 59 597 l 1
 208 585 l 1
 114 701 l 1
 191 746 l 1
 257 617 l 1
 323 746 l 1
 400 701 l 1
 307 585 l 1
 456 597 l 1
 456 520 l 1
 307 532 l 1
 400 417 l 1
EndSplineSet
EndChar
StartChar: plus
Encoding: 43 43 12
Width: 627
VWidth: 1504
Flags: W
HStem: 0 21G<266 361> 236 83<44 266 361 584>
VStem: 266 95<0 236 319 546>
Fore
361 0 m 1
 266 0 l 1
 266 236 l 1
 44 236 l 1
 44 319 l 1
 266 319 l 1
 266 546 l 1
 361 546 l 1
 361 319 l 1
 584 319 l 1
 584 236 l 1
 361 236 l 1
 361 0 l 1
EndSplineSet
EndChar
StartChar: comma
Encoding: 44 44 13
Width: 258
VWidth: 1504
Flags: W
HStem: -161 299<69 131 131 131>
VStem: 57 149<7.26748 114.849>
Fore
131 138 m 0
 173 138 206 105 206 56 c 0
 206 -43 160 -116 69 -161 c 1
 38 -117 l 1
 91 -85 121 -50 129 -12 c 1
 81 -9 57 16 57 63 c 0
 57 108 92 138 131 138 c 0
EndSplineSet
EndChar
StartChar: hyphen
Encoding: 45 45 14
AltUni2: 0000ad.ffffffff.0
Width: 339
VWidth: 1504
Flags: MW
HStem: 236 81<20 320>
Fore
320 236 m 1
 20 236 l 1
 20 317 l 1
 320 317 l 1
 320 236 l 1
EndSplineSet
EndChar
StartChar: period
Encoding: 46 46 15
Width: 258
VWidth: 1504
Flags: W
HStem: -14 145<78.0743 181.25>
VStem: 57 145<7.59771 109.926>
Fore
129 131 m 256
 171 131 202 98 202 59 c 256
 202 16 168 -14 129 -14 c 256
 86 -14 57 22 57 59 c 256
 57 102 91 131 129 131 c 256
EndSplineSet
EndChar
StartChar: slash
Encoding: 47 47 16
Width: 415
VWidth: 1504
Flags: MW
HStem: 720 20G<345.744 453>
Fore
51 -42 m 1
 -45 -42 l 1
 356 740 l 1
 453 740 l 1
 51 -42 l 1
EndSplineSet
EndChar
StartChar: zero
Encoding: 48 48 17
Width: 568
VWidth: 1504
Flags: W
HStem: -14 83<221.401 347.225> 638 83<221.496 347.463>
VStem: 42 96<192.872 513.629> 429 96<192.66 513.858>
Fore
281 -14 m 0
 117 -14 42 171 42 353 c 256
 42 534 116 721 281 721 c 0
 451 721 525 536 525 353 c 256
 525 171 451 -14 281 -14 c 0
283 69 m 0
 399 69 429 226 429 353 c 256
 429 480 399 638 284 638 c 0
 168 638 138 481 138 353 c 256
 138 227 168 69 283 69 c 0
EndSplineSet
EndChar
StartChar: one
Encoding: 49 49 18
Width: 568
VWidth: 1504
Flags: MW
HStem: 0 77<144 256 352 462> 699 20G<272.273 314.5>
VStem: 256 96<77 576>
Fore
462 0 m 1
 144 0 l 1
 144 77 l 1
 256 77 l 1
 256 576 l 1
 161 496 l 1
 105 558 l 1
 296 719 l 1
 333 719 352 695 352 647 c 2
 352 77 l 1
 462 77 l 1
 462 0 l 1
EndSplineSet
EndChar
StartChar: two
Encoding: 50 50 19
Width: 568
VWidth: 1504
Flags: W
HStem: 0 84<158 523> 632 87<230.424 389.576>
VStem: 80 88<520 590.654> 424 96<463.854 597.5>
Fore
520 528 m 0
 520 361 228 187 158 84 c 1
 542 84 l 1
 523 0 l 1
 36 0 l 1
 44 44 53 80 62 108 c 1
 88 140 168 218 301 343 c 0
 383 420 424 483 424 532 c 0
 424 599 385 632 307 632 c 0
 230 632 183 587 168 498 c 1
 80 520 l 1
 93 644 180 719 308 719 c 0
 431 719 520 640 520 528 c 0
EndSplineSet
EndChar
StartChar: three
Encoding: 51 51 20
Width: 568
VWidth: 1504
Flags: W
HStem: -12 92<126.811 325.88> 522 21G<80.1429 131> 638 81<203.785 352.153>
VStem: 367 90<527.138 622.859> 424 95<172.288 315.324>
Fore
364 439 m 1xf0
 456 422 519 351 519 248 c 0
 519 92 399 -12 217 -12 c 0
 148 -12 89 9 39 51 c 1
 81 128 l 1
 126 96 177 80 232 80 c 0
 341 80 424 159 424 245 c 0xe8
 424 308 381 360 316 360 c 0
 279 360 243 345 209 316 c 1
 168 382 l 1
 216 409 367 510 367 579 c 0
 367 618 339 638 284 638 c 0
 207 638 143 581 119 522 c 1
 51 557 l 1
 87 650 173 719 289 719 c 0
 383 719 457 668 457 581 c 0
 457 540 426 492 364 439 c 1xf0
EndSplineSet
EndChar
StartChar: four
Encoding: 52 52 21
Width: 568
VWidth: 1504
Flags: W
HStem: 0 21G<344 441> 159 82<137 344 441 526>
VStem: 344 97<0 159 241 608>
Fore
344 241 m 1
 344 608 l 1
 249 546 163 390 137 241 c 1
 344 241 l 1
441 0 m 1
 344 0 l 1
 344 159 l 1
 42 159 l 1
 42 401 216 717 441 736 c 1
 441 241 l 1
 537 241 l 1
 526 159 l 1
 441 159 l 1
 441 0 l 1
EndSplineSet
EndChar
StartChar: five
Encoding: 53 53 22
Width: 568
VWidth: 1504
Flags: W
HStem: -12 81<139.3 323.493> 387 85<238.334 360.237> 635 81<235 484>
VStem: 424 96<166.955 327.409>
Fore
289 472 m 0
 420 472 520 384 520 253 c 0
 520 94 399 -12 224 -12 c 0
 150 -12 88 10 39 53 c 1
 80 122 l 1
 136 87 188 69 235 69 c 0
 336 69 424 142 424 251 c 0
 424 340 361 387 269 387 c 256
 222 387 192 370 177 337 c 1
 117 334 l 1
 143 716 l 1
 501 716 l 1
 484 635 l 1
 235 635 l 1
 224 460 l 1
 242 468 264 472 289 472 c 0
EndSplineSet
EndChar
StartChar: six
Encoding: 54 54 23
Width: 568
VWidth: 1504
Flags: W
HStem: -12 84<225.36 358.999> 379 81<221.884 358.966> 656 75<356.79 460.364>
VStem: 54 102<144.404 305.496> 426 87<143.945 307.641>
Fore
299 460 m 0
 421 460 513 360 513 226 c 0
 513 93 426 -12 296 -12 c 0
 169 -12 54 79 54 257 c 0
 54 500 232 685 466 731 c 1
 475 656 l 1
 371 627 229 540 171 414 c 1
 202 445 245 460 299 460 c 0
293 72 m 0
 366 72 426 144 426 226 c 256
 426 307 366 379 293 379 c 0
 216 379 156 312 156 226 c 0
 156 140 216 72 293 72 c 0
EndSplineSet
EndChar
StartChar: seven
Encoding: 55 55 24
Width: 568
VWidth: 1504
Flags: W
HStem: 0 21G<199 296> 635 81<65 411>
VStem: 199 97<0 218.18>
Fore
296 0 m 1
 199 0 l 1
 207 280 278 492 411 635 c 1
 42 635 l 1
 65 716 l 1
 532 716 l 1
 519 635 l 1
 363 440 296 272 296 0 c 1
EndSplineSet
EndChar
StartChar: eight
Encoding: 56 56 25
Width: 568
VWidth: 1504
Flags: W
HStem: -12 81<196.983 370.619> 639 82<206.983 361.652>
VStem: 47 91<125.181 274.667> 69 90<479.276 594.091> 409 90<480.172 593.976> 430 92<125.181 276.402>
Fore
284 69 m 256xe4
 370 69 430 117 430 197 c 0
 430 258 392 341 284 347 c 0
 177 341 138 258 138 197 c 0
 138 117 199 69 284 69 c 256xe4
284 639 m 256
 213 639 159 597 159 534 c 0
 159 485 200 449 283 426 c 1
 367 449 409 485 409 534 c 0xd8
 409 587 368 639 284 639 c 256
402 388 m 1
 466 358 522 288 522 202 c 0
 522 66 428 -12 283 -12 c 0
 139 -12 47 66 47 202 c 0xe4
 47 288 102 358 167 388 c 1
 102 423 69 470 69 529 c 0
 69 642 160 721 284 721 c 256
 409 721 499 642 499 529 c 0
 499 470 467 423 402 388 c 1
EndSplineSet
EndChar
StartChar: nine
Encoding: 57 57 26
Width: 568
VWidth: 1504
Flags: W
HStem: -24 75<92 195.574> 247 81<208.034 345.075> 635 84<208.001 341.64>
VStem: 54 87<399.359 563.055> 411 102<401.504 562.596>
Fore
271 719 m 0
 398 719 513 628 513 450 c 0
 513 207 335 22 101 -24 c 1
 92 51 l 1
 220 84 356 198 402 295 c 1
 373 263 328 247 268 247 c 256
 146 247 54 347 54 481 c 0
 54 614 141 719 271 719 c 0
274 328 m 0
 351 328 411 395 411 481 c 0
 411 567 351 635 274 635 c 0
 201 635 141 563 141 481 c 256
 141 400 201 328 274 328 c 0
EndSplineSet
EndChar
StartChar: colon
Encoding: 58 58 27
Width: 258
VWidth: 1504
Flags: W
HStem: -14 145<78.0743 181.25> 356 145<78.0743 181.25>
VStem: 57 145<7.59771 109.926 377.598 479.926>
Fore
129 131 m 256
 171 131 202 98 202 59 c 256
 202 16 168 -14 129 -14 c 256
 86 -14 57 22 57 59 c 256
 57 102 91 131 129 131 c 256
129 501 m 256
 171 501 202 468 202 429 c 256
 202 386 168 356 129 356 c 256
 86 356 57 392 57 429 c 256
 57 472 91 501 129 501 c 256
EndSplineSet
EndChar
StartChar: semicolon
Encoding: 59 59 28
Width: 258
VWidth: 1504
Flags: W
HStem: 356 145<78.0743 181.25>
VStem: 57 149<7.26749 115.375 377.598 479.926>
Fore
129 501 m 256
 171 501 202 468 202 429 c 256
 202 386 168 356 129 356 c 256
 86 356 57 392 57 429 c 256
 57 472 91 501 129 501 c 256
131 138 m 0
 173 138 206 105 206 56 c 0
 206 -43 160 -116 69 -161 c 1
 38 -117 l 1
 91 -85 121 -50 129 -12 c 1
 81 -9 57 16 57 63 c 0
 57 108 92 138 131 138 c 0
EndSplineSet
EndChar
StartChar: less
Encoding: 60 60 29
Width: 627
VWidth: 1504
Flags: W
HStem: -15 21G<534.697 573>
Fore
573 -15 m 1
 54 256 l 1
 54 317 l 1
 573 587 l 1
 573 492 l 1
 174 286 l 1
 573 80 l 1
 573 -15 l 1
EndSplineSet
EndChar
StartChar: equal
Encoding: 61 61 30
Width: 627
VWidth: 1504
Flags: MW
HStem: 146 80<69 558> 335 79<69 558>
Fore
558 335 m 1
 69 335 l 1
 69 414 l 1
 558 414 l 1
 558 335 l 1
558 146 m 1
 69 146 l 1
 69 226 l 1
 558 226 l 1
 558 146 l 1
EndSplineSet
EndChar
StartChar: greater
Encoding: 62 62 31
Width: 627
VWidth: 1504
Flags: W
HStem: -15 21G<54 92.3026>
Fore
573 256 m 1
 54 -15 l 1
 54 80 l 1
 454 287 l 1
 54 492 l 1
 54 587 l 1
 573 317 l 1
 573 256 l 1
EndSplineSet
EndChar
StartChar: question
Encoding: 63 63 32
Width: 434
VWidth: 1504
Flags: W
HStem: -14 145<152.074 253.926> 641 86<110.095 277.655>
VStem: 131 144<7.36134 110.478> 140 90<213.372 314.613> 304 95<493.612 613.865>
Fore
209 727 m 0xd8
 322 727 399 663 399 558 c 0
 399 504 366 443 299 376 c 0
 254 331 231 285 230 239 c 0
 230 224 234 203 241 176 c 1
 155 176 l 1
 145 206 140 229 140 244 c 0
 140 293 167 349 222 412 c 0
 277 475 304 523 304 555 c 0
 304 612 269 641 199 641 c 0
 156 641 114 626 74 597 c 1
 36 671 l 1
 95 708 153 727 209 727 c 0xd8
203 131 m 256
 246 131 275 97 275 59 c 256
 275 17 242 -14 203 -14 c 256
 160 -14 131 22 131 59 c 256xe8
 131 102 165 131 203 131 c 256
EndSplineSet
EndChar
StartChar: at
Encoding: 64 64 33
Width: 860
VWidth: 1504
Flags: W
HStem: -143 62<296.278 529.02> 2 66<309.226 468.101> 11 69<617 655.53> 245 57<378.396 516> 417 63<318.009 480.681> 534 62<331.63 575.8>
VStem: 45 77<93.7979 327.383> 217 75<86.3869 187.512> 520 77<112.648 128 128 245 302 380.752> 742 70<175.664 369.96>
Fore
462 596 m 0xbfc0
 665 596 812 464 812 266 c 0
 812 104 684 11 543 11 c 1xbfc0
 534 65 l 1
 487 23 433 2 373 2 c 0xdfc0
 288 2 217 54 217 131 c 0
 217 240 317 297 516 302 c 1
 516 379 480 417 408 417 c 0
 369 417 332 406 299 385 c 1
 274 438 l 1
 322 466 375 480 432 480 c 0
 542 480 597 400 597 284 c 2
 597 128 l 2
 597 105 598 89 599 80 c 1
 617 80 l 1
 682 99 742 176 742 263 c 0
 742 402 647 534 454 534 c 0
 246 534 122 385 122 205 c 0
 122 31 252 -81 406 -81 c 0
 467 -81 529 -65 590 -33 c 1
 618 -93 l 1
 548 -126 476 -143 402 -143 c 0
 205 -143 45 0 45 200 c 0
 45 426 219 596 462 596 c 0xbfc0
375 68 m 0xdfc0
 450 68 520 105 520 161 c 2
 520 245 l 1
 368 239 292 203 292 138 c 0
 292 91 320 68 375 68 c 0xdfc0
EndSplineSet
EndChar
StartChar: A
Encoding: 65 65 34
Width: 678
VWidth: 1504
Flags: W
HStem: 0 21G<-2 108.782 568.05 680> 239 81<229 445> 707 20G<290.719 389.226>
Fore
680 0 m 1
 576 0 l 1
 481 239 l 1
 194 239 l 1
 101 0 l 1
 -2 0 l 1
 299 727 l 1
 381 727 l 1
 680 0 l 1
445 320 m 1
 340 618 l 1
 229 320 l 1
 445 320 l 1
EndSplineSet
EndChar
StartChar: B
Encoding: 66 66 35
Width: 595
VWidth: 1504
Flags: W
HStem: -9 81<176.868 372.296> 338 80<170 367.874> 642 83<180.606 368.609>
VStem: 75 95<77 338 418 638> 427 95<468.701 595.153> 457 94<139.906 274.109>
Fore
551 208 m 0xf4
 551 63 445 -9 232 -9 c 0
 187 -9 134 -2 75 11 c 1
 75 702 l 1
 137 717 194 725 247 725 c 0
 430 725 522 662 522 535 c 0xf8
 522 471 492 421 432 384 c 1
 511 347 551 288 551 208 c 0xf4
277 418 m 2
 361 418 427 458 427 534 c 0
 427 606 367 642 247 642 c 0
 226 642 200 641 170 638 c 1
 170 418 l 1
 277 418 l 2
245 72 m 0
 355 72 457 107 457 206 c 0xf4
 457 312 347 338 257 338 c 2
 170 338 l 1
 170 77 l 1
 187 74 212 72 245 72 c 0
EndSplineSet
EndChar
StartChar: C
Encoding: 67 67 36
Width: 649
VWidth: 1504
Flags: W
HStem: -11 82<276.52 531.584> 608 21G<556.5 595> 645 82<278.046 542.416>
VStem: 39 96<232.487 486.949>
Fore
135 353 m 0
 135 211 216 71 375 71 c 0
 458 71 530 86 591 116 c 1
 617 38 l 1
 544 5 456 -11 355 -11 c 0
 159 -11 39 143 39 356 c 0
 39 586 169 727 384 727 c 0
 469 727 546 712 617 683 c 1
 587 608 l 1
 526 633 460 645 387 645 c 0
 185 645 135 480 135 353 c 0
EndSplineSet
EndChar
StartChar: D
Encoding: 68 68 37
Width: 690
VWidth: 1504
Flags: W
HStem: -6 81<195.629 411.135> 642 82<236.426 422.628>
VStem: 75 95<80 633> 555 96<237.806 504.926>
Fore
307 724 m 0
 528 724 651 600 651 373 c 0
 651 195 576 -6 277 -6 c 0
 236 -6 168 -1 75 9 c 1
 75 704 l 1
 190 717 267 724 307 724 c 0
295 75 m 0
 503 75 555 236 555 373 c 0
 555 552 471 642 302 642 c 0
 274 642 230 639 170 633 c 1
 170 80 l 1
 203 77 245 75 295 75 c 0
EndSplineSet
EndChar
StartChar: E
Encoding: 69 69 38
Width: 538
VWidth: 1504
Flags: W
HStem: 0 81<170 501> 337 81<170 465> 635 81<170 501>
VStem: 75 95<81 337 418 635> 75 426<0 81 635 716>
Fore
501 0 m 1xe8
 75 0 l 1
 75 716 l 1
 501 716 l 1
 501 635 l 1xe8
 170 635 l 1
 170 418 l 1
 465 418 l 1
 465 337 l 1
 170 337 l 1
 170 81 l 1xf0
 501 81 l 1
 501 0 l 1xe8
EndSplineSet
EndChar
StartChar: F
Encoding: 70 70 39
Width: 538
VWidth: 1504
Flags: W
HStem: 0 21G<75 170> 329 80<170 495> 635 81<170 516>
VStem: 75 95<0 329 409 635>
Fore
170 0 m 1
 75 0 l 1
 75 716 l 1
 516 716 l 1
 516 635 l 1
 170 635 l 1
 170 409 l 1
 495 409 l 1
 495 329 l 1
 170 329 l 1
 170 0 l 1
EndSplineSet
EndChar
StartChar: G
Encoding: 71 71 40
Width: 682
VWidth: 1504
Flags: W
HStem: -11 82<276.52 479.937> 298 80<347 528> 608 21G<556.5 595> 645 82<278.046 542.416>
VStem: 39 96<232.487 486.949> 528 95<95 298>
Fore
135 353 m 0
 135 211 216 71 375 71 c 0
 434 71 485 79 528 95 c 1
 528 298 l 1
 347 298 l 1
 347 378 l 1
 623 378 l 1
 623 17 l 1
 575 29 l 1
 516 2 443 -11 355 -11 c 0
 159 -11 39 143 39 356 c 0
 39 586 169 727 384 727 c 0
 469 727 546 712 617 683 c 1
 587 608 l 1
 526 633 460 645 387 645 c 0
 185 645 135 480 135 353 c 0
EndSplineSet
EndChar
StartChar: H
Encoding: 72 72 41
Width: 709
VWidth: 1504
Flags: W
HStem: 0 21G<75 170 540 635> 340 81<170 540> 696 20G<75 170 540 635>
VStem: 75 95<0 340 421 716> 540 95<0 340 421 716>
Fore
635 0 m 1
 540 0 l 1
 540 340 l 1
 170 340 l 1
 170 0 l 1
 75 0 l 1
 75 716 l 1
 170 716 l 1
 170 421 l 1
 540 421 l 1
 540 716 l 1
 635 716 l 1
 635 0 l 1
EndSplineSet
EndChar
StartChar: I
Encoding: 73 73 42
Width: 245
VWidth: 1504
Flags: W
HStem: 0 21G<75 170> 696 20G<75 170>
VStem: 75 95<0 716>
Fore
170 0 m 1
 75 0 l 1
 75 716 l 1
 170 716 l 1
 170 0 l 1
EndSplineSet
EndChar
StartChar: J
Encoding: 74 74 43
Width: 424
VWidth: 1504
Flags: W
HStem: -14 82<78.2935 197.604> 696 20G<254 349>
VStem: 254 95<129.438 716>
Fore
119 68 m 0
 227 68 254 139 254 256 c 2
 254 716 l 1
 349 716 l 1
 349 241 l 2
 349 71 272 -14 119 -14 c 0
 80 -14 37 -4 -9 15 c 1
 17 93 l 1
 46 76 80 68 119 68 c 0
EndSplineSet
EndChar
StartChar: K
Encoding: 75 75 44
Width: 618
VWidth: 1504
Flags: W
HStem: -11 21G<75 170 521.535 591.941> 696 20<75 170 490.207 587.667>
VStem: 75 95<0 287 400 716>
Fore
629 23 m 1
 539 -11 l 1
 229 344 l 1
 170 287 l 1
 170 0 l 1
 75 0 l 1
 75 716 l 1
 170 716 l 1
 170 400 l 1
 511 728 l 1
 603 704 l 1
 293 408 l 1
 629 23 l 1
EndSplineSet
EndChar
StartChar: L
Encoding: 76 76 45
Width: 540
VWidth: 1504
Flags: MW
HStem: 0 81<170 520> 696 20G<75 170>
VStem: 75 95<81 716>
Fore
520 0 m 1
 75 0 l 1
 75 716 l 1
 170 716 l 1
 170 81 l 1
 520 81 l 1
 520 0 l 1
EndSplineSet
EndChar
StartChar: M
Encoding: 77 77 46
Width: 863
VWidth: 1504
Flags: W
HStem: 0 21G<44 136.405 391.856 471.144 726.595 820> 696 20G<93.5754 201.987 661.047 770.425>
Fore
820 0 m 1
 728 0 l 1
 689 555 l 1
 463 0 l 1
 400 0 l 1
 174 555 l 1
 135 0 l 1
 44 0 l 1
 95 716 l 1
 194 716 l 1
 432 120 l 1
 669 716 l 1
 769 716 l 1
 820 0 l 1
EndSplineSet
EndChar
StartChar: N
Encoding: 78 78 47
Width: 709
VWidth: 1504
Flags: W
HStem: 0 21G<75 170 532.091 635> 696 20G<75 183.074 540 635>
VStem: 75 95<0 581> 540 95<150 716>
Fore
635 0 m 1
 545 0 l 1
 170 581 l 1
 170 0 l 1
 75 0 l 1
 75 716 l 1
 170 716 l 1
 540 150 l 1
 540 716 l 1
 635 716 l 1
 635 0 l 1
EndSplineSet
EndChar
StartChar: O
Encoding: 79 79 48
Width: 779
VWidth: 1504
Flags: W
HStem: -15 83<286.071 490.465> 648 82<286.071 490.465>
VStem: 39 93<235.977 478.57> 647 93<235.999 478.355>
Fore
390 68 m 256
 544 68 647 193 647 358 c 256
 647 523 544 648 390 648 c 256
 235 648 132 524 132 358 c 256
 132 192 235 68 390 68 c 256
740 356 m 256
 740 147 600 -15 390 -15 c 256
 179 -15 39 148 39 356 c 256
 39 566 179 730 390 730 c 256
 600 730 740 566 740 356 c 256
EndSplineSet
EndChar
StartChar: P
Encoding: 80 80 49
Width: 586
VWidth: 1504
Flags: W
HStem: 0 21G<75 170> 278 82<196.236 376.842> 642 82<183.721 381.65>
VStem: 75 95<0 283 369 638> 454 95<425.592 579.665>
Fore
266 724 m 0
 481 724 549 606 549 510 c 0
 549 371 429 278 245 278 c 0
 222 278 197 280 170 283 c 1
 170 0 l 1
 75 0 l 1
 75 705 l 1
 148 718 211 724 266 724 c 0
454 505 m 0
 454 596 391 642 265 642 c 0
 231 642 199 641 170 638 c 1
 170 369 l 1
 204 363 233 360 256 360 c 0
 388 360 454 408 454 505 c 0
EndSplineSet
EndChar
StartChar: Q
Encoding: 81 81 50
Width: 779
VWidth: 1504
Flags: W
HStem: -15 83<287.846 476.706> 648 82<286.071 490.465>
VStem: 39 93<235.977 478.57> 647 93<237.881 478.355>
Fore
390 68 m 256
 544 68 647 193 647 358 c 256
 647 523 544 648 390 648 c 256
 235 648 132 524 132 358 c 256
 132 192 235 68 390 68 c 256
716 -107 m 1
 508 -52 451 -21 390 -15 c 0
 179 -15 39 148 39 356 c 256
 39 566 179 730 390 730 c 256
 600 730 740 566 740 356 c 0
 740 187 653 69 528 26 c 1
 528 20 l 1
 608 -1 681 -16 746 -26 c 1
 716 -107 l 1
EndSplineSet
EndChar
StartChar: R
Encoding: 82 82 51
Width: 594
VWidth: 1504
Flags: W
HStem: 0 21G<75 170 463.5 572> 311 79<170 356.212> 641 83<190.647 390.069>
VStem: 75 95<0 311 390 636> 456 92<443.361 585.36> 477 95<0 193.658>
Fore
269 724 m 0xf4
 423 724 548 659 548 522 c 0xf8
 548 440 509 381 430 344 c 1
 523 283 549 157 572 0 c 1
 477 0 l 1
 450 207 387 311 290 311 c 2
 170 311 l 1
 170 0 l 1
 75 0 l 1
 75 704 l 1
 148 717 212 724 269 724 c 0xf4
456 516 m 0
 456 599 394 641 269 641 c 0
 229 641 196 639 170 636 c 1
 170 390 l 1
 286 390 l 2
 399 390 456 432 456 516 c 0
EndSplineSet
EndChar
StartChar: S
Encoding: 83 83 52
Width: 549
VWidth: 1504
Flags: W
HStem: -14 86<144.988 352.626> 606 21G<417 452.933> 644 86<205.084 404.045>
VStem: 57 95<484.629 597.066> 414 96<127.127 252.427>
Fore
296 644 m 0
 215 644 152 604 152 543 c 0
 152 488 200 445 296 414 c 0
 464 360 510 295 510 196 c 0
 510 66 394 -14 250 -14 c 0
 171 -14 97 8 29 51 c 1
 69 137 l 1
 126 94 189 72 256 72 c 0
 372 72 414 134 414 191 c 0
 414 251 366 297 269 328 c 0
 128 373 57 442 57 535 c 0
 57 652 157 730 298 730 c 256
 369 730 431 714 483 681 c 1
 442 606 l 1
 392 631 343 644 296 644 c 0
EndSplineSet
EndChar
StartChar: T
Encoding: 84 84 53
Width: 633
VWidth: 1504
Flags: W
HStem: 0 21G<271 366> 635 81<6 271 366 627>
VStem: 271 95<0 635>
Fore
366 0 m 1
 271 0 l 1
 271 635 l 1
 6 635 l 1
 6 716 l 1
 627 716 l 1
 627 635 l 1
 366 635 l 1
 366 0 l 1
EndSplineSet
EndChar
StartChar: U
Encoding: 85 85 54
Width: 725
VWidth: 1504
Flags: W
HStem: -14 82<265.922 459.573> 696 20G<75 171 554 650>
VStem: 75 96<174.986 716> 554 96<174.986 716>
Fore
650 305 m 2
 650 92.3333 554.333 -14 363 -14 c 256
 171 -14 75 92.3333 75 305 c 2
 75 716 l 1
 171 716 l 1
 171 305 l 2
 171 147 235 68 363 68 c 256
 490.333 68 554 147 554 305 c 2
 554 716 l 1
 650 716 l 1
 650 305 l 2
EndSplineSet
EndChar
StartChar: V
Encoding: 86 86 55
Width: 634
VWidth: 1504
Flags: W
HStem: 0 21G<266.29 368.682> 696 20G<-2 108.359 526.606 636>
Fore
361 0 m 1
 274 0 l 1
 -2 716 l 1
 101 716 l 1
 317 129 l 1
 534 716 l 1
 636 716 l 1
 361 0 l 1
EndSplineSet
EndChar
StartChar: W
Encoding: 87 87 56
Width: 920
VWidth: 1504
Flags: W
HStem: 0 21G<187.441 286.154 634.812 733.559> 696 20G<-6 102.895 408.811 511.224 818.105 927>
Fore
728 0 m 1
 641 0 l 1
 460 585 l 1
 280 0 l 1
 193 0 l 1
 -6 716 l 1
 98 716 l 1
 238 144 l 1
 415 716 l 1
 505 716 l 1
 683 144 l 1
 823 716 l 1
 927 716 l 1
 728 0 l 1
EndSplineSet
EndChar
StartChar: X
Encoding: 88 88 57
Width: 640
VWidth: 1504
Flags: W
HStem: 0 21G<-2 127.483 516.655 644> 696 20G<9 139.143 503.143 635>
Fore
644 0 m 1
 531 0 l 1
 323 290 l 1
 113 0 l 1
 -2 0 l 1
 265 367 l 1
 9 716 l 1
 125 716 l 1
 323 436 l 1
 517 716 l 1
 635 716 l 1
 379 367 l 1
 644 0 l 1
EndSplineSet
EndChar
StartChar: Y
Encoding: 89 89 58
Width: 595
VWidth: 1504
Flags: W
HStem: 0 21G<253 346> 696 20G<-9 113.298 483.764 605>
VStem: 253 93<0 313>
Fore
346 0 m 1
 253 0 l 1
 253 313 l 1
 -9 716 l 1
 101 716 l 1
 299 394 l 1
 496 716 l 1
 605 716 l 1
 346 314 l 1
 346 0 l 1
EndSplineSet
EndChar
StartChar: Z
Encoding: 90 90 59
Width: 678
VWidth: 1504
Flags: W
HStem: 0 81<171 641> 635 81<81 505>
Fore
641 0 m 1
 41 0 l 1
 41 60 l 1
 505 635 l 1
 65 635 l 1
 81 716 l 1
 636 716 l 1
 636 654 l 1
 171 81 l 1
 659 81 l 1
 641 0 l 1
EndSplineSet
EndChar
StartChar: bracketleft
Encoding: 91 91 60
Width: 351
VWidth: 1504
Flags: MW
HStem: -116 77<158 307> 716 78<158 307>
VStem: 69 89<-39 716>
Fore
307 -116 m 1
 69 -116 l 1
 69 794 l 1
 307 794 l 1
 307 716 l 1
 158 716 l 1
 158 -39 l 1
 307 -39 l 1
 307 -116 l 1
EndSplineSet
EndChar
StartChar: backslash
Encoding: 92 92 61
Width: 403
VWidth: 1504
Flags: MW
HStem: 707 20G<-33 75.1302>
Fore
454 -41 m 1
 358 -41 l 1
 -33 727 l 1
 65 727 l 1
 454 -41 l 1
EndSplineSet
EndChar
StartChar: bracketright
Encoding: 93 93 62
Width: 351
VWidth: 1504
Flags: MW
HStem: -116 77<45 194> 716 78<45 194>
VStem: 194 89<-39 716>
Fore
283 -116 m 1
 45 -116 l 1
 45 -39 l 1
 194 -39 l 1
 194 716 l 1
 45 716 l 1
 45 794 l 1
 283 794 l 1
 283 -116 l 1
EndSplineSet
EndChar
StartChar: asciicircum
Encoding: 94 94 63
Width: 628
VWidth: 1504
Flags: W
HStem: 229 493<283 593 283 283>
Fore
593 229 m 1
 495 229 l 1
 320 609 l 1
 146 229 l 1
 48 229 l 1
 283 722 l 1
 360 722 l 1
 593 229 l 1
EndSplineSet
EndChar
StartChar: underscore
Encoding: 95 95 64
Width: 565
VWidth: 1504
Flags: MW
HStem: -263 79<0 566>
Fore
566 -263 m 1
 0 -263 l 1
 0 -184 l 1
 566 -184 l 1
 566 -263 l 1
EndSplineSet
EndChar
StartChar: grave
Encoding: 96 96 65
Width: 315
VWidth: 1504
Flags: W
HStem: 564 173<137 250 137 137>
VStem: 51 199<564 710 710 710>
Fore
250 564 m 1
 177 564 l 1
 51 710 l 1
 137 737 l 1
 250 564 l 1
EndSplineSet
EndChar
StartChar: a
Encoding: 97 97 66
Width: 552
VWidth: 1504
Flags: W
HStem: -14 83<156.444 319.296> 253 82<217.22 381> 448 78<161.781 334.454>
VStem: 39 96<90.4547 197.274> 381 94<118.748 137 137 253 335 397.626>
Fore
220 -14 m 0
 117 -14 42 45 39 140 c 0
 39 267 153 332 381 335 c 1
 371 410 330 448 257 448 c 0
 203 448 143 436 78 411 c 1
 68 496 l 1
 136 516 201 526 262 526 c 0
 404 526 475 453 475 307 c 2
 475 137 l 2
 475 99 482 55 496 5 c 1
 408 -14 l 1
 393 53 l 1
 342 8 284 -14 220 -14 c 0
224 69 m 0
 292 69 381 108 381 162 c 2
 381 253 l 1
 217 250 135 215 135 149 c 0
 135 96 165 69 224 69 c 0
EndSplineSet
Substitution2: "Single Substitution lookup 42 subtable" uni0E38
Substitution2: "Single Substitution lookup 42 subtable" uni0E38
EndChar
StartChar: b
Encoding: 98 98 67
Width: 654
VWidth: 1504
Flags: W
HStem: -14 83<242.579 436.277> 453 78<263.322 435.518> 738 20G<81 176>
VStem: 75 90<0 13.8319 13.8319 49.4272> 81 95<129.13 137 137 374.557 460 758> 522 93<161.224 362.377>
Fore
360 531 m 0xec
 504 531 615 421 615 266 c 0
 615 96 496 -14 352 -14 c 256
 278 -14 217 9 170 56 c 1
 170 30 168 11 165 0 c 1
 75 0 l 1xf4
 79 49 81 95 81 137 c 2
 81 758 l 1
 176 758 l 1
 176 460 l 1
 223 507 285 531 360 531 c 0xec
344 69 m 0
 460 69 522 146 522 266 c 0
 522 372 458 453 350 453 c 0
 270 453 176 394 176 311 c 2
 176 194 l 2xec
 176 119 242 69 344 69 c 0
EndSplineSet
Substitution2: "Single Substitution lookup 42 subtable" uni0E39
Substitution2: "Single Substitution lookup 42 subtable" uni0E39
EndChar
StartChar: c
Encoding: 99 99 68
Width: 521
VWidth: 1504
Flags: W
HStem: -14 80<221.51 407.723> 451 80<221.067 408.89>
VStem: 39 96<159.45 357.43>
Fore
135 259 m 0
 135 141 203 66 305 66 c 0
 356 66 404 81 451 110 c 1
 484 32 l 1
 436 1 377 -14 308 -14 c 0
 145 -14 39 98 39 259 c 0
 39 422 145 531 308 531 c 0
 377 531 435 516 484 486 c 1
 451 408 l 1
 404 437 356 451 305 451 c 0
 201 451 135 371 135 259 c 0
EndSplineSet
Substitution2: "Single Substitution lookup 42 subtable" uni0E3A
Substitution2: "Single Substitution lookup 42 subtable" uni0E3A
EndChar
StartChar: d
Encoding: 100 100 69
Width: 654
VWidth: 1504
Flags: W
HStem: -14 83<217.945 411.59> 453 78<217.334 390.73> 738 20G<478 573>
VStem: 39 93<161.224 360.657> 478 95<129.13 137 137 374.557 460 758>
Fore
39 266 m 0
 39 421 150 531 295 531 c 0
 370 531 431 507 478 460 c 1
 478 758 l 1
 573 758 l 1
 573 137 l 2
 573 95 575 49 579 0 c 1
 489 0 l 1
 486 11 484 30 484 56 c 1
 437 9 377 -14 302 -14 c 256
 158 -14 39 96 39 266 c 0
310 69 m 0
 412 69 478 119 478 194 c 2
 478 311 l 2
 478 394 383 453 304 453 c 0
 198 453 132 373 132 266 c 0
 132 146 195 69 310 69 c 0
EndSplineSet
EndChar
StartChar: e
Encoding: 101 101 70
Width: 588
VWidth: 1504
Flags: W
HStem: -14 85<225.587 464.152> 241 79<138 456> 453 78<221.072 386.115>
VStem: 39 93<165.521 241>
Fore
132 241 m 1
 140 131 214 71 325 71 c 0
 381 71 445 84 517 110 c 1
 528 27 l 1
 455 -0 385 -14 319 -14 c 0
 157 -14 39 91 39 248 c 0
 39 421 151 531 313 531 c 0
 468 531 546 434 549 241 c 1
 132 241 l 1
456 320 m 1
 446 394 394 453 304 453 c 0
 226 453 153 401 138 320 c 1
 456 320 l 1
EndSplineSet
EndChar
StartChar: f
Encoding: 102 102 71
Width: 382
VWidth: 1504
Flags: W
HStem: 0 21G<111 206> 433 78<26 111 206 352> 687 82<250.607 369.998>
VStem: 111 95<0 433 511 629.859>
Fore
206 0 m 1
 111 0 l 1
 111 433 l 1
 26 433 l 1
 26 511 l 1
 113 511 l 1
 113 683 180 769 313 769 c 0
 355 769 391 758 420 736 c 1
 393 665 l 1
 358 680 330 687 310 687 c 0
 241 687 206 628 206 511 c 1
 352 511 l 1
 352 433 l 1
 206 433 l 1
 206 0 l 1
EndSplineSet
EndChar
StartChar: g
Encoding: 103 103 72
Width: 499
VWidth: 1504
Flags: W
HStem: -226 80<154.605 320.303> 152 78<194.137 317.724> 445 77<182.961 313.788> 457 65<379 454>
VStem: 48 89<273.453 400.582> 89 85<121.512 158.92> 353 86<-113.02 -32.5758 267.61 401.288>
Fore
436 344 m 0xda
 436 224 366 152 247 152 c 0
 225 152 203 155 182 162 c 1
 177 157 174 151 174 143 c 0
 174 128 210 110 283 90 c 0
 387 61 439 9 439 -68 c 0
 439 -131 403 -226 239 -226 c 0
 185 -226 129 -209 72 -174 c 1
 105 -99 l 1
 158 -130 205 -146 245 -146 c 0
 307 -146 353 -113 353 -72 c 0
 353 -11 260 4 148 64 c 0
 108 86 89 113 89 147 c 0xd6
 89 163 93 184 102 209 c 1
 66 248 48 290 48 334 c 0
 48 451 137 522 238 522 c 2xea
 454 522 l 1
 454 457 l 1
 379 457 l 1
 414 444 436 392 436 344 c 0xda
247 230 m 0
 334 230 356 294 356 337 c 256
 356 400 306 445 247 445 c 256
 186 445 137 397 137 337 c 256xea
 137 274 189 230 247 230 c 0
EndSplineSet
EndChar
StartChar: h
Encoding: 104 104 73
Width: 636
VWidth: 1504
Flags: W
HStem: 0 21G<75 170 466 561> 444 81<249.96 403.826> 738 20G<75 170>
VStem: 75 95<0 366.251 456 758> 466 95<0 375.616>
Fore
343 525 m 0
 480 525 561 433 561 289 c 2
 561 0 l 1
 466 0 l 1
 466 287 l 2
 466 378 415 444 329 444 c 256
 240 444 170 368 170 299 c 2
 170 0 l 1
 75 0 l 1
 75 758 l 1
 170 758 l 1
 170 456 l 1
 216 502 274 525 343 525 c 0
EndSplineSet
EndChar
StartChar: i
Encoding: 105 105 74
Width: 245
VWidth: 1504
Flags: W
HStem: 0 21G<75 170> 491 20G<75 170> 590 144<68.5218 172.002>
VStem: 48 145<611.074 712.926> 75 95<0 511>
Fore
170 0 m 1xe8
 75 0 l 1
 75 511 l 1
 170 511 l 1
 170 0 l 1xe8
120 734 m 256
 162 734 193 701 193 662 c 256
 193 619 158 590 120 590 c 256
 77 590 48 624 48 662 c 256xf0
 48 705 82 734 120 734 c 256
EndSplineSet
EndChar
StartChar: j
Encoding: 106 106 75
Width: 257
VWidth: 1504
Flags: W
HStem: -212 77<-62 27.1866> 491 20G<87 182> 590 144<82.5218 185.478>
VStem: 62 144<610.522 713.478> 87 95<-75.1719 511>
Fore
182 27 m 2xe8
 182 -128 101 -208 -62 -212 c 1
 -72 -135 l 1
 -4 -130 40 -115 58 -90 c 0
 78 -66 87 -13 87 66 c 2
 87 511 l 1
 182 511 l 1
 182 27 l 2xe8
134 734 m 256
 177 734 206 700 206 662 c 256
 206 619 172 590 134 590 c 256
 91 590 62 624 62 662 c 256xf0
 62 705 96 734 134 734 c 256
EndSplineSet
EndChar
StartChar: k
Encoding: 107 107 76
Width: 511
VWidth: 1504
Flags: W
HStem: -15 21<75 170 423.061 522.667> 502 20G<375.633 502> 738 20G<75 170>
VStem: 75 95<0 217 326 758>
Fore
539 9 m 1
 441 -15 l 1
 206 247 l 1
 170 217 l 1
 170 0 l 1
 75 0 l 1
 75 758 l 1
 170 758 l 1
 170 326 l 1
 399 522 l 1
 502 504 l 1
 272 301 l 1
 539 9 l 1
EndSplineSet
EndChar
StartChar: l
Encoding: 108 108 77
Width: 320
VWidth: 1504
Flags: W
HStem: -12 86<227.019 303.627> 738 20G<75 170>
VStem: 75 95<147.328 263 263 758>
Fore
170 284 m 2
 170 126 216 82 310 74 c 1
 299 -12 l 1
 150 -4 75 88 75 263 c 2
 75 758 l 1
 170 758 l 1
 170 284 l 2
EndSplineSet
EndChar
StartChar: m
Encoding: 109 109 78
Width: 956
VWidth: 1504
Flags: W
HStem: 0 21G<75 170 430 525 787 881> 447 79<247.71 387.123 591.532 726.216>
VStem: 63 89<439.032 497.858> 75 95<0 370.605> 430 95<0 384.401> 787 94<0 377>
Fore
678 526 m 0xec
 799 526 881 428 881 284 c 2
 881 0 l 1
 787 0 l 1
 787 283 l 2
 787 380 736 447 660 447 c 0
 594 447 525 386 525 323 c 2
 525 0 l 1
 430 0 l 1
 430 308 l 2
 430 401 391 447 314 447 c 0
 245 447 170 372 170 305 c 2
 170 0 l 1
 75 0 l 1
 75 376 l 2xdc
 75 438 71 484 63 513 c 1
 152 513 l 1
 159 496 162 476 162 454 c 1
 189 490 258 526 326 526 c 0
 393 526 446 498 486 442 c 1
 539 498 603 526 678 526 c 0xec
EndSplineSet
EndChar
StartChar: n
Encoding: 110 110 79
Width: 636
VWidth: 1504
Flags: W
HStem: 0 21G<75 170 466 561> 447 79<254.509 409.455>
VStem: 63 89<436.167 497.858> 75 95<0 365.408> 466 95<0 388.469>
Fore
337 526 m 256xe8
 475 526 561 436 561 290 c 2
 561 0 l 1
 466 0 l 1
 466 290 l 2
 466 395 418 447 323 447 c 0
 251 447 170 367 170 305 c 2
 170 0 l 1
 75 0 l 1
 75 376 l 2xd8
 75 438 71 484 63 513 c 1
 152 513 l 1
 159 496 162 475 162 451 c 1
 211 501 269 526 337 526 c 256xe8
EndSplineSet
EndChar
StartChar: o
Encoding: 111 111 80
Width: 619
VWidth: 1504
Flags: W
HStem: -12 80<224.8 394.688> 450 81<224.429 395.245>
VStem: 39 93<164.45 352.588> 487 94<164.028 352.588>
Fore
581 259 m 256
 581 109 472 -12 310 -12 c 256
 147 -12 39 110 39 259 c 256
 39 404 145 531 310 531 c 256
 475 531 581 404 581 259 c 256
310 68 m 256
 416 68 487 150 487 259 c 256
 487 366 416 450 310 450 c 256
 203 450 132 366 132 259 c 256
 132 151 203 68 310 68 c 256
EndSplineSet
EndChar
StartChar: p
Encoding: 112 112 81
Width: 648
VWidth: 1504
Flags: W
HStem: -215 21G<75 170> -14 83<248.5 430.095> 453 78<265.611 427.013>
VStem: 75 95<-215 48 143.194 362.756> 517 92<160.145 360.229>
Fore
353 531 m 0
 507 531 609 416 609 269 c 0
 609 101 495 -14 341 -14 c 0
 271 -14 214 7 170 48 c 1
 170 -215 l 1
 75 -215 l 1
 75 346 l 2
 75 429 73 487 69 520 c 1
 162 520 l 1
 173 465 l 1
 226 509 286 531 353 531 c 0
338 69 m 0
 454 69 517 147 517 268 c 0
 517 371 448 453 344 453 c 0
 265 453 170 378 170 298 c 2
 170 214 l 2
 170 137 240 69 338 69 c 0
EndSplineSet
EndChar
StartChar: q
Encoding: 113 113 82
Width: 648
VWidth: 1504
Flags: W
HStem: -215 21G<478 573> -14 83<218.127 398.421> 453 78<220.987 382.389>
VStem: 39 92<162.212 359.807> 478 95<-215 48 144.083 362.756>
Fore
307 -14 m 0
 153 -14 39 101 39 269 c 0
 39 415 141 531 295 531 c 0
 362 531 422 509 475 465 c 1
 486 520 l 1
 579 520 l 1
 575 487 573 429 573 346 c 2
 573 -215 l 1
 478 -215 l 1
 478 48 l 1
 434 7 377 -14 307 -14 c 0
310 69 m 0
 411 69 478 139 478 214 c 2
 478 298 l 2
 478 378 383 453 304 453 c 0
 200 453 131 370 131 268 c 0
 131 147 195 69 310 69 c 0
EndSplineSet
EndChar
StartChar: r
Encoding: 114 114 83
Width: 370
VWidth: 1504
Flags: MW
HStem: 0 21G<75 170> 444 82<230.675 331.408 330.161 332.655 332.655 347>
VStem: 75 95<0 377.91>
Fore
158 447 m 1
 174 482 239 526 299 526 c 0
 319 526 335 525 347 522 c 1
 347 441 l 1
 339 443 328 444 313 444 c 0
 218 444 170 387 170 272 c 2
 170 0 l 1
 75 0 l 1
 75 338 l 2
 75 419 69 479 57 519 c 1
 141 519 l 1
 152 501 158 477 158 447 c 1
EndSplineSet
EndChar
StartChar: s
Encoding: 115 115 84
Width: 445
VWidth: 1504
Flags: W
HStem: -14 83<112.113 290.736> 451 74<175.994 333.398>
VStem: 62 88<345.3 426.001> 314 94<91.1312 186.614>
Fore
242 451 m 0
 190 451 150 422 150 379 c 0
 150 353 187 327 260 302 c 0
 359 268 408 216 408 146 c 0
 408 50 329 -14 205 -14 c 0
 154 -14 98 3 39 36 c 1
 77 111 l 1
 118 83 162 69 209 69 c 0
 279 69 314 93 314 141 c 0
 314 178 280 208 212 229 c 0
 112 260 62 307 62 372 c 0
 62 443 116 525 248 525 c 0
 306 525 355 510 396 481 c 1
 361 412 l 1
 326 438 286 451 242 451 c 0
EndSplineSet
EndChar
StartChar: t
Encoding: 116 116 85
Width: 388
VWidth: 1504
Flags: W
HStem: -14 85<226.685 304.903> 433 78<14 116 211 375>
VStem: 116 95<85.3925 433 511 651>
Fore
265 -14 m 0
 169 -14 116 56 116 161 c 2
 116 433 l 1
 14 433 l 1
 14 511 l 1
 116 511 l 1
 116 651 l 1
 211 692 l 1
 211 511 l 1
 375 511 l 1
 375 433 l 1
 211 433 l 1
 211 162 l 2
 211 101 230 71 269 71 c 0
 294 71 322 76 353 87 c 1
 364 8 l 1
 331 -7 298 -14 265 -14 c 0
EndSplineSet
EndChar
StartChar: u
Encoding: 117 117 86
Width: 628
VWidth: 1504
Flags: W
HStem: -14 85<225.796 374.333> 491 20G<75 170 459 554>
VStem: 75 95<131.075 232 232 511> 459 95<144.069 511>
Fore
299 71 m 0
 365 71 459 128 459 209 c 2
 459 511 l 1
 554 511 l 1
 554 137 l 2
 554 103 564 59 585 6 c 1
 493 -12 l 1
 483 12 474 41 466 75 c 1
 406 16 346 -14 287 -14 c 0
 146 -14 75 68 75 232 c 2
 75 511 l 1
 170 511 l 1
 170 241 l 2
 170 128 213 71 299 71 c 0
EndSplineSet
EndChar
StartChar: v
Encoding: 118 118 87
Width: 538
VWidth: 1504
Flags: W
HStem: 0 21G<222.685 316.315> 491 20G<-6 101.934 436.066 545>
Fore
307 0 m 1
 232 0 l 1
 -6 511 l 1
 93 511 l 1
 269 117 l 1
 445 511 l 1
 545 511 l 1
 307 0 l 1
EndSplineSet
EndChar
StartChar: w
Encoding: 119 119 88
Width: 722
VWidth: 1504
Flags: W
HStem: 0 21G<116.99 209.737 512.263 605.01> 491 20G<-6 95.9378 314.021 407.979 626.062 728>
VStem: -6 98<442.479 492.068> 630 98<461.41 511>
Fore
600 0 m 1
 520 0 l 1
 361 411 l 1
 202 0 l 1
 122 0 l 1
 -6 511 l 1
 92 511 l 1
 168 125 l 1
 322 511 l 1
 400 511 l 1
 554 125 l 1
 630 511 l 1
 728 511 l 1
 600 0 l 1
EndSplineSet
EndChar
StartChar: x
Encoding: 120 120 89
Width: 524
VWidth: 1504
Flags: W
HStem: 0 21G<-17 115.548 409.35 542> 491 20G<-3 127.889 397.222 528>
Fore
542 0 m 1
 426 0 l 1
 262 197 l 1
 99 0 l 1
 -17 0 l 1
 206 262 l 1
 -3 511 l 1
 111 511 l 1
 263 331 l 1
 414 511 l 1
 528 511 l 1
 319 262 l 1
 542 0 l 1
EndSplineSet
EndChar
StartChar: y
Encoding: 121 121 90
Width: 543
VWidth: 1504
Flags: W
HStem: -227 78<30.8629 120.58> 491 20G<-6 107.34 435.082 548>
Fore
313 11 m 2
 249.667 -123 161.333 -202.333 48 -227 c 1
 24 -149 l 1
 113.333 -129 179 -66.6667 221 38 c 1
 -6 511 l 1
 98 511 l 1
 275 132 l 1
 444 511 l 1
 548 511 l 1
 313 11 l 2
EndSplineSet
EndChar
StartChar: z
Encoding: 122 122 91
Width: 538
VWidth: 1504
Flags: W
HStem: 0 80<161 496 30 510 161 161> 432 79<63 370>
Fore
496 0 m 1
 30 0 l 1
 30 57 l 1
 370 432 l 1
 45 432 l 1
 63 511 l 1
 499 511 l 1
 499 450 l 1
 161 80 l 1
 510 80 l 1
 496 0 l 1
EndSplineSet
EndChar
StartChar: braceleft
Encoding: 123 123 92
Width: 383
VWidth: 1504
Flags: W
HStem: -132 76<227.91 332> 269 78<45 122.651> 671 78<231.808 332>
VStem: 117 89<-32.7989 207.982> 138 89<86.9732 252.055 363.783 529.925>
Fore
227 408 m 0xe8
 227 361 197 318 164 308 c 1
 206 291 227 258 227 208 c 0xe8
 227 171 220 109 206 24 c 1
 208 -29 237 -56 293 -56 c 2
 332 -56 l 1
 332 -132 l 1
 298 -132 l 2
 177 -132 117 -81 117 21 c 0xf0
 117 69 138 164 138 212 c 0
 138 248 107 267 45 269 c 1
 45 347 l 1
 107 349 138 368 138 403 c 0xe8
 138 461 117 548 117 596 c 0
 117 698 177 749 298 749 c 2
 332 749 l 1
 332 671 l 1
 293 671 l 2
 238 671 209 645 206 593 c 1xf0
 220 508 227 446 227 408 c 0xe8
EndSplineSet
EndChar
StartChar: bar
Encoding: 124 124 93
Width: 266
VWidth: 1504
Flags: W
VStem: 90 86<-250 791>
Fore
176 -250 m 1
 90 -250 l 1
 90 791 l 1
 176 791 l 1
 176 -250 l 1
EndSplineSet
EndChar
StartChar: braceright
Encoding: 125 125 94
Width: 383
VWidth: 1504
Flags: W
HStem: -132 76<56 160.66> 269 78<265.349 343> 671 78<56 160.66>
VStem: 161 89<22.0977 252.055 363.783 595.129> 182 89<-36.1093 207.472 408.101 652.422>
Fore
271 596 m 0xe8
 271 548 250 461 250 403 c 0
 250 368 281 349 343 347 c 1
 343 269 l 1
 281 267 250 248 250 212 c 0xf0
 250 162 271 72 271 21 c 0
 271 -81 211 -132 90 -132 c 2
 56 -132 l 1
 56 -56 l 1
 95 -56 l 2
 153 -56 182 -31 182 18 c 0xe8
 182 77 161 151 161 208 c 0
 161 258 182 291 224 308 c 1
 192 318 161 361 161 408 c 256xf0
 161 460 182 547 182 599 c 0
 182 647 153 671 95 671 c 2
 56 671 l 1
 56 749 l 1
 90 749 l 2
 211 749 271 698 271 596 c 0xe8
EndSplineSet
EndChar
StartChar: asciitilde
Encoding: 126 126 95
Width: 634
VWidth: 1504
Flags: W
HStem: 217 84<400.474 515.24> 310 80<131.946 248.238>
VStem: 33 83<217 293.658>
Fore
171 390 m 0
 238 390 432 301 481 301 c 0
 512 301 529 331 532 390 c 1
 614 390 l 1
 614 366 l 2
 614 273 560 217 478 217 c 0
 417 217 217 310 171 310 c 0
 136 310 118 279 116 217 c 1
 33 217 l 1
 33 245 l 2
 33 340 100 390 171 390 c 0
EndSplineSet
EndChar
StartChar: exclamdown
Encoding: 161 161 100
Width: 252
VWidth: 1504
Flags: W
HStem: -212 21G<72 181> 373 144<74.5218 178.002>
VStem: 54 145<394.074 495.926> 72 109<-212 -85.25> 83 84<168.25 295>
Fore
181 -212 m 1xd0
 72 -212 l 1xd0
 83 295 l 1
 167 295 l 1xc8
 181 -212 l 1xd0
126 517 m 256
 168 517 199 484 199 445 c 256
 199 402 164 373 126 373 c 256
 83 373 54 407 54 445 c 256xe0
 54 488 88 517 126 517 c 256
EndSplineSet
EndChar
StartChar: cent
Encoding: 162 162 101
Width: 722
VWidth: 1504
Flags: W
HStem: 32 84<429 563.521> 573 84<429 563.521>
VStem: 92 90<241.125 447.438> 346 83<-84 32 657 773>
Fore
435 116 m 0
 497 116 551 130 597 150 c 1
 629 78 l 1
 576 49 509 34 429 32 c 1
 429 -84 l 1
 346 -84 l 1
 346 36 l 1
 194 63 92 175 92 344 c 256
 92 514 193 626 346 653 c 1
 346 773 l 1
 429 773 l 1
 429 657 l 1
 509 655 576 640 629 611 c 1
 597 539 l 1
 551 559 497 573 435 573 c 0
 279 573 182 493 182 344 c 256
 182 196 279 116 435 116 c 0
EndSplineSet
EndChar
StartChar: sterling
Encoding: 163 163 102
Width: 722
VWidth: 1504
Flags: W
HStem: 0 71<271 588> 314 70<135 242 331 486> 606 21G<519.5 550.571> 633 71<354.08 496.008>
VStem: 235 73<428.823 585.76> 257 77<151.225 286.254 283.915 288.594 288.594 314>
Fore
331 314 m 1xf8
 332 308 334 277 334 253 c 0
 334 180 313 119 271 71 c 1
 588 71 l 1
 588 0 l 1
 134 0 l 1
 134 56 l 1
 216 107 257 169 257 242 c 0xf4
 257 256 255 285 251 314 c 1
 135 314 l 1
 135 384 l 1
 242 384 l 1
 236 449 235 471 235 493 c 0
 235 634 301 704 432 704 c 0
 472 704 518 692 569 669 c 1
 542 606 l 1
 497 624 460 633 429 633 c 0
 348 633 308 586 308 493 c 0
 308 455 312 419 319 384 c 1
 486 384 l 1
 486 314 l 1
 331 314 l 1xf8
EndSplineSet
EndChar
StartChar: currency
Encoding: 164 164 103
Width: 722
VWidth: 1504
Flags: W
HStem: 62 90<271.844 449.367> 528 90<272.095 448.019>
VStem: 80 93<249.921 428.212> 549 93<251.372 426.071>
Fore
642 340 m 256
 642 281 625 228 591 181 c 1
 647 122 l 1
 582 53 l 1
 523 114 l 1
 479 79 425 62 360 62 c 0
 297 62 243 79 199 114 c 1
 140 53 l 1
 75 122 l 1
 131 181 l 1
 97 228 80 281 80 340 c 256
 80 399 97 452 131 499 c 1
 75 558 l 1
 140 627 l 1
 199 566 l 1
 243 601 297 618 360 618 c 0
 425 618 479 601 523 566 c 1
 582 627 l 1
 647 558 l 1
 591 499 l 1
 625 452 642 399 642 340 c 256
361 152 m 0
 462 152 549 230 549 340 c 0
 549 444 465 528 361 528 c 0
 249 528 173 439 173 340 c 0
 173 229 257 152 361 152 c 0
EndSplineSet
EndChar
StartChar: yen
Encoding: 165 165 104
Width: 722
VWidth: 1504
Flags: W
HStem: 137 75<144 317 405 578> 260 75<144 302 418 578>
VStem: 317 88<27 137 212 260>
Fore
578 137 m 1
 405 137 l 1
 405 27 l 1
 317 27 l 1
 317 137 l 1
 144 137 l 1
 144 212 l 1
 317 212 l 1
 317 260 l 1
 144 260 l 1
 144 335 l 1
 302 335 l 1
 84 693 l 1
 190 693 l 1
 360 408 l 1
 531 693 l 1
 638 693 l 1
 418 337 l 1
 578 337 l 1
 578 260 l 1
 405 260 l 1
 405 212 l 1
 578 212 l 1
 578 137 l 1
EndSplineSet
EndChar
StartChar: brokenbar
Encoding: 166 166 105
Width: 242
VWidth: 1504
Flags: W
HStem: 696 20G<84 156>
VStem: 84 72<-179 208 331 716>
Fore
156 331 m 1
 84 331 l 1
 84 716 l 1
 156 716 l 1
 156 331 l 1
156 -179 m 1
 84 -179 l 1
 84 208 l 1
 156 208 l 1
 156 -179 l 1
EndSplineSet
EndChar
StartChar: section
Encoding: 167 167 106
Width: 571
VWidth: 1504
Flags: W
HStem: -57 68<178.54 352.358> 612 21G<400 431.385> 656 66<218.332 363.031>
VStem: 81 72<335.19 436.219> 113 75<534.684 625.825> 390 72<46.9006 151.327> 412 77<265.882 355.56>
Fore
489 319 m 0xea
 489 294 485 252 433 194 c 1
 452 171 462 142 462 107 c 0
 462 -1 374 -57 268 -57 c 0
 205 -57 149 -38 102 0 c 1
 137 63 l 1
 170 32 211 11 271 11 c 0
 342 11 390 46 390 99 c 0
 390 134 366 164 317 188 c 2
 161 251 l 2
 108 277 81 318 81 375 c 0xf4
 81 418 101 457 140 492 c 1
 122 515 113 541 113 570 c 0
 113 661 186 722 299 722 c 0
 315 722 372 723 457 677 c 1
 420 612 l 1
 380 641 337 656 292 656 c 0
 235 656 188 625 188 579 c 0
 188 494 354 501 446 413 c 0
 475 386 489 354 489 319 c 0xea
384 236 m 1
 400 256 412 277 412 311 c 0xf2
 412 378 284 414 240 432 c 2
 191 453 l 1
 166 431 153 406 153 378 c 0
 153 303 320 277 384 236 c 1
EndSplineSet
EndChar
StartChar: dieresis
Encoding: 168 168 107
Width: 512
VWidth: 1504
Flags: W
HStem: 573 132<97.6537 193.099 320.807 415.552>
VStem: 80 131<591 686.975> 302 131<590.662 686.25>
Fore
146 705 m 0
 179 705 211 676 211 639 c 0
 211 601 179 573 146 573 c 0
 111 573 80 599 80 639 c 0
 80 677 111 705 146 705 c 0
369 705 m 256
 402 705 433 676 433 639 c 0
 433 601 402 573 369 573 c 256
 335 573 302 600 302 639 c 0
 302 677 336 705 369 705 c 256
EndSplineSet
EndChar
StartChar: copyright
Encoding: 169 169 108
Width: 812
VWidth: 1504
Flags: W
HStem: -5 64<294.675 517.578> 132 62<320.889 511.467> 520 58<318.51 510.35> 663 64<295.397 517.557>
VStem: 41 63<252.165 470.764> 185 69<260.737 454.374> 708 64<252.165 469.65>
Fore
185 350 m 0
 185 495 276 578 411 578 c 0
 472 578 518 566 551 542 c 1
 532 487 l 1
 494 509 454 520 411 520 c 0
 306 520 254 466 254 358 c 0
 254 249 307 194 412 194 c 0
 461 194 504 207 539 232 c 1
 558 176 l 1
 520 147 468 132 403 132 c 0
 256 132 185 240 185 350 c 0
772 361 m 256
 772 162 612 -5 406 -5 c 256
 200 -5 41 162 41 361 c 256
 41 565 205 727 406 727 c 256
 613 727 772 559 772 361 c 256
708 361 m 256
 708 526 577 663 406 663 c 256
 234 663 104 526 104 361 c 256
 104 196 235 59 406 59 c 256
 578 59 708 196 708 361 c 256
EndSplineSet
EndChar
StartChar: ordfeminine
Encoding: 170 170 109
Width: 379
VWidth: 1504
Flags: W
HStem: 369 55<114.169 234.675> 546 56<134.325 260> 671 60<89.925 240.309>
VStem: 39 66<434.227 518.419> 260 66<448.7 487 487 546 602 649.427>
Fore
326 439 m 2
 326 426 331 399 338 373 c 1
 274 373 l 1
 269 385 270 394 265 412 c 1
 237 383 202 369 159 369 c 0
 79 369 39 405 39 477 c 0
 39 557 113 599 260 602 c 1
 256 655 217 671 181 671 c 0
 119 671 89 650 77 641 c 1
 56 692 l 1
 92 717 136 731 191 731 c 0
 281 731 326 676 326 566 c 2
 326 439 l 2
168 424 m 0
 204 424 260 448 260 487 c 2
 260 546 l 1
 177 546 105 532 105 477 c 0
 105 442 126 424 168 424 c 0
EndSplineSet
EndChar
StartChar: guillemotleft
Encoding: 171 171 110
Width: 535
VWidth: 1504
Flags: MW
Fore
490 71 m 1
 400 71 l 1
 229 269 l 1
 400 472 l 1
 489 472 l 1
 319 271 l 1
 490 71 l 1
307 71 m 1
 215 71 l 1
 45 269 l 1
 212 474 l 1
 305 474 l 1
 134 269 l 1
 307 71 l 1
EndSplineSet
EndChar
StartChar: logicalnot
Encoding: 172 172 111
Width: 673
VWidth: 1504
Flags: MW
HStem: 352 68<51 534>
VStem: 534 72<132 352>
Fore
606 132 m 1
 534 132 l 1
 534 352 l 1
 51 352 l 1
 51 420 l 1
 606 420 l 1
 606 132 l 1
EndSplineSet
EndChar
StartChar: registered
Encoding: 174 174 112
Width: 812
VWidth: 1504
Flags: W
HStem: -5 64<294.675 517.578> 331 50<319 445.259> 537 53<320.096 471.309> 663 64<295.397 517.557>
VStem: 41 63<252.165 470.764> 257 62<134 331 381 534> 499 56<405.438 510.4> 511 59<134 282.723> 708 64<252.165 469.65>
Fore
381 590 m 0xfd80
 477 590 555 549 555 463 c 0xfe80
 555 411 530 374 481 352 c 1
 526 320 549 276 570 134 c 1
 511 134 l 1
 493 265 454 331 394 331 c 2
 319 331 l 1
 319 134 l 1
 257 134 l 1
 257 578 l 1
 303 586 344 590 381 590 c 0xfd80
499 459 m 256
 499 511 460 537 381 537 c 0
 356 537 335 536 319 534 c 1
 319 381 l 1
 390 381 l 2
 463 381 499 407 499 459 c 256
772 361 m 256
 772 162 612 -5 406 -5 c 256
 200 -5 41 162 41 361 c 256
 41 565 205 727 406 727 c 256
 613 727 772 559 772 361 c 256
708 361 m 256
 708 526 577 663 406 663 c 256
 234 663 104 526 104 361 c 256
 104 196 235 59 406 59 c 256
 578 59 708 196 708 361 c 256
EndSplineSet
EndChar
StartChar: macron
Encoding: 175 175 113
Width: 565
VWidth: 1504
Flags: MW
HStem: 794 80<0 566>
Fore
566 794 m 1
 0 794 l 1
 0 874 l 1
 566 874 l 1
 566 794 l 1
EndSplineSet
EndChar
StartChar: degree
Encoding: 176 176 114
Width: 416
VWidth: 1504
Flags: W
HStem: 463 48<152.12 262.738> 683 48<151.994 263.047>
VStem: 74 48<541.64 653.848> 293 48<541.21 653.877>
Fore
208 731 m 256
 280 731 341 675 341 597 c 256
 341 523 282 463 208 463 c 256
 131 463 74 525 74 597 c 256
 74 675 135 731 208 731 c 256
208 511 m 256
 256 511 293 553 293 597 c 256
 293 646 252 683 208 683 c 256
 158 683 122 642 122 597 c 256
 122 553 159 511 208 511 c 256
EndSplineSet
EndChar
StartChar: plusminus
Encoding: 177 177 115
Width: 661
VWidth: 1504
Flags: W
HStem: 0 83<54 609> 326 83<62 284 379 602>
VStem: 284 95<117 326 409 636>
Fore
609 0 m 1
 54 0 l 1
 54 83 l 1
 609 83 l 1
 609 0 l 1
602 326 m 1
 379 326 l 1
 379 117 l 1
 284 117 l 1
 284 326 l 1
 62 326 l 1
 62 409 l 1
 284 409 l 1
 284 636 l 1
 379 636 l 1
 379 409 l 1
 602 409 l 1
 602 326 l 1
EndSplineSet
EndChar
StartChar: twosuperior
Encoding: 178 178 116
Width: 391
VWidth: 1504
Flags: W
HStem: 286 67<149 326> 657 68<168.761 247.368>
VStem: 65 63<587 643.515> 256 72<547.844 649.185>
Fore
200 725 m 0
 277 725 328 678 328 605 c 0
 328 575 315 526 247 454 c 2
 149 353 l 1
 335 353 l 1
 326 286 l 1
 41 286 l 1
 41 370 127 430 222 533 c 0
 245 558 256 582 256 605 c 0
 256 647 225 657 205 657 c 0
 183 657 133 645 128 575 c 1
 65 587 l 1
 73 668 118 725 200 725 c 0
EndSplineSet
EndChar
StartChar: threesuperior
Encoding: 179 179 117
Width: 391
VWidth: 1504
Flags: W
HStem: 281 71<93.8877 240.496> 659 68<151.579 244.872>
VStem: 247 66<580.118 656.354> 272 71<383.266 484.267>
Fore
205 659 m 0xe0
 171 659 135 635 119 590 c 1
 63 618 l 1
 94 691 143 727 209 727 c 0
 278 727 313 697 313 638 c 0xe0
 313 604 297 573 265 545 c 1
 317 530 343 495 343 442 c 0
 343 345 275 284 167 281 c 0
 126 281 88 294 54 319 c 1
 84 382 l 1
 93 374 118 352 168 352 c 0
 233 352 272 388 272 441 c 0xd0
 272 483 238 493 220 493 c 0
 200 493 172 485 153 471 c 1
 129 516 l 1
 228 561 247 604 247 626 c 0
 247 648 233 659 205 659 c 0xe0
EndSplineSet
EndChar
StartChar: acute
Encoding: 180 180 118
Width: 389
VWidth: 1504
Flags: W
HStem: 551 173<150 193 193 193>
Fore
150 551 m 1
 80 551 l 1
 193 724 l 1
 310 724 l 1
 150 551 l 1
EndSplineSet
EndChar
StartChar: mu
Encoding: 181 181 119
Width: 622
VWidth: 1504
Flags: W
HStem: -212 21G<71 165> -14 85<220.194 349.512> 494 20G<71 165 454 549>
VStem: 71 94<-212 36 131.075 514> 454 95<141.419 209 209 514>
Fore
549 137 m 2
 549 85 576 19 581 6 c 1
 489 -12 l 1
 483 2 476 16 466 60 c 1
 377 -10 315 -14 283 -14 c 0
 212 -14 176 23 165 36 c 1
 165 -212 l 1
 71 -212 l 1
 71 514 l 1
 165 514 l 1
 165 241 l 2
 165 128 208 71 295 71 c 0
 355 71 454 115 454 209 c 2
 454 514 l 1
 549 514 l 1
 549 137 l 2
EndSplineSet
EndChar
StartChar: paragraph
Encoding: 182 182 120
Width: 571
VWidth: 1504
Flags: W
HStem: 666 48<364 435.303>
VStem: 72 292<391.656 589.42> 311 53<-95 271> 436 51<-95 666>
Fore
487 -95 m 1xd0
 436 -95 l 1
 436 666 l 1
 364 666 l 1
 364 -95 l 1
 311 -95 l 1
 311 271 l 1xb0
 188 271 72 345 72 483 c 0
 72 637 171 714 370 714 c 0
 423 714 462 712 487 707 c 1
 487 -95 l 1xd0
EndSplineSet
EndChar
StartChar: periodcentered
Encoding: 183 183 121
Width: 258
VWidth: 1504
Flags: W
HStem: 202 144<77.5218 180.639>
VStem: 57 145<223.074 324.926>
Fore
129 346 m 256
 171 346 202 313 202 274 c 256
 202 231 166 202 129 202 c 256
 86 202 57 236 57 274 c 256
 57 317 91 346 129 346 c 256
EndSplineSet
EndChar
StartChar: cedilla
Encoding: 184 184 122
Width: 374
VWidth: 1504
Flags: W
HStem: -239 52<122.228 221.303>
VStem: 226 69<-181.24 -107.653>
Fore
217 -42 m 1
 261 -55 295 -82 295 -135 c 0
 295 -204 248 -239 174 -239 c 0
 140 -239 104 -227 80 -212 c 1
 101 -164 l 1
 129 -178 162 -187 177 -187 c 0
 210 -187 226 -172 226 -141 c 0
 226 -113 194 -94 129 -83 c 1
 194 17 l 1
 259 17 l 1
 217 -42 l 1
EndSplineSet
EndChar
StartChar: onesuperior
Encoding: 185 185 123
Width: 391
VWidth: 1504
Flags: MW
HStem: 293 59<114 179 253 316>
VStem: 179 74<352 623>
Fore
206 728 m 1
 244 728 253 697 253 677 c 2
 253 352 l 1
 316 352 l 1
 316 293 l 1
 114 293 l 1
 114 352 l 1
 179 352 l 1
 179 623 l 1
 119 566 l 1
 81 617 l 1
 206 728 l 1
EndSplineSet
EndChar
StartChar: ordmasculine
Encoding: 186 186 124
Width: 442
VWidth: 1504
Flags: W
HStem: 349 66<150.283 289.45> 666 67<149.883 289.862>
VStem: 29 66<470.16 609.519> 346 66<470.923 608.957>
Fore
220 733 m 0
 325 733 412 650 412 540 c 0
 412 428 323 349 220 349 c 0
 107 349 29 434 29 540 c 0
 29 643 105 733 220 733 c 0
220 415 m 256
 288 415 346 471 346 540 c 256
 346 609 288 666 220 666 c 256
 149 666 95 608 95 540 c 256
 95 472 149 415 220 415 c 256
EndSplineSet
EndChar
StartChar: guillemotright
Encoding: 187 187 125
Width: 535
VWidth: 1504
Flags: MW
Fore
135 71 m 1
 45 71 l 1
 217 271 l 1
 47 472 l 1
 135 472 l 1
 307 269 l 1
 135 71 l 1
320 71 m 1
 229 71 l 1
 402 269 l 1
 230 474 l 1
 323 474 l 1
 490 269 l 1
 320 71 l 1
EndSplineSet
EndChar
StartChar: onequarter
Encoding: 188 188 126
Width: 815
VWidth: 1504
Flags: W
HStem: -14 21<162 249.857 624 698> 90 72<534 624 698 758> 265 58<69 134 208 271>
VStem: 134 74<323 585> 624 74<0 90 162 340>
Fore
271 265 m 1
 69 265 l 1
 69 323 l 1
 134 323 l 1
 134 585 l 1
 77 535 l 1
 35 590 l 1
 161 701 l 1
 192 699 208 681 208 648 c 2
 208 323 l 1
 271 323 l 1
 271 265 l 1
238 -14 m 1
 162 -14 l 1
 594 713 l 1
 669 713 l 1
 238 -14 l 1
624 162 m 1
 624 340 l 1
 580 301 542 227 534 162 c 1
 624 162 l 1
698 0 m 1
 624 0 l 1
 624 90 l 1
 456 90 l 1
 456 226 540 435 698 441 c 1
 698 162 l 1
 761 162 l 1
 758 90 l 1
 698 90 l 1
 698 0 l 1
EndSplineSet
LCarets2: 2 0 0 
Ligature2: "'frac' Diagonal Fractions in Latin lookup 0 subtable" one fraction four
Ligature2: "'frac' Diagonal Fractions in Latin lookup 0 subtable" one slash four
EndChar
StartChar: onehalf
Encoding: 189 189 127
Width: 815
VWidth: 1504
Flags: W
HStem: 0 69<605 782> 265 58<69 134 208 271> 370 69<610.203 702.273>
VStem: 134 74<323 585> 520 68<301 362.899> 711 74<266.127 361.397>
Fore
785 319 m 0
 785 220 656 145 605 69 c 1
 791 69 l 1
 782 0 l 1
 496 0 l 1
 501 56 524 102 606 179 c 2
 643 214 l 2
 656 226 711 277 711 319 c 0
 711 339 701 370 660 370 c 0
 619 370 595 343 588 289 c 1
 520 301 l 1
 531 420 613 439 656 439 c 0
 715 439 785 410 785 319 c 0
238 -14 m 1
 162 -14 l 1
 594 713 l 1
 669 713 l 1
 238 -14 l 1
271 265 m 1
 69 265 l 1
 69 323 l 1
 134 323 l 1
 134 585 l 1
 77 535 l 1
 35 590 l 1
 161 701 l 1
 192 699 208 681 208 648 c 2
 208 323 l 1
 271 323 l 1
 271 265 l 1
EndSplineSet
LCarets2: 2 0 0 
Ligature2: "'frac' Diagonal Fractions in Latin lookup 0 subtable" one fraction two
Ligature2: "'frac' Diagonal Fractions in Latin lookup 0 subtable" one slash two
EndChar
StartChar: threequarters
Encoding: 190 190 128
Width: 815
VWidth: 1504
Flags: W
HStem: -14 21<162 249.857 624 698> 90 72<534 624 698 758> 268 69<92.9061 232.115> 645 63<141.652 234.167>
VStem: 235 69<562.326 636.054> 265 70<370.091 466.181> 624 74<0 90 162 340>
Fore
238 -14 m 1xf2
 162 -14 l 1
 594 713 l 1
 669 713 l 1
 238 -14 l 1xf2
257 534 m 1
 330 523 335 455 335 429 c 0
 335 325 250 268 159 268 c 0
 118 268 81 280 47 305 c 1
 77 370 l 1
 97 354 125 337 161 337 c 0
 238 337 265 387 265 427 c 0xf6
 265 462 248 480 215 480 c 0
 190 480 167 471 146 453 c 1
 122 498 l 1
 188 532 235 566 235 617 c 0
 235 628 229 645 197 645 c 0
 157 645 128 621 111 572 c 1
 56 600 l 1
 86 672 135 708 202 708 c 0
 287 708 304 656 304 627 c 0xfa
 304 593 288 562 257 534 c 1
624 162 m 1
 624 340 l 1
 580 301 542 227 534 162 c 1
 624 162 l 1
698 0 m 1
 624 0 l 1
 624 90 l 1
 456 90 l 1
 456 226 540 435 698 441 c 1
 698 162 l 1
 761 162 l 1
 758 90 l 1
 698 90 l 1
 698 0 l 1
EndSplineSet
LCarets2: 2 0 0 
Ligature2: "'frac' Diagonal Fractions in Latin lookup 0 subtable" three fraction four
Ligature2: "'frac' Diagonal Fractions in Latin lookup 0 subtable" three slash four
EndChar
StartChar: questiondown
Encoding: 191 191 129
Width: 434
VWidth: 1504
Flags: MW
HStem: -227 86<158.821 324.905> 369 144<181.045 282.068>
VStem: 36 95<-115.888 9.96329> 161 141<389.25 492.75> 205 90<211.936 286.74>
Fore
280 323 m 1
 291 290 295 269 295 256 c 0
 295 201 266 142 208 81 c 0
 157 27 131 -19 131 -56 c 0
 131 -113 166 -141 236 -141 c 0
 279 -141 321 -127 361 -98 c 1
 399 -171 l 1
 340 -208 282 -227 226 -227 c 0
 109 -227 36 -160 36 -59 c 0
 36 -6 69 55 135 123 c 0
 197 185 204 243 205 260 c 0
 205 277 201 298 194 323 c 1
 280 323 l 1
232 513 m 256
 269 513 302 483 302 441 c 256
 302 399 269 369 232 369 c 256
 194 369 161 399 161 441 c 256
 161 483 194 513 232 513 c 256
EndSplineSet
EndChar
StartChar: AE
Encoding: 198 198 136
Width: 876
VWidth: 1504
Flags: W
HStem: 0 83<570 835> 286 81<280 438> 340 83<531 802> 644 83<489 817>
Fore
835 0 m 1xb0
 490 0 l 1
 450 286 l 1
 239 286 l 1xd0
 87 0 l 1
 -15 0 l 1
 375 727 l 1
 817 727 l 1
 817 644 l 1
 489 644 l 1
 517 423 l 1
 802 423 l 1
 802 340 l 1
 531 340 l 1
 570 83 l 1
 835 83 l 1
 835 0 l 1xb0
438 367 m 1
 409 609 l 1
 280 367 l 1
 438 367 l 1
EndSplineSet
EndChar
StartChar: Eth
Encoding: 208 208 146
Width: 690
VWidth: 1504
Flags: W
HStem: -6 81<195.629 411.135> 310 81<14 75 170 411> 642 82<236.426 422.628>
VStem: 75 95<80 310 391 633> 555 96<237.806 504.926>
Fore
307 724 m 0
 528 724 651 600 651 373 c 0
 651 195 576 -6 277 -6 c 0
 236 -6 168 -1 75 9 c 1
 75 310 l 1
 14 310 l 1
 14 391 l 1
 75 391 l 1
 75 704 l 1
 190 717 267 724 307 724 c 0
295 75 m 0
 503 75 555 236 555 373 c 0
 555 552 471 642 302 642 c 0
 274 642 230 639 170 633 c 1
 170 391 l 1
 411 391 l 1
 411 310 l 1
 170 310 l 1
 170 80 l 1
 203 77 245 75 295 75 c 0
EndSplineSet
EndChar
StartChar: multiply
Encoding: 215 215 153
Width: 627
VWidth: 1504
Flags: W
HStem: -8 21G<80.661 120.013 506.897 546.678>
Fore
587 51 m 1
 526 -8 l 1
 313 215 l 1
 101 -8 l 1
 41 51 l 1
 254 274 l 1
 41 501 l 1
 101 560 l 1
 314 337 l 1
 526 560 l 1
 587 501 l 1
 372 275 l 1
 587 51 l 1
EndSplineSet
EndChar
StartChar: Oslash
Encoding: 216 216 154
Width: 779
VWidth: 1504
Flags: W
HStem: -15 83<339.728 490.465> 648 82<286.071 438.642>
VStem: 39 93<234.606 478.57> 647 93<235.999 478.535>
Fore
185 47 m 1
 147 76 39 171 39 356 c 256
 39 566 179 730 390 730 c 0
 439 730 483 722 523 705 c 1
 542 740 l 1
 638 740 l 1
 597 662 l 1
 637 632 740 540 740 356 c 256
 740 147 600 -15 390 -15 c 0
 343 -15 299 -8 260 6 c 1
 236 -42 l 1
 140 -42 l 1
 185 47 l 1
390 648 m 0
 235 648 132 524 132 358 c 256
 132 258 168 179 226 126 c 1
 486 630 l 1
 457 642 425 648 390 648 c 0
390 68 m 0
 544 68 647 193 647 358 c 256
 647 461 609 533 558 584 c 1
 299 83 l 1
 326 73 357 68 390 68 c 0
EndSplineSet
EndChar
StartChar: Thorn
Encoding: 222 222 160
Width: 592
VWidth: 1504
Flags: W
HStem: 0 21G<80 168> 137 78<194.068 366.324> 534 78<194.068 366.324> 696 20G<80 168>
VStem: 80 88<0 143 227 522 606 716> 450 87<286.767 459.627>
Fore
247 612 m 0
 419 612 537 537 537 375 c 256
 537 212 419 137 247 137 c 0
 215 137 189 139 168 143 c 1
 168 0 l 1
 80 0 l 1
 80 716 l 1
 168 716 l 1
 168 606 l 1
 189 610 215 612 247 612 c 0
450 375 m 256
 450 481 383 534 250 534 c 0
 219 534 191 530 168 522 c 1
 168 227 l 1
 191 219 219 215 250 215 c 0
 383 215 450 268 450 375 c 256
EndSplineSet
EndChar
StartChar: germandbls
Encoding: 223 223 161
Width: 639
VWidth: 1504
Flags: W
HStem: -215 21G<76.8182 166.5> -14 83<309.853 445.61> 654 86<259.542 398.531>
VStem: 105 91<-161.977 572.563> 332 91<342 411.889> 430 87<504.995 622.178> 478 88<100.624 211.775>
Fore
517 557 m 0xfc
 517 465 423 407 423 375 c 0
 423 337 566 262 566 164 c 0
 566 53 491 -14 375 -14 c 0
 361 -14 308 -16 230 24 c 1
 260 105 l 1
 305 81 344 69 376 69 c 256
 454 69 478 121 478 155 c 0xfa
 478 245 332 283 332 379 c 0
 332 433 430 504 430 554 c 0
 430 621 394 654 322 654 c 0
 238 654 196 577 196 423 c 2
 196 -60 l 2
 196 -122 178 -174 155 -215 c 1
 69 -193 l 1
 88 -157 105 -113 105 -60 c 2
 105 447 l 2
 105 642 181 740 332 740 c 0
 439 740 517 674 517 557 c 0xfc
EndSplineSet
EndChar
StartChar: ae
Encoding: 230 230 168
Width: 934
VWidth: 1504
Flags: W
HStem: -14 83<160.666 314.341 569.559 811.243> 241 79<484 802> 256 82<216.049 382> 454 78<213.48 335.772 561.791 728.405>
VStem: 39 99<94.0718 201.539> 382 93<165.664 241>
Fore
475 241 m 1xdc
 486 128 562 71 668 71 c 0
 726 71 792 84 865 110 c 1
 872 27 l 1
 804 -0 734 -14 662 -14 c 0
 563 -14 488 21 436 92 c 1
 399 21 328 -14 221 -14 c 0
 132 -14 39 37 39 140 c 0
 39 270 153 336 382 338 c 1xbc
 380 381 357 454 259 454 c 0
 227 454 168 441 81 415 c 1
 69 501 l 1
 139 522 204 532 265 532 c 0
 367 532 417 499 447 441 c 1
 495 502 565 532 656 532 c 0
 810 532 890 435 895 241 c 1
 475 241 l 1xdc
224 69 m 0
 322 69 382 127 382 223 c 2
 382 256 l 1
 251 254 138 235 138 149 c 0
 138 85 191 69 224 69 c 0
802 320 m 1xdc
 790 382 745 454 650 454 c 0
 517 454 490 348 484 320 c 1
 802 320 l 1xdc
EndSplineSet
EndChar
StartChar: eth
Encoding: 240 240 178
Width: 568
VWidth: 1504
Flags: W
HStem: -24 84<208.001 341.454> 367 81<208.034 345.075> 644 75<106.883 216.787>
VStem: 54 87<131.945 295.641> 411 102<132.198 295.605>
Fore
402 400 m 1
 363 481 275 549 271 549 c 1
 119 471 l 1
 78 537 l 1
 199 599 l 1
 162 619 127 634 92 644 c 1
 101 719 l 1
 171 705 234 680 289 645 c 1
 426 716 l 1
 459 647 l 1
 356 594 l 1
 461 494 513 378 513 245 c 0
 513 66 397 -24 271 -24 c 0
 141 -24 54 81 54 214 c 0
 54 348 146 448 268 448 c 256
 328 448 373 432 402 400 c 1
274 60 m 0
 351 60 411 128 411 214 c 0
 411 300 351 367 274 367 c 0
 201 367 141 295 141 214 c 256
 141 132 201 60 274 60 c 0
EndSplineSet
EndChar
StartChar: divide
Encoding: 247 247 185
Width: 627
VWidth: 1504
Flags: W
HStem: 12 144<265.045 366.592> 236 81<39 588> 399 144<265.045 366.592>
VStem: 245 142<32.25 135.75 419.25 522.75>
Fore
588 236 m 1
 39 236 l 1
 39 317 l 1
 588 317 l 1
 588 236 l 1
316 156 m 256
 353 156 387 126 387 84 c 256
 387 42 353 12 316 12 c 256
 278 12 245 42 245 84 c 256
 245 126 278 156 316 156 c 256
316 543 m 256
 353 543 387 513 387 471 c 256
 387 429 353 399 316 399 c 256
 278 399 245 429 245 471 c 256
 245 513 278 543 316 543 c 256
EndSplineSet
EndChar
StartChar: oslash
Encoding: 248 248 186
Width: 619
VWidth: 1504
Flags: W
HStem: -12 80<267.075 394.688> 450 81<224.429 346.275>
VStem: 39 93<163.122 352.588> 487 94<164.028 355.083>
Fore
468 483 m 1
 544 424 581 352 581 259 c 256
 581 109 472 -12 310 -12 c 0
 277 -12 246 -7 218 2 c 1
 196 -42 l 1
 99 -42 l 1
 143 42 l 1
 117 61 39 129 39 259 c 256
 39 404 145 531 310 531 c 0
 338 531 365 527 390 520 c 1
 415 569 l 1
 511 569 l 1
 468 483 l 1
310 68 m 0
 416 68 487 150 487 259 c 256
 487 350 443 387 427 405 c 1
 256 75 l 1
 273 70 291 68 310 68 c 0
310 450 m 0
 203 450 132 366 132 259 c 256
 132 204 148 159 184 120 c 1
 350 445 l 1
 337 448 324 450 310 450 c 0
EndSplineSet
EndChar
StartChar: thorn
Encoding: 254 254 192
Width: 658
VWidth: 1504
Flags: W
HStem: -14 83<253.315 428.134> 454 78<255.628 430.34> 696 20G<83 171>
VStem: 83 88<-202 48 141.966 375.746 462 716> 517 88<163.334 363.33>
Fore
353 532 m 0
 499 532 605 425 605 269 c 0
 605 99 496 -14 338 -14 c 0
 271 -14 216 7 171 48 c 1
 171 -202 l 1
 83 -202 l 1
 83 716 l 1
 171 716 l 1
 171 462 l 1
 222 509 282 532 353 532 c 0
343 69 m 0
 445 69 517 139 517 268 c 0
 517 376 448 454 344 454 c 0
 254 454 171 394 171 295 c 2
 171 209 l 2
 171 131 253 69 343 69 c 0
EndSplineSet
EndChar
StartChar: dotlessi
Encoding: 305 305 194
Width: 245
VWidth: 1504
Flags: W
HStem: 0 21G<75 170> 491 20G<75 170>
VStem: 75 95<0 511>
Fore
170 0 m 1
 75 0 l 1
 75 511 l 1
 170 511 l 1
 170 0 l 1
EndSplineSet
EndChar
StartChar: Lslash
Encoding: 321 321 195
Width: 540
VWidth: 1504
Flags: MW
HStem: 0 81<170 520> 696 20G<75 170>
VStem: 75 95<81 224 340 716>
Fore
520 0 m 1
 75 0 l 1
 75 224 l 1
 32 214 l 1
 32 307 l 1
 75 317 l 1
 75 716 l 1
 170 716 l 1
 170 340 l 1
 508 420 l 1
 508 326 l 1
 170 247 l 1
 170 81 l 1
 520 81 l 1
 520 0 l 1
EndSplineSet
EndChar
StartChar: lslash
Encoding: 322 322 196
Width: 326
VWidth: 1504
Flags: W
HStem: -12 86<229.778 305.625> 738 20G<77 171>
VStem: 77 94<147.685 263 263 355 465 758>
Fore
171 284 m 2
 171 129 217 82 311 74 c 1
 301 -12 l 1
 152 -4 77 88 77 263 c 2
 77 355 l 1
 12 337 l 1
 12 418 l 1
 77 436 l 1
 77 758 l 1
 171 758 l 1
 171 465 l 1
 311 507 l 1
 311 426 l 1
 171 384 l 1
 171 284 l 2
EndSplineSet
EndChar
StartChar: OE
Encoding: 338 338 197
Width: 1087
VWidth: 1504
Flags: W
HStem: -15 81<317.877 531.366> 0 81<719 1050> 337 81<719 1014> 635 81<719 1050> 648 83<315.767 531.366>
VStem: 39 95<253.14 459.57> 624 95<156 337 418 555>
Fore
1050 0 m 1x76
 624 0 l 1x76
 624 41 l 1
 564 4 496 -15 420 -15 c 0
 191 -15 39 149 39 358 c 0
 39 562 187 731 420 731 c 0xae
 496 731 564 712 624 674 c 1
 624 716 l 1
 1050 716 l 1
 1050 635 l 1
 719 635 l 1
 719 418 l 1
 1014 418 l 1
 1014 337 l 1
 719 337 l 1
 719 81 l 1
 1050 81 l 1
 1050 0 l 1x76
624 156 m 1
 624 555 l 1
 573 617 505 648 420 648 c 0
 260 648 134 507 134 358 c 0
 134 198 267 66 420 66 c 0xae
 505 66 573 96 624 156 c 1
EndSplineSet
EndChar
StartChar: oe
Encoding: 339 339 198
Width: 1036
VWidth: 1504
Flags: W
HStem: -12 80<221.531 397.009 674.575 912.292> 241 79<587 904> 450 81<224.429 394.205 665.691 837.357>
VStem: 39 93<164.45 352.588> 487 94<164.115 241>
Fore
581 241 m 1
 589 131 665 71 773 71 c 256
 828 71 893 84 966 110 c 1
 976 27 l 1
 903 -0 833 -14 767 -14 c 0
 666 -14 587 23 531 98 c 1
 478 25 404 -12 310 -12 c 0
 147 -12 39 110 39 259 c 256
 39 404 145 531 310 531 c 0
 407 531 481 492 532 415 c 1
 593 492 669 531 761 531 c 0
 916 531 994 434 997 241 c 1
 581 241 l 1
310 68 m 256
 416 68 487 150 487 259 c 256
 487 366 416 450 310 450 c 256
 203 450 132 366 132 259 c 256
 132 151 203 68 310 68 c 256
904 320 m 1
 895 402 836 453 752 453 c 0
 670 453 600 397 587 320 c 1
 904 320 l 1
EndSplineSet
EndChar
StartChar: florin
Encoding: 402 402 204
Width: 607
VWidth: 1504
Flags: W
HStem: -104 83<10.8446 133.659> -20 20G<-13.8182 10.5> 382 78<193 259 367 492> 645 83<444.191 568.302>
Fore
492 382 m 1
 350 382 l 1
 298 140 l 2
 263 -23 182 -104 57 -104 c 0
 18 -104 -15 -91 -41 -66 c 1
 -2 0 l 1
 23 -14 47 -21 72 -21 c 0
 137 -21 183 35 208 147 c 2
 259 382 l 1
 177 382 l 1
 193 460 l 1
 277 460 l 1
 281 484 l 2
 340 718 474 728 522 728 c 0
 561 728 594 715 620 690 c 1
 581 624 l 1
 557 638 532 645 507 645 c 0
 441 645 396 589 372 477 c 2
 367 460 l 1
 507 460 l 1
 492 382 l 1
EndSplineSet
EndChar
StartChar: circumflex
Encoding: 710 710 205
Width: 327
VWidth: 1504
Flags: W
HStem: 579 173<138 307 138 138>
VStem: 21 286<579 579 579 579>
Fore
307 579 m 1
 226 579 l 1
 164 686 l 1
 104 579 l 1
 21 579 l 1
 138 752 l 1
 191 752 l 1
 307 579 l 1
EndSplineSet
EndChar
StartChar: caron
Encoding: 711 711 206
Width: 463
VWidth: 1504
Flags: W
HStem: 579 173<89 257 89 89>
VStem: 89 286<752 752 752 752>
Fore
257 579 m 1
 205 579 l 1
 89 752 l 1
 170 752 l 1
 232 645 l 1
 292 752 l 1
 375 752 l 1
 257 579 l 1
EndSplineSet
EndChar
StartChar: breve
Encoding: 728 728 207
Width: 514
VWidth: 1504
Flags: W
HStem: 570 72<200.927 315.11> 719 20G<80 165 350.5 435>
VStem: 80 81<648.118 724.651> 355 80<667.359 739>
Fore
257 642 m 256
 319 642 346 697 355 739 c 1
 435 739 l 1
 427 691 399 570 257 570 c 256
 149 570 98 639 80 739 c 1
 161 739 l 1
 169 697 195 642 257 642 c 256
EndSplineSet
EndChar
StartChar: dotaccent
Encoding: 729 729 208
Width: 290
VWidth: 1504
Flags: W
HStem: 754 132<98.0038 192.749>
VStem: 80 131<771.625 867.975>
Fore
146 886 m 256
 179 886 211 857 211 820 c 0
 211 780 178 754 146 754 c 256
 113 754 80 779 80 820 c 0
 80 858 112 886 146 886 c 256
EndSplineSet
EndChar
StartChar: ring
Encoding: 730 730 209
Width: 400
VWidth: 1504
Flags: W
HStem: 578 61<154.68 244.291> 755 63<153.711 245.124>
VStem: 80 61<653.511 742.703> 257 63<652.652 742.343>
Fore
200 818 m 256
 268 818 320 764 320 698 c 256
 320 630 266 578 200 578 c 256
 132 578 80 632 80 698 c 256
 80 766 134 818 200 818 c 256
200 639 m 256
 231 639 257 664 257 698 c 256
 257 732 231 755 200 755 c 256
 166 755 141 729 141 698 c 256
 141 664 169 639 200 639 c 256
EndSplineSet
EndChar
StartChar: ogonek
Encoding: 731 731 210
Width: 383
VWidth: 1504
Flags: W
HStem: -230 84<172.084 259.456>
VStem: 80 85<-139.473 -68.7898>
Fore
208 -146 m 0
 239 -146 295 -121 304 -117 c 1
 304 -205 l 1
 263 -222 226 -230 194 -230 c 0
 97 -230 80 -154 80 -114 c 0
 80 -85 85 -55 108 29 c 1
 197 29 l 1
 176 -24 165 -65 165 -93 c 0
 165 -125 179 -143 208 -146 c 0
EndSplineSet
EndChar
StartChar: tilde
Encoding: 732 732 211
Width: 389
VWidth: 1504
Flags: W
HStem: 552 74<190.5 275.726> 596 70<112.62 188.307>
VStem: 42 66<560 593.787> 278 65<627.516 666>
Fore
126 666 m 0x70
 167 666 218 626 250 626 c 0xb0
 269 626 278 639 278 666 c 1
 343 666 l 1x70
 341 617 325 552 254 552 c 0xb0
 225 552 154 596 126 596 c 0
 117 596 108 590 108 560 c 1
 42 560 l 1
 42 618 71 666 126 666 c 0x70
EndSplineSet
EndChar
StartChar: hungarumlaut
Encoding: 733 733 212
Width: 540
VWidth: 1504
Flags: W
HStem: 481 258<332 364 364 364>
Fore
332 481 m 1
 269 481 l 1
 364 739 l 1
 460 739 l 1
 332 481 l 1
143 481 m 1
 80 481 l 1
 174 739 l 1
 269 739 l 1
 143 481 l 1
EndSplineSet
EndChar
StartChar: uni0E01
Encoding: 3585 3585 214
Width: 588
VWidth: 1504
Flags: W
HStem: 0 21G<75 168 418 511> 532 80<198.138 360.153>
VStem: 75 93<0 340.697> 418 93<0 476.635>
Fore
278 612 m 0
 423 612 511 530 511 397 c 2
 511 0 l 1
 418 0 l 1
 418 399 l 2
 418 480 365 532 281 532 c 0
 221 532 175 507 144 456 c 1
 191 447 225 424 245 388 c 1
 194 358 168 322 168 280 c 2
 168 0 l 1
 75 0 l 1
 75 286 l 2
 75 328 96 361 137 385 c 1
 118 398 95 405 69 405 c 0
 61 405 53 404 45 403 c 1
 49 519 137 612 278 612 c 0
EndSplineSet
EndChar
StartChar: uni0E02
Encoding: 3586 3586 215
Width: 624
VWidth: 1504
Flags: W
HStem: -12 80<337.203 439.307> 326 58<103.552 182.113> 551 61<165.212 266.401>
VStem: 30 66<391.419 468.562> 190 60<391.958 469.626> 214 93<82.986 304.589> 293 89<392.639 525.941> 454 94<82.986 120 120 600>
Fore
381 68 m 0xf5
 418 68 454 87 454 120 c 2
 454 600 l 1
 548 600 l 1
 548 141 l 2
 548 43 482 -12 381 -12 c 256
 279 -12 214 43 214 141 c 2
 214 239 l 2xf5
 214 316 293 396 293 471 c 0xf3
 293 518 255 551 214 551 c 0xf5
 181 551 160 544 149 531 c 1
 208 528 250 490 250 433 c 0
 250 371 200 326 143 326 c 0
 74 326 30 382 30 453 c 0
 30 554 125 612 212 612 c 0
 284 612 382 584 382 471 c 0xfb
 382 394 307 290 307 230 c 2
 307 120 l 2
 307 78 357 68 381 68 c 0xf5
143 384 m 256
 170 384 190 405 190 430 c 256xf9
 190 458 168 477 143 477 c 256
 115 477 96 456 96 430 c 256
 96 405 115 384 143 384 c 256
EndSplineSet
EndChar
StartChar: uni0E03
Encoding: 3587 3587 216
Width: 648
VWidth: 1504
Flags: W
HStem: -12 80<345.834 463.307> 257 62<109.11 188.626> 412 62<121.21 188.166> 580 20<136.5 203.216 478 572>
VStem: 30 72<326.756 447.244> 196 61<326.301 404.787> 238 93<83.0097 284.784> 338 77<387.039 516.569> 478 94<82.986 120 120 600>
Fore
405 68 m 0xfb80
 442 68 478 87 478 120 c 2
 478 600 l 1
 572 600 l 1
 572 141 l 2
 572 43 506 -12 405 -12 c 256
 303 -12 238 43 238 141 c 2
 238 209 l 2xfb80
 238 294 338 380 338 460 c 0
 333 498 317 525 290 540 c 1
 235 483 l 1
 168 543 l 1
 148 531 120 493 117 469 c 1
 132 472 143 474 149 474 c 0
 212 474 257 424 257 366 c 256xfd80
 257 306 214 257 149 257 c 0
 72 257 30 334 30 396 c 0
 30 497 89 604 184 612 c 1
 233 561 l 1
 280 614 l 1
 370 594 415 541 415 454 c 0
 415 373 331 297 331 221 c 2
 331 120 l 2
 331 84 374 68 405 68 c 0xfb80
149 319 m 256
 174 319 196 338 196 366 c 256xfd80
 196 391 176 412 149 412 c 256
 121 412 102 391 102 366 c 256
 102 338 123 319 149 319 c 256
EndSplineSet
EndChar
StartChar: uni0E04
Encoding: 3588 3588 217
Width: 606
VWidth: 1504
Flags: W
HStem: 0 21G<96 190 436 529> 260 53<268.829 340.177> 405 51<262.834 339.685> 532 80<209.782 374.176>
VStem: 47 93<262.626 460.216> 96 94<0 200.253> 347 56<320.364 398.19> 436 93<0 472.872>
Fore
296 612 m 0xfb
 434 612 529 532 529 408 c 2
 529 0 l 1
 436 0 l 1
 436 411 l 2
 436 484 370 532 289 532 c 0
 190 532 140 453 140 381 c 0xfb
 140 344 153 308 153 259 c 2
 153 217 l 1
 153 225 163 264 165 296 c 1
 183 367 228 456 302 456 c 0
 358 456 403 412 403 358 c 0
 403 307 359 260 302 260 c 0
 277 260 255 269 235 287 c 1
 205 196 190 100 190 0 c 1
 96 0 l 1
 96 96 l 2xf7
 96 218 47 293 47 382 c 0
 47 520 155 612 296 612 c 0xfb
301 313 m 256
 326 313 347 331 347 358 c 256
 347 386 326 405 301 405 c 256
 275 405 256 386 256 358 c 256
 256 331 274 313 301 313 c 256
EndSplineSet
EndChar
StartChar: uni0E05
Encoding: 3589 3589 218
Width: 606
VWidth: 1504
Flags: W
HStem: 0 21G<96 190 436 529> 229 51<268.292 340.108> 372 52<263.317 339.525>
VStem: 47 93<271.184 488.341> 96 94<0 171.765> 347 55<286.656 364.263> 436 93<0 509.559>
Fore
96 96 m 2xee
 96 225 47 302 47 390 c 0
 47 466 77 574 202 617 c 1
 302 558 l 1
 409 617 l 1
 489 584 529 523 529 435 c 2
 529 0 l 1
 436 0 l 1
 436 411 l 2
 436 472 423 512 396 531 c 1
 302 472 l 1
 199 531 l 1
 160 504 140 458 140 394 c 0xf6
 140 335 154 312 158 212 c 2
 158 199 l 1
 158 206 163 225 168 265 c 0
 180 336 222 424 302 424 c 0
 359 424 402 379 402 326 c 256
 402 274 359 229 302 229 c 0
 277 229 255 237 235 254 c 1
 205 165 190 80 190 0 c 1
 96 0 l 1
 96 96 l 2xee
301 280 m 256
 326 280 347 298 347 325 c 256
 347 352 326 372 301 372 c 256
 274 372 256 351 256 325 c 256
 256 298 274 280 301 280 c 256
EndSplineSet
EndChar
StartChar: uni0E06
Encoding: 3590 3590 219
Width: 681
VWidth: 1504
Flags: W
HStem: -12 71<192.314 272.286> 158 72<191.851 250.828> 257 62<115.502 194.823> 412 60<125.278 194.764> 580 20<143.5 206.216 511 605>
VStem: 36 72<327.09 447.407> 111 71<68.8844 148.772> 202 61<326.301 404.236> 250 85<229 295.477> 281 72<69.3627 116.951> 340 80<382.553 520.076> 511 94<99 600>
Fore
420 463 m 0xff30
 420 372 335 296 335 221 c 2
 335 199 l 1xfeb0
 394 178 453 144 511 99 c 1
 511 600 l 1
 605 600 l 1
 605 0 l 1
 519 0 l 1
 460 61 404 100 353 117 c 1
 353 102 l 2xfe50
 353 35 295 -12 232 -12 c 256
 166 -12 111 40 111 110 c 0
 111 176 164 230 232 230 c 0
 239 230 245 230 250 229 c 1xfe90
 250 304 340 377 340 456 c 0
 340 495 324 523 292 542 c 1
 239 484 l 1
 174 543 l 1
 155 534 126 496 122 468 c 1
 130 471 140 472 153 472 c 0
 217 472 263 422 263 366 c 0
 263 306 217 257 153 257 c 0
 83 257 36 313 36 400 c 0
 36 503 100 608 187 612 c 1
 236 561 l 1
 284 614 l 1
 375 592 420 542 420 463 c 0xff30
232 59 m 0
 261 59 281 83 281 108 c 0xfe50
 281 136 261 158 232 158 c 0
 206 158 182 137 182 108 c 0
 182 83 204 59 232 59 c 0
155 319 m 256
 180 319 202 338 202 366 c 256xff10
 202 391 182 412 155 412 c 256
 127 412 108 391 108 366 c 256
 108 338 129 319 155 319 c 256
EndSplineSet
EndChar
StartChar: uni0E07
Encoding: 3591 3591 220
Width: 478
VWidth: 1504
Flags: W
HStem: 0 21G<292.271 402> 387 61<238.445 307.48> 551 61<239.628 320.124>
VStem: 168 61<457.847 540.96> 308 94<129 388> 331 71<457.018 541.547>
Fore
280 612 m 0xf8
 347 612 402 567 402 490 c 2
 402 0 l 1xf4
 310 0 l 1
 29 317 l 1
 84 382 l 1
 308 129 l 1
 308 388 l 1
 305 387 296 387 280 387 c 0
 218 387 168 430 168 496 c 256
 168 564 222 612 280 612 c 0xf8
280 448 m 256
 310 448 331 472 331 499 c 256
 331 529 307 551 280 551 c 256
 253 551 229 529 229 499 c 256
 229 469 253 448 280 448 c 256
EndSplineSet
EndChar
StartChar: uni0E08
Encoding: 3592 3592 221
Width: 586
VWidth: 1504
Flags: W
HStem: -12 80<342.725 415.606> 199 60<152.939 225.757> 352 60<153.145 231.451> 532 80<163.831 370.949>
VStem: 86 60<266.261 344.494> 417 93<72.6288 488.483>
Fore
266 612 m 0
 410 612 510 555 510 430 c 2
 510 105 l 2
 510 31 458 -12 381 -12 c 0
 308 -12 265 21 253 86 c 2
 230 205 l 1
 219 201 207 199 193 199 c 0
 132 199 86 248 86 305 c 256
 86 363 133 412 193 412 c 0
 246 412 290 375 299 325 c 2
 341 95 l 2
 344 77 357 68 379 68 c 0
 404 68 417 78 417 98 c 2
 417 436 l 2
 417 502 350 532 274 532 c 0
 187 532 136 508 119 459 c 1
 29 459 l 1
 42 560 121 611 266 612 c 0
193 259 m 256
 220 259 239 280 239 305 c 256
 239 333 218 352 193 352 c 256
 165 352 146 331 146 305 c 256
 146 280 165 259 193 259 c 256
EndSplineSet
EndChar
StartChar: uni0E09
Encoding: 3593 3593 222
Width: 609
VWidth: 1504
Flags: W
HStem: -12 66<405.756 483.957> 174 58<116.212 155> 322 59<116.549 193.628> 532 80<188.203 391.328>
VStem: 38 90<430.15 488.692> 51 59<238.709 315.512> 140 93<99 150.442> 200 60<238.232 315.263> 439 93<266.131 487.207> 492 66<60.9897 140.152>
Fore
290 612 m 0xfa80
 429 612 532 553 532 429 c 2
 532 286 l 2xfa80
 532 248 521 220 499 202 c 1
 538 179 558 146 558 102 c 0
 558 35 506 -12 444 -12 c 0
 382 -12 335 35 331 90 c 1
 296 77 261 47 226 0 c 1
 140 0 l 1
 140 117 l 2xf240
 140 145 145 164 155 174 c 1
 117 174 51 195 51 277 c 0
 51 334 97 381 156 381 c 256
 217 381 260 333 260 277 c 0xf5
 260 240 233 202 233 162 c 2
 233 99 l 1
 276 142 372 178 417 226 c 0
 432 246 439 269 439 296 c 2
 439 435 l 2
 439 501 373 532 292 532 c 0
 206 532 133 497 128 424 c 1
 38 424 l 1
 53 549 137 612 290 612 c 0xfa80
155 232 m 256
 180 232 200 250 200 277 c 256
 200 304 180 322 155 322 c 256
 128 322 110 302 110 277 c 256xf5
 110 250 128 232 155 232 c 256
445 54 m 256
 473 54 492 75 492 101 c 256xf040
 492 126 473 147 445 147 c 256
 418 147 399 126 399 101 c 256
 399 73 420 54 445 54 c 256
EndSplineSet
EndChar
StartChar: uni0E0A
Encoding: 3594 3594 223
Width: 624
VWidth: 1504
Flags: W
HStem: -12 80<337.203 439.307> 326 58<103.552 182.113> 551 61<165.212 266.401>
VStem: 30 66<391.419 468.562> 190 60<391.958 469.626> 214 93<82.986 304.589> 293 89<392.639 525.941> 454 94<82.986 120 120 426.08> 489 93<543.045 635>
Fore
381 68 m 0xf4
 418 68 454 87 454 120 c 2
 454 369 l 2xf5
 454 406 440 429 411 438 c 1
 415 456 415 473 412 490 c 1
 463 509 489 558 489 635 c 1
 582 635 l 1xf080
 575 558 549 501 502 465 c 1
 533 441 548 409 548 370 c 2
 548 141 l 2
 548 43 482 -12 381 -12 c 256
 279 -12 214 43 214 141 c 2
 214 239 l 2xf5
 214 316 293 396 293 471 c 0xf2
 293 518 255 551 214 551 c 0xf4
 181 551 160 544 149 531 c 1
 208 528 250 490 250 433 c 0
 250 371 200 326 143 326 c 0
 74 326 30 382 30 453 c 0
 30 554 125 612 212 612 c 0
 284 612 382 584 382 471 c 0xfa
 382 394 307 290 307 230 c 2
 307 120 l 2
 307 78 357 68 381 68 c 0xf4
143 384 m 256
 170 384 190 405 190 430 c 256xf8
 190 458 168 477 143 477 c 256
 115 477 96 456 96 430 c 256
 96 405 115 384 143 384 c 256
EndSplineSet
EndChar
StartChar: uni0E0B
Encoding: 3595 3595 224
Width: 648
VWidth: 1504
Flags: W
HStem: -12 80<345.834 463.307> 257 62<109.11 188.626> 412 62<121.21 188.166> 592 20G<136.5 203.216>
VStem: 30 72<326.756 447.244> 196 61<326.301 404.787> 238 93<83.0097 284.784> 338 77<387.039 516.569> 478 94<82.986 120 120 426.08> 513 93<543.045 635>
Fore
405 68 m 0xfb
 442 68 478 87 478 120 c 2
 478 369 l 2xfb80
 478 406 464 429 435 438 c 1
 439 456 439 473 436 490 c 1
 487 509 513 558 513 635 c 1
 606 635 l 1xf940
 599 558 573 501 526 465 c 1
 557 441 572 409 572 370 c 2
 572 141 l 2
 572 43 506 -12 405 -12 c 256
 303 -12 238 43 238 141 c 2
 238 209 l 2xfb80
 238 294 338 380 338 460 c 0
 333 498 317 525 290 540 c 1
 235 483 l 1
 168 543 l 1
 148 531 120 493 117 469 c 1
 132 472 143 474 149 474 c 0
 212 474 257 424 257 366 c 256xfd
 257 306 214 257 149 257 c 0
 72 257 30 334 30 396 c 0
 30 497 89 604 184 612 c 1
 233 561 l 1
 280 614 l 1
 370 594 415 541 415 454 c 0
 415 373 331 297 331 221 c 2
 331 120 l 2
 331 84 374 68 405 68 c 0xfb
149 319 m 256
 174 319 196 338 196 366 c 256xfd
 196 391 176 412 149 412 c 256
 121 412 102 391 102 366 c 256
 102 338 123 319 149 319 c 256
EndSplineSet
EndChar
StartChar: uni0E0C
Encoding: 3596 3596 225
Width: 849
VWidth: 1504
Flags: W
HStem: -12 62<125.945 209.02 417.443 500.892> 152 63<168 206.62> 531 81<194.126 348.731>
VStem: 56 60<59.1098 135.588> 75 93<215 342.25> 218 65<59.3758 142.96> 344 64<60.0414 142.427> 405 93<214 471.861> 510 60<59.2289 116.597> 680 93<108 600>
Fore
272 612 m 0xecc0
 409 612 498 531 498 397 c 2
 498 214 l 1xedc0
 577 189 638 153 680 108 c 1
 680 600 l 1
 773 600 l 1
 773 0 l 1
 690 0 l 1
 667 49 626 88 567 117 c 1
 569 103 570 95 570 92 c 0
 570 23 511 -12 459 -12 c 0
 398 -12 344 35 344 102 c 0xe6c0
 344 148 364 183 405 206 c 1
 405 399 l 2
 405 480 347 531 277 531 c 0
 216 531 172 506 146 456 c 1
 192 447 225 424 245 388 c 1
 194 360 168 324 168 280 c 2
 168 215 l 1
 236 215 283 164 283 101 c 0
 283 39 235 -12 168 -12 c 0xedc0
 106 -12 56 38 56 101 c 0xf4c0
 56 127 62 148 75 165 c 1
 75 286 l 2
 75 328 96 361 137 385 c 1
 112 402 81 408 45 403 c 1
 49 519 132 612 272 612 c 0xecc0
167 50 m 256
 197 50 218 74 218 101 c 256
 218 131 194 152 167 152 c 256
 137 152 116 128 116 101 c 256xf4c0
 116 71 140 50 167 50 c 256
459 50 m 256
 489 50 510 74 510 101 c 256
 510 131 486 152 459 152 c 256
 429 152 408 128 408 101 c 256xe6c0
 408 71 432 50 459 50 c 256
EndSplineSet
EndChar
StartChar: uni0E0D
Encoding: 3597 3597 226
Width: 849
VWidth: 1504
Flags: W
HStem: -311 72<541.542 637.764> -111 58<441.434 521.366> -12 80<516.05 661.517> -12 65<152.965 238.035> 155 62<168.222 237.724> 531 81<194.513 348.731>
VStem: 75 93<215 343.79> 75 69<63.361 146.246> 247 61<62.9457 144.823> 376 59<-199.385 -117.333> 405 93<86.3174 471.861> 529 56<-198.045 -118.181> 680 93<87.4782 128 128 600> 701 81<-165.391 -60>
Fore
196 53 m 256xdd90
 226 53 247 77 247 104 c 256
 247 134 223 155 196 155 c 256
 165 155 144 132 144 104 c 256
 144 76 165 53 196 53 c 256xdd90
588 68 m 0xeeb0
 624 68 680 80 680 128 c 2
 680 600 l 1
 773 600 l 1
 773 141 l 2
 773 45 694 -12 587 -12 c 0
 478 -12 405 42 405 141 c 2
 405 399 l 2
 405 480 347 531 277 531 c 0
 216 531 172 506 146 456 c 1
 185 453 218 430 245 388 c 1
 197 362 168 328 168 287 c 2
 168 215 l 1xeeb8
 177 216 185 217 194 217 c 0
 261 217 308 164 308 102 c 256
 308 35 256 -12 194 -12 c 0
 128 -12 75 38 75 110 c 2xdd90
 75 286 l 2
 75 328 96 361 137 385 c 1
 121 396 102 402 81 402 c 0
 70 402 58 400 45 397 c 1
 49 522 134 612 272 612 c 0
 409 612 498 531 498 397 c 2
 498 128 l 2
 498 80 551 68 588 68 c 0xeeb0
483 -53 m 0
 540 -53 585 -99 585 -161 c 0
 585 -200 570 -225 539 -236 c 1
 553 -238 562 -239 567 -239 c 0
 651 -239 696 -179 701 -60 c 1
 782 -60 l 1
 782 -180 738 -311 563 -311 c 0
 457 -311 376 -251 376 -159 c 0xccd4
 376 -95 425 -53 483 -53 c 0
481 -206 m 256
 511 -206 529 -182 529 -158 c 256
 529 -132 510 -111 481 -111 c 256
 453 -111 435 -130 435 -158 c 256
 435 -182 451 -206 481 -206 c 256
EndSplineSet
Substitution2: "Single Substitution lookup 42 subtable" uni0E0D.alt1
Substitution2: "Single Substitution lookup 42 subtable" uni0E0D.alt1
EndChar
StartChar: uni0E0E
Encoding: 3598 3598 227
AltUni2: 00f71b.ffffffff.0
Width: 639
VWidth: 1504
Flags: W
HStem: -352 69<165.758 248.656> -199 65<165.03 258.997> -12 63<84.6013 167.615> 153 62<84.8275 145.369> 532 80<247.853 408.328>
VStem: 12 63<60.2464 142.937> 92 69<-277.139 -206.411> 137 86<248.026 352.201> 177 61<60.8015 143.262> 469 94<-226 471.087>
Fore
328 612 m 0xfd40
 468 612 563 529 563 397 c 2
 563 -346 l 1
 468 -346 l 1
 455 -293 408 -251 329 -220 c 1
 322 -308 283 -352 212 -352 c 0
 147 -352 92 -308 92 -241 c 0xfe40
 92 -170 139 -134 233 -134 c 0
 247 -134 259 -134 268 -135 c 1
 277 -98 290 -75 331 -50 c 1
 393 -83 l 1
 362 -100 343 -122 337 -150 c 1
 394 -171 438 -196 469 -226 c 1
 469 399 l 2
 469 479 411 532 329 532 c 0
 268 532 224 507 196 456 c 1
 245 446 278 423 296 388 c 1
 254 365 223 347 223 286 c 0xfd40
 223 231 238 148 238 102 c 0xfcc0
 238 36 188 -12 126 -12 c 0
 59 -12 12 40 12 102 c 0
 12 167 64 215 123 215 c 0
 135 215 143 214 146 211 c 1
 137 304 l 2
 137 339 154 366 188 385 c 1
 167 398 144 405 119 405 c 0
 111 405 104 404 96 403 c 1
 99 525 189 612 328 612 c 0xfd40
260 -203 m 1
 251 -200 239 -199 224 -199 c 0
 184 -199 161 -210 161 -238 c 0
 161 -268 177 -283 209 -283 c 0
 247 -279 260 -254 260 -212 c 0
 260 -203 l 1
126 51 m 256
 156 51 177 75 177 102 c 256xfcc0
 177 132 153 153 126 153 c 256
 96 153 75 129 75 102 c 256
 75 72 99 51 126 51 c 256
EndSplineSet
Substitution2: "Single Substitution lookup 42 subtable" uni0E0E.alt1
Substitution2: "Single Substitution lookup 42 subtable" uni0E0E.alt1
EndChar
StartChar: uni0E0F
Encoding: 3599 3599 228
AltUni2: 00f71c.ffffffff.0
Width: 639
VWidth: 1504
Flags: W
HStem: -353 76<101.435 178.517> -199 70<103.778 184.879> -12 63<84.6013 167.615> 153 62<84.8275 145.369> 532 80<247.853 408.328>
VStem: 12 63<60.2464 142.937> 30 69<-273.322 -204.463> 137 86<248.026 352.201> 177 61<60.8015 143.262> 469 94<-233 471.087>
Fore
190 -206 m 1xfa40
 179 -201 165 -199 147 -199 c 0
 115 -199 99 -212 99 -239 c 0
 99 -264 112 -277 138 -277 c 0
 173 -277 190 -253 190 -206 c 1xfa40
126 51 m 256
 156 51 177 75 177 102 c 256
 177 132 153 153 126 153 c 256
 96 153 75 129 75 102 c 256xfcc0
 75 72 99 51 126 51 c 256
328 612 m 0
 468 612 563 529 563 397 c 2
 563 -347 l 1
 478 -347 l 1
 400 -245 l 1
 326 -347 l 1
 257 -253 l 1
 249 -309 199 -353 146 -353 c 0
 77 -353 30 -304 30 -241 c 0
 30 -166 73 -129 158 -129 c 0
 177 -129 191 -131 199 -134 c 1
 211 -97 237 -68 277 -47 c 1
 329 -110 l 1
 292 -120 272 -140 268 -171 c 1
 326 -244 l 1
 399 -152 l 1
 469 -233 l 1
 469 399 l 2
 469 479 411 532 329 532 c 0
 268 532 224 507 196 456 c 1
 245 446 278 423 296 388 c 1
 254 365 223 347 223 286 c 0xfb40
 223 231 238 148 238 102 c 0xf8c0
 238 36 188 -12 126 -12 c 0
 59 -12 12 40 12 102 c 0
 12 167 64 215 123 215 c 0
 135 215 143 214 146 211 c 1
 137 304 l 2xfd40
 137 339 154 366 188 385 c 1
 167 398 144 405 119 405 c 0
 111 405 104 404 96 403 c 1
 99 525 189 612 328 612 c 0
EndSplineSet
Substitution2: "Single Substitution lookup 42 subtable" uni0E0F.alt1
Substitution2: "Single Substitution lookup 42 subtable" uni0E0F.alt1
EndChar
StartChar: uni0E10
Encoding: 3600 3600 229
Width: 559
VWidth: 1504
Flags: W
HStem: -346 74<40.579 118.891 266 344 372 389.948> -227 53<341.076 392.868> -199 68<41.8424 123.655> -110 54<339.228 403.994> -12 78<291.807 371.168> 164 57<132.447 190.482> 308 58<131.819 207.563> 495 87<321.474 446.232> 532 80<200.995 342.606>
VStem: -21 59<-272.282 -205.217> 69 57<227.954 301.979> 191 93<73.1602 117 117 167> 214 70<227.112 299.919> 278 60<-171.684 -111.711> 379 93<71.814 361.664> 393 79<-268.576 -247 -247 -227> 406 66<-171.972 -112.152>
Fore
129 -206 m 1xbe60
 116 -201 105 -199 95 -199 c 0
 57 -199 38 -212 38 -238 c 0
 38 -263 51 -275 77 -275 c 0
 112 -275 129 -252 129 -206 c 1xbe60
375 -56 m 0
 427 -56 472 -95 472 -141 c 2xde6480
 472 -245 l 2
 472 -312 439 -346 372 -346 c 2
 248 -346 l 1
 182 -256 l 1
 178 -305 134 -343 86 -343 c 0
 19 -343 -21 -299 -21 -236 c 256
 -21 -173 25 -131 95 -131 c 0
 115 -131 129 -133 137 -138 c 1
 140 -105 158 -80 191 -62 c 1xbe71
 238 -89 l 1
 208 -103 193 -131 193 -173 c 1
 266 -272 l 1
 344 -272 l 2
 377 -272 393 -264 393 -247 c 2
 393 -227 l 1
 375 -227 l 2
 320 -227 278 -190 278 -141 c 0xde65
 278 -94 321 -56 375 -56 c 0
158 492 m 1
 430 447 472 404 472 346 c 2
 472 125 l 2
 472 34 424 -12 329 -12 c 0
 237 -12 191 31 191 117 c 2
 191 167 l 1x9ef2
 183 165 176 164 170 164 c 0
 108 164 69 211 69 265 c 0
 69 326 124 366 174 366 c 0
 235 366 284 326 284 266 c 2x9ee8
 284 120 l 2
 284 84 300 66 331 66 c 0
 363 66 379 84 379 120 c 2
 379 337 l 2
 379 387 114 426 51 426 c 1
 62 539 131 612 248 612 c 0x9ef2
 296 612 369 582 421 582 c 0
 436 582 446 594 450 618 c 1
 526 599 l 1
 508 530 472 495 417 495 c 0x9f72
 366 495 299 532 248 532 c 0x9ef2
 230 532 173 520 158 492 c 1
170 221 m 256
 195 221 214 242 214 265 c 256x9e68
 214 288 195 308 170 308 c 256
 145 308 126 288 126 265 c 256
 126 240 147 221 170 221 c 256
372 -174 m 256xde6480
 392 -174 406 -159 406 -141 c 256
 406 -122 391 -110 372 -110 c 256
 352 -110 338 -122 338 -141 c 256
 338 -161 352 -174 372 -174 c 256xde6480
EndSplineSet
Substitution2: "Single Substitution lookup 42 subtable" uni0E10.alt1
Substitution2: "Single Substitution lookup 42 subtable" uni0E10.alt1
EndChar
StartChar: uni0E11
Encoding: 3601 3601 230
Width: 740
VWidth: 1504
Flags: W
HStem: 0 21G<236 348.012 570 663> 257 62<108.867 187.929> 412 62<118.21 188.694> 523 89<524.282 567.96>
VStem: 30 72<325.929 448.264> 196 60<326.744 404.169> 236 86<95.4358 161 161 270.22> 316 74<369.518 535.202> 570 93<0 522.299>
Fore
390 469 m 0xfd80
 390 383 322 282 322 181 c 2
 314 132 310 104 310 95 c 1
 459 522 l 2
 480 582 513 612 558 612 c 0
 628 612 663 570 663 486 c 2
 663 0 l 1
 570 0 l 1
 570 483 l 2
 570 510 562 523 546 523 c 0
 532 523 522 516 517 502 c 2
 341 0 l 1
 236 0 l 1
 236 161 l 2xfa80
 236 267 316 374 316 471 c 0
 316 505 306 529 286 542 c 1
 230 483 l 1
 167 543 l 1
 146 532 118 492 114 469 c 1
 121 472 132 474 147 474 c 0
 211 474 256 421 256 366 c 0
 256 302 207 257 147 257 c 0
 81 257 30 320 30 402 c 0
 30 507 92 604 181 612 c 1
 230 561 l 1
 278 614 l 1
 353 598 390 550 390 469 c 0xfd80
149 319 m 256
 174 319 196 338 196 366 c 256xfc80
 196 391 176 412 149 412 c 256
 121 412 102 391 102 366 c 256
 102 338 123 319 149 319 c 256
EndSplineSet
EndChar
StartChar: uni0E12
Encoding: 3602 3602 231
Width: 828
VWidth: 1504
Flags: W
HStem: -12 66<415.38 497.039> 388 50<244.755 323.597> 580 20G<659 752>
VStem: 47 91<287.713 486.839> 105 98<0 21.6636 21.6636 73.1331> 107 75<101.702 200.633> 187 51<301.711 380.653> 331 51<302.236 380.442> 344 65<61.5474 142.254> 424 93<209 501.47> 504 66<60.8974 98> 659 93<114 600>
Fore
284 438 m 0xe610
 335 438 382 397 382 341 c 0
 382 292 352 235 292 168 c 0
 233 101 203 45 203 0 c 1
 105 0 l 1xe910
 106 28 107 60 107 96 c 0xe410
 107 155 101 199 89 229 c 0
 61 299 47 350 47 382 c 0
 47 469 83 581 208 614 c 1
 287 546 l 1
 361 614 l 1
 465 599 517 526 517 397 c 2
 517 197 l 1xf050
 564 183 638 138 659 114 c 1
 659 600 l 1
 752 600 l 1
 752 0 l 1
 665 0 l 1
 640 43 608 76 570 98 c 1xe030
 570 38 529 -12 456 -12 c 0
 389 -12 344 42 344 105 c 0
 344 153 382 197 424 209 c 1
 424 394 l 2
 424 462 409 508 379 531 c 1
 287 465 l 1
 203 531 l 1xe8d0
 160 509 138 460 138 384 c 0xf010
 138 341 182 235 182 171 c 0
 182 156 179 142 174 129 c 1
 197 180 230 218 274 245 c 1
 216 249 187 296 187 341 c 0
 187 398 232 438 284 438 c 0xe610
284 295 m 256
 312 295 331 316 331 341 c 256
 331 369 310 388 284 388 c 256
 259 388 238 369 238 341 c 256xe310
 238 314 259 295 284 295 c 256
456 54 m 256
 485 54 504 73 504 101 c 256
 504 130 484 149 456 149 c 256
 428 149 409 130 409 101 c 256xe0b0
 409 73 428 54 456 54 c 256
EndSplineSet
EndChar
StartChar: uni0E13
Encoding: 3603 3603 232
Width: 866
VWidth: 1504
Flags: W
HStem: -12 62<153.995 239.802 662.126 744.995> 152 63<171.249 238.485> 531 81<194.126 348.731>
VStem: 75 71<60.5625 142.982> 75 93<209 342.25> 248 60<60.1013 142.697> 405 93<95 399 399 473.26> 696 94<283.199 600> 755 62<62.3367 145.662>
Fore
272 612 m 0xee
 409 612 498 532 498 399 c 2
 498 95 l 1
 530 135 639 214 675 245 c 1
 689 263 696 287 696 316 c 2
 696 600 l 1
 790 600 l 1
 790 284 l 2xef
 790 245 779 218 758 202 c 1
 797 179 817 146 817 102 c 0
 817 45 779 -12 707 -12 c 0
 647 -12 599 31 590 86 c 1
 563 68 532 39 499 0 c 1
 405 0 l 1
 405 399 l 2
 405 480 347 531 277 531 c 0
 216 531 172 506 146 456 c 1xf680
 185 453 218 430 245 388 c 1
 194 360 168 324 168 280 c 2
 168 209 l 1xee
 175 213 185 215 197 215 c 0
 259 215 308 168 308 102 c 256
 308 35 256 -12 194 -12 c 0
 128 -12 75 38 75 110 c 2xf6
 75 286 l 2
 75 328 96 361 137 385 c 1
 118 398 95 405 69 405 c 0
 61 405 53 404 45 403 c 1
 49 519 132 612 272 612 c 0xee
704 53 m 256
 734 53 755 77 755 104 c 256xe680
 755 134 731 155 704 155 c 256
 674 155 653 131 653 104 c 256
 653 74 677 53 704 53 c 256
197 50 m 256
 227 50 248 74 248 101 c 256
 248 131 224 152 197 152 c 256
 167 152 146 128 146 101 c 256xf6
 146 71 170 50 197 50 c 256
EndSplineSet
EndChar
StartChar: uni0E14
Encoding: 3604 3604 233
Width: 609
VWidth: 1504
Flags: W
HStem: 0 21G<104 199 439 532> 408 52<253.961 331.052> 532 80<213.945 374.784>
VStem: 47 91<290.708 459.546> 104 95<0 22.6703 22.6703 72.9225> 105 83<109.281 238.749> 194 54<323.932 401.942> 338 53<323.476 401.942> 439 93<0 471.861>
Fore
391 363 m 0xe780
 391 222 199 124 199 0 c 1
 104 0 l 1xe980
 105 37 105 71 105 102 c 0xe580
 105 246 47 291 47 381 c 0
 47 520 157 612 292 612 c 0
 437 612 532 531 532 397 c 2
 532 0 l 1
 439 0 l 1
 439 403 l 2
 439 489 362 532 295 532 c 0
 210 532 138 468 138 387 c 0xf180
 138 320 188 239 188 176 c 0
 188 169 187 159 185 147 c 1
 214 194 247 234 283 266 c 1
 229 270 194 312 194 363 c 0
 194 414 237 460 293 460 c 256
 350 460 391 414 391 363 c 0xe780
293 317 m 256
 320 317 338 335 338 363 c 256
 338 388 320 408 293 408 c 256
 266 408 248 388 248 363 c 256xe380
 248 335 268 317 293 317 c 256
EndSplineSet
EndChar
StartChar: uni0E15
Encoding: 3605 3605 234
Width: 609
VWidth: 1504
Flags: W
HStem: 0 21G<99 194 439 532> 385 51<252.514 330.16>
VStem: 47 91<286.387 490.144> 99 95<0 22.4506 22.4506 72.6902> 102 80<112.262 238.031> 196 51<300.821 378.676> 337 53<302.064 379.061> 439 93<0 492.34>
Fore
102 116 m 0xcf
 102 226 47 294 47 390 c 0
 47 474 83 580 206 614 c 1
 292 549 l 1
 372 614 l 1
 479 598 532 526 532 397 c 2
 532 0 l 1
 439 0 l 1
 439 394 l 2
 439 458 422 504 387 532 c 1
 293 465 l 1
 202 532 l 1
 159 511 138 464 138 390 c 0xe7
 138 326 182 240 182 177 c 0xcf
 182 161 179 145 173 128 c 1
 187 160 244 220 283 244 c 1
 216 249 196 306 196 338 c 0
 196 391 234 436 292 436 c 256
 344 436 390 394 390 338 c 0
 390 210 194 127 194 0 c 1
 99 0 l 1xd7
 101 38 102 77 102 116 c 0xcf
292 295 m 256
 317 295 337 313 337 340 c 256
 337 367 317 385 292 385 c 256
 265 385 247 367 247 340 c 256
 247 313 265 295 292 295 c 256
EndSplineSet
EndChar
StartChar: uni0E16
Encoding: 3606 3606 235
Width: 588
VWidth: 1504
Flags: W
HStem: -12 62<155.372 238.535> 152 63<171.249 238.485> 532 80<198.138 360.153>
VStem: 75 71<60.5625 142.982> 75 93<209 340.697> 248 60<60.1013 142.697> 418 93<0 476.635>
Fore
278 612 m 0xee
 423 612 511 530 511 397 c 2
 511 0 l 1
 418 0 l 1
 418 399 l 2
 418 480 365 532 281 532 c 0
 221 532 175 507 144 456 c 1
 191 447 225 424 245 388 c 1
 194 358 168 322 168 280 c 2
 168 209 l 1xee
 175 213 185 215 197 215 c 0
 259 215 308 168 308 102 c 256
 308 35 256 -12 194 -12 c 0
 128 -12 75 38 75 110 c 2xf6
 75 286 l 2
 75 328 96 361 137 385 c 1
 118 398 95 405 69 405 c 0
 61 405 53 404 45 403 c 1
 49 519 137 612 278 612 c 0xee
197 50 m 256
 227 50 248 74 248 101 c 256
 248 131 224 152 197 152 c 256
 167 152 146 128 146 101 c 256xf6
 146 71 170 50 197 50 c 256
EndSplineSet
EndChar
StartChar: uni0E17
Encoding: 3607 3607 236
Width: 658
VWidth: 1504
Flags: W
HStem: 0 21G<155 267.02 489 582> 384 63<87.6013 154.443> 532 80<446.132 486.612> 549 63<87.7416 171.296>
VStem: 15 63<456.677 539.918> 155 93<210.465 387> 181 67<456.735 539.265> 489 93<0 529.412>
Fore
466 612 m 0xed
 559 612 582 551 582 484 c 2
 582 0 l 1
 489 0 l 1
 489 486 l 2
 489 517 481 532 466 532 c 0
 453 532 444 525 439 510 c 2
 260 0 l 1
 155 0 l 1
 155 387 l 1xed
 145 385 136 384 129 384 c 0
 62 384 15 437 15 499 c 0
 15 560 63 612 129 612 c 0
 197 612 248 562 248 490 c 2xdb
 248 266 l 2
 248 232 242 179 230 107 c 1
 241 151 255 200 272 254 c 2
 356 522 l 2
 375 582 412 612 466 612 c 0xed
129 447 m 256
 159 447 181 471 181 498 c 256
 181 525 159 549 129 549 c 256xdb
 99 549 78 525 78 498 c 256
 78 468 102 447 129 447 c 256
EndSplineSet
EndChar
StartChar: uni0E18
Encoding: 3608 3608 237
Width: 538
VWidth: 1504
Flags: MW
HStem: -12 80<184.739 345.016> 504 80<282.259 424.803> 534 78<151.899 337.743>
VStem: 77 93<84.1286 325> 358 93<84.1286 347.523>
Fore
38 424 m 1
 49 537 83 612 221 612 c 0
 282 612 350 584 399 584 c 0
 416 584 425 595 427 617 c 1
 501 597 l 1
 479 534 456 504 393 504 c 0
 347 504 275 534 224 534 c 0
 170 534 141 517 137 484 c 1
 422.138 422.899 451 396 451 326 c 2
 451 128 l 2
 451 35 388 -12 263 -12 c 0
 139 -12 77 35 77 128 c 2
 77 325 l 1
 170 325 l 1
 170 122 l 2
 170 86 202 68 265 68 c 0
 327 68 358 86 358 122 c 2
 358 320 l 2
 358 362 241 385 38 424 c 1
EndSplineSet
EndChar
StartChar: uni0E19
Encoding: 3609 3609 238
Width: 651
VWidth: 1504
Flags: W
HStem: -12 62<445.111 529.397> 384 63<87.6013 154.443> 549 63<87.7416 171.296>
VStem: 15 63<456.677 539.918> 155 93<108 387> 181 67<456.735 539.265> 481 94<260.237 600> 539 63<60.0211 141.878>
Fore
129 612 m 0xf9
 197 612 248 562 248 490 c 2xf4
 248 108 l 1
 298 145 413 172 460 224 c 0
 474 239 481 263 481 296 c 2
 481 600 l 1
 575 600 l 1
 575 284 l 2xfa
 575 244 564 217 543 202 c 1
 582 179 602 146 602 101 c 0
 602 34 548 -12 489 -12 c 0
 430 -12 384 30 376 86 c 1
 328 62 283 42 250 0 c 1
 155 0 l 1
 155 387 l 1
 145 385 136 384 129 384 c 0
 62 384 15 437 15 499 c 0
 15 560 63 612 129 612 c 0xf9
129 447 m 256
 159 447 181 471 181 498 c 256
 181 525 159 549 129 549 c 256
 99 549 78 525 78 498 c 256
 78 468 102 447 129 447 c 256
487 50 m 256
 517 50 539 74 539 101 c 256xf1
 539 128 517 152 487 152 c 256
 457 152 436 128 436 101 c 256
 436 71 460 50 487 50 c 256
EndSplineSet
EndChar
StartChar: uni0E1A
Encoding: 3610 3610 239
Width: 669
VWidth: 1504
Flags: W
HStem: -12 80<282.255 464.895> 384 63<87.6013 154.443> 549 63<87.7416 171.296>
VStem: 15 63<456.677 539.918> 155 93<97.3491 387> 181 67<456.735 539.265> 499 94<100.547 134 134 600>
Fore
375 68 m 0xfa
 425 68 499 90 499 134 c 2
 499 600 l 1
 593 600 l 1
 593 135 l 2
 593 37 520 -12 375 -12 c 0
 228 -12 155 37 155 135 c 2
 155 387 l 1xfa
 145 385 136 384 129 384 c 0
 62 384 15 437 15 499 c 0
 15 560 63 612 129 612 c 0
 197 612 248 562 248 490 c 2xf6
 248 134 l 2
 248 89 323 68 375 68 c 0xfa
129 447 m 256
 159 447 181 471 181 498 c 256xf6
 181 525 159 549 129 549 c 256
 99 549 78 525 78 498 c 256
 78 468 102 447 129 447 c 256
EndSplineSet
EndChar
StartChar: uni0E1B
Encoding: 3611 3611 240
Width: 669
VWidth: 1504
Flags: W
HStem: -12 80<282.255 464.895> 384 63<87.6013 154.443> 549 63<87.7416 171.296>
VStem: 15 63<456.677 539.918> 155 93<97.3491 387> 181 67<456.735 539.265> 499 94<100.547 134 134 841>
Fore
375 68 m 0xfa
 425 68 499 90 499 134 c 2
 499 841 l 1
 593 841 l 1
 593 135 l 2
 593 37 520 -12 375 -12 c 0
 228 -12 155 37 155 135 c 2
 155 387 l 1xfa
 145 385 136 384 129 384 c 0
 62 384 15 437 15 499 c 0
 15 560 63 612 129 612 c 0
 197 612 248 562 248 490 c 2xf6
 248 134 l 2
 248 89 323 68 375 68 c 0xfa
129 447 m 256
 159 447 181 471 181 498 c 256xf6
 181 525 159 549 129 549 c 256
 99 549 78 525 78 498 c 256
 78 468 102 447 129 447 c 256
EndSplineSet
EndChar
StartChar: uni0E1C
Encoding: 3612 3612 241
Width: 622
VWidth: 1504
Flags: W
HStem: 0 21G<60 164.448 440.469 546> 384 63<153.107 222.754> 549 63<139.043 222.399>
VStem: 60 69<455.754 540.246> 60 93<128 385> 232 63<456.601 539.548> 453 93<126 600>
Fore
295 498 m 0xf6
 295 431 243 384 181 384 c 0
 166 384 157 384 153 385 c 1
 153 128 l 1
 272 313 l 1
 332 313 l 1
 453 126 l 1
 453 600 l 1
 546 600 l 1
 546 0 l 1
 453 0 l 1
 302 241 l 1
 152 0 l 1
 60 0 l 1xee
 60 490 l 2
 60 564 116 612 181 612 c 0
 248 612 295 559 295 498 c 0xf6
181 447 m 256
 211 447 232 471 232 498 c 256
 232 528 208 549 181 549 c 256
 150 549 129 526 129 498 c 256xf6
 129 470 150 447 181 447 c 256
EndSplineSet
EndChar
StartChar: uni0E1D
Encoding: 3613 3613 242
Width: 622
VWidth: 1504
Flags: W
HStem: 0 21G<60 164.448 440.469 546> 384 63<153.107 222.754> 549 63<139.043 222.399>
VStem: 60 69<455.754 540.246> 60 93<128 385> 232 63<456.601 539.548> 453 93<126 841>
Fore
295 498 m 0xf6
 295 431 243 384 181 384 c 0
 166 384 157 384 153 385 c 1
 153 128 l 1
 272 313 l 1
 332 313 l 1
 453 126 l 1
 453 841 l 1
 546 841 l 1
 546 0 l 1
 453 0 l 1
 302 241 l 1
 152 0 l 1
 60 0 l 1xee
 60 490 l 2
 60 564 116 612 181 612 c 0
 248 612 295 559 295 498 c 0xf6
181 447 m 256
 211 447 232 471 232 498 c 256
 232 528 208 549 181 549 c 256
 150 549 129 526 129 498 c 256xf6
 129 470 150 447 181 447 c 256
EndSplineSet
EndChar
StartChar: uni0E1E
Encoding: 3614 3614 243
Width: 725
VWidth: 1504
Flags: W
HStem: 0 21G<155 262.266 536.948 648> 384 63<87.6013 154.443> 549 63<87.7416 171.296>
VStem: 15 63<456.677 539.918> 155 93<216.371 387> 181 67<456.735 539.265> 555 93<216.371 266 266 600>
Fore
129 612 m 0xfa
 197 612 248 562 248 490 c 2xf6
 248 266 l 2
 248 240 242 187 230 107 c 1
 252 198 265 247 268 254 c 2
 373 575 l 1
 430 575 l 1
 535 254 l 1
 538 248 550 199 573 107 c 1
 561 187 555 240 555 266 c 2
 555 600 l 1
 648 600 l 1
 648 0 l 1
 543 0 l 1
 402 466 l 1
 256 0 l 1
 155 0 l 1
 155 387 l 1
 145 385 136 384 129 384 c 0
 62 384 15 437 15 499 c 0
 15 560 63 612 129 612 c 0xfa
129 447 m 256
 159 447 181 471 181 498 c 256
 181 525 159 549 129 549 c 256
 99 549 78 525 78 498 c 256
 78 468 102 447 129 447 c 256
EndSplineSet
EndChar
StartChar: uni0E1F
Encoding: 3615 3615 244
Width: 725
VWidth: 1504
Flags: W
HStem: 0 21G<155 262.266 536.948 648> 384 63<87.6013 154.443> 549 63<87.7416 171.296>
VStem: 15 63<456.677 539.918> 155 93<216.371 387> 181 67<456.735 539.265> 555 93<216.371 266 266 841>
Fore
129 612 m 0xfa
 197 612 248 562 248 490 c 2xf6
 248 266 l 2
 248 240 242 187 230 107 c 1
 252 198 265 247 268 254 c 2
 373 575 l 1
 430 575 l 1
 535 254 l 1
 538 248 550 199 573 107 c 1
 561 187 555 240 555 266 c 2
 555 841 l 1
 648 841 l 1
 648 0 l 1
 543 0 l 1
 402 466 l 1
 256 0 l 1
 155 0 l 1
 155 387 l 1
 145 385 136 384 129 384 c 0
 62 384 15 437 15 499 c 0
 15 560 63 612 129 612 c 0xfa
129 447 m 256
 159 447 181 471 181 498 c 256
 181 525 159 549 129 549 c 256
 99 549 78 525 78 498 c 256
 78 468 102 447 129 447 c 256
EndSplineSet
EndChar
StartChar: uni0E20
Encoding: 3616 3616 245
Width: 639
VWidth: 1504
Flags: W
HStem: -12 63<84.6013 167.615> 153 62<84.8275 145.369> 532 80<247.853 408.328>
VStem: 12 63<60.2464 142.937> 137 86<248.026 352.201> 177 61<60.8015 143.262> 469 94<0 471.087>
Fore
126 51 m 256xf6
 156 51 177 75 177 102 c 256
 177 132 153 153 126 153 c 256
 96 153 75 129 75 102 c 256
 75 72 99 51 126 51 c 256xf6
328 612 m 0
 468 612 563 529 563 397 c 2
 563 0 l 1
 469 0 l 1
 469 399 l 2
 469 479 411 532 329 532 c 0
 268 532 224 507 196 456 c 1
 245 446 278 423 296 388 c 1
 254 365 223 347 223 286 c 0xfa
 223 231 238 148 238 102 c 0xf6
 238 36 188 -12 126 -12 c 0
 59 -12 12 40 12 102 c 0
 12 167 64 215 123 215 c 0
 135 215 143 214 146 211 c 1
 137 304 l 2xfa
 137 339 154 366 188 385 c 1
 167 398 144 405 119 405 c 0
 111 405 104 404 96 403 c 1
 99 525 189 612 328 612 c 0
EndSplineSet
EndChar
StartChar: uni0E21
Encoding: 3617 3617 246
Width: 627
VWidth: 1504
Flags: W
HStem: -12 71<118.911 202.759> 161 69<121.631 170.943> 384 63<104.601 170.279> 549 63<104.742 187.705>
VStem: 32 63<456.677 539.918> 39 71<68.0509 151.566> 171 94<230 387> 197 68<456.018 539.859> 212 69<69.0091 110> 457 94<98 600>
Fore
146 612 m 0xfa40
 213 612 265 563 265 490 c 2
 265 205 l 1xf940
 344 178 408 142 457 98 c 1
 457 600 l 1
 551 600 l 1
 551 0 l 1
 457 0 l 1
 399 52 340 89 281 110 c 1
 281 102 l 2
 281 34 221 -12 161 -12 c 0
 93 -12 39 43 39 110 c 256xf4c0
 39 176 93 230 161 230 c 2
 171 230 l 1
 171 387 l 1
 161 385 153 384 146 384 c 0
 79 384 32 437 32 499 c 0
 32 560 80 612 146 612 c 0xfa40
146 447 m 256
 176 447 197 471 197 498 c 256
 197 528 173 549 146 549 c 256
 116 549 95 525 95 498 c 256
 95 468 119 447 146 447 c 256
161 59 m 256
 191 59 212 83 212 110 c 256
 212 140 188 161 161 161 c 256
 131 161 110 137 110 110 c 256xf4c0
 110 80 134 59 161 59 c 256
EndSplineSet
EndChar
StartChar: uni0E22
Encoding: 3618 3618 247
Width: 580
VWidth: 1504
Flags: W
HStem: -12 80<183.803 379.662> 287 74<168.125 314> 411 51<160.817 236.261> 558 54<155.045 236.633>
VStem: 60 93<96.5557 272.568 421.615 549.97> 244 55<468.925 550.621> 411 93<96.5557 600>
Fore
208 287 m 2
 175 287 153 254 153 218 c 2
 153 149 l 2
 153 95 196 68 281 68 c 0
 368 68 411 95 411 149 c 2
 411 600 l 1
 504 600 l 1
 504 152 l 2
 504 43 430 -12 281 -12 c 0
 134 -12 60 43 60 152 c 2
 60 221 l 2
 60 269 81 303 122 323 c 1
 76 354 53 400 53 460 c 0
 53 546 102 612 191 612 c 0
 253 612 299 572 299 511 c 0
 299 463 263 411 196 411 c 0
 179 411 165 413 153 418 c 1
 161 380 179 361 208 361 c 2
 314 361 l 1
 314 287 l 1
 208 287 l 2
196 462 m 256
 225 462 244 482 244 510 c 256
 244 539 224 558 196 558 c 256
 167 558 147 539 147 510 c 256
 147 481 167 462 196 462 c 256
EndSplineSet
EndChar
StartChar: uni0E23
Encoding: 3619 3619 248
Width: 494
VWidth: 1504
Flags: W
HStem: -12 63<250.879 333.687> 153 64<249.901 313.729> 505 79<251.044 385.266> 532 80<148.545 311.01>
VStem: 176 65<60.9419 143.46> 314 94<215 365.644> 343 65<60.0176 144.102>
Fore
363 505 m 0xec
 309 505 259 532 209 532 c 0
 165 532 140 515 134 481 c 1
 366 433 408 404 408 337 c 2xdc
 408 101 l 2xda
 408 33 353 -12 292 -12 c 256
 227 -12 176 37 176 102 c 256
 176 169 229 217 292 217 c 0
 304 217 311 216 314 215 c 1
 314 344 l 2
 314 361 285 385 33 429 c 1
 36 502 65 612 194 612 c 0xdc
 252 612 310 584 360 584 c 0
 377 584 386 595 388 617 c 1
 462 597 l 1
 444 536 411 505 363 505 c 0xec
292 51 m 256
 322 51 343 75 343 102 c 256xca
 343 132 319 153 292 153 c 256
 262 153 241 129 241 102 c 256
 241 72 265 51 292 51 c 256
EndSplineSet
EndChar
StartChar: uni0E24
Encoding: 3620 3620 249
Width: 588
VWidth: 1504
Flags: W
HStem: -211 21G<418 511> -12 62<155.372 238.535> 152 63<171.249 238.485> 532 80<198.138 360.153>
VStem: 75 71<60.5625 142.982> 75 93<209 340.697> 248 60<60.1013 142.697> 418 93<-211 476.635>
Fore
278 612 m 0xf7
 423 612 511 530 511 397 c 2
 511 -211 l 1
 418 -211 l 1
 418 399 l 2
 418 480 365 532 281 532 c 0
 221 532 175 507 144 456 c 1
 191 447 225 424 245 388 c 1
 194 358 168 322 168 280 c 2
 168 209 l 1xf7
 175 213 185 215 197 215 c 0
 259 215 308 168 308 102 c 256
 308 35 256 -12 194 -12 c 0
 128 -12 75 38 75 110 c 2xfb
 75 286 l 2
 75 328 96 361 137 385 c 1
 118 398 95 405 69 405 c 0
 61 405 53 404 45 403 c 1
 49 519 137 612 278 612 c 0xf7
197 50 m 256
 227 50 248 74 248 101 c 256
 248 131 224 152 197 152 c 256
 167 152 146 128 146 101 c 256xfb
 146 71 170 50 197 50 c 256
EndSplineSet
EndChar
StartChar: uni0E25
Encoding: 3621 3621 250
Width: 600
VWidth: 1504
Flags: W
HStem: -11 64<155.965 241.004> 155 63<171.222 240.382> 347 77<213.337 386.353> 532 80<189.624 381.22>
VStem: 35 90<432.533 489.345> 78 69<62.2613 146.246> 78 93<215 305.591> 250 66<62.3397 145.548> 430 93<0 309.424 373 490.181>
Fore
284 612 m 0xf980
 413 612 523 547 523 430 c 2
 523 0 l 1
 430 0 l 1
 430 260 l 2
 430 326 345 347 292 347 c 0
 224 347 171 309 171 253 c 2
 171 215 l 1xf380
 180 217 189 218 199 218 c 0
 265 218 316 165 316 104 c 0
 316 36 257 -11 197 -11 c 0
 131 -11 78 35 78 104 c 2xf580
 78 242 l 2xf380
 78 356 166 424 290 424 c 0
 353 424 399 407 430 373 c 1
 430 441 l 2
 430 500 357 532 281 532 c 0
 199 532 136 489 125 424 c 1
 35 424 l 1
 47 550 148 612 284 612 c 0xf980
199 53 m 256
 229 53 250 77 250 104 c 256
 250 134 226 155 199 155 c 256
 168 155 147 132 147 104 c 256xf580
 147 76 168 53 199 53 c 256
EndSplineSet
EndChar
StartChar: uni0E26
Encoding: 3622 3622 251
Width: 639
VWidth: 1504
Flags: W
HStem: -211 21G<469 563> -12 63<84.6013 167.615> 153 62<84.8275 145.369> 532 80<247.853 408.328>
VStem: 12 63<60.2464 142.937> 137 86<248.026 352.201> 177 61<60.8015 143.262> 469 94<-211 471.087>
Fore
126 51 m 256xfb
 156 51 177 75 177 102 c 256
 177 132 153 153 126 153 c 256
 96 153 75 129 75 102 c 256
 75 72 99 51 126 51 c 256xfb
328 612 m 0
 468 612 563 529 563 397 c 2
 563 -211 l 1
 469 -211 l 1
 469 399 l 2
 469 479 411 532 329 532 c 0
 268 532 224 507 196 456 c 1
 245 446 278 423 296 388 c 1
 254 365 223 347 223 286 c 0xfd
 223 231 238 148 238 102 c 0xfb
 238 36 188 -12 126 -12 c 0
 59 -12 12 40 12 102 c 0
 12 167 64 215 123 215 c 0
 135 215 143 214 146 211 c 1
 137 304 l 2xfd
 137 339 154 366 188 385 c 1
 167 398 144 405 119 405 c 0
 111 405 104 404 96 403 c 1
 99 525 189 612 328 612 c 0
EndSplineSet
EndChar
StartChar: uni0E27
Encoding: 3623 3623 252
Width: 570
VWidth: 1504
Flags: W
HStem: -11 64<331.802 414.826> 155 62<331.246 399.821> 532 80<184.737 361.083>
VStem: 35 90<403 475.112> 259 63<63.0046 145.794> 400 93<215 493.213> 424 69<63.0879 146.102>
Fore
262 612 m 0xfc
 399 612 493 555 493 430 c 2xfc
 493 110 l 2xfa
 493 37 440 -11 373 -11 c 0
 307 -11 259 42 259 102 c 0
 259 169 311 217 373 217 c 0
 384 217 393 216 400 215 c 1
 400 436 l 2
 400 500 354 532 262 532 c 0
 190 532 125 486 125 403 c 1
 35 403 l 1
 40 534 125 612 262 612 c 0xfc
373 53 m 256
 403 53 424 77 424 104 c 256xfa
 424 134 400 155 373 155 c 256
 343 155 322 131 322 104 c 256
 322 74 346 53 373 53 c 256
EndSplineSet
EndChar
StartChar: uni0E28
Encoding: 3624 3624 253
Width: 606
VWidth: 1504
Flags: W
HStem: 0 21G<96 190 436 529> 260 53<268.829 340.177> 405 51<263.031 339.685> 532 80<209.782 356.893>
VStem: 47 93<262.626 460.216> 96 94<0 200.253> 347 56<320.364 398.19> 436 93<0 476.319>
Fore
47 382 m 0xfb
 47 520 155 612 296 612 c 0
 335 612 374 604 411 588 c 1
 434 605 445 629 445 660 c 1
 551 660 l 1
 538 605 515 565 481 539 c 1
 513 502 529 458 529 408 c 2
 529 0 l 1
 436 0 l 1
 436 411 l 2
 436 484 370 532 289 532 c 0
 190 532 140 453 140 381 c 0xfb
 140 344 153 308 153 259 c 2
 153 220 l 1
 153 224 154 234 157 250 c 2
 165 296 l 2
 193 409 247 456 302 456 c 0
 358 456 403 412 403 358 c 0
 403 307 359 260 302 260 c 0
 277 260 255 269 235 287 c 1
 205 196 190 100 190 0 c 1
 96 0 l 1
 96 96 l 2xf7
 96 218 47 293 47 382 c 0xfb
301 313 m 256
 326 313 347 331 347 358 c 256
 347 386 326 405 301 405 c 256
 275 405 256 386 256 358 c 256
 256 331 274 313 301 313 c 256
EndSplineSet
EndChar
StartChar: uni0E29
Encoding: 3625 3625 254
Width: 693
VWidth: 1504
Flags: W
HStem: -12 80<283.982 488.265> 223 82<343.622 450.56 446.265 491.408 491.408 523> 384 63<87.6013 154.443> 399 49<337.637 414.116> 549 63<87.7416 171.296>
VStem: 15 63<456.677 539.918> 155 93<100.547 387> 181 67<456.735 539.265> 277 54<311.248 392.654> 421 56<311.477 392.068> 523 94<100.547 230 350 600>
Fore
379 448 m 0xdee0
 441 448 477 404 477 353 c 0
 477 321 466 298 445 283 c 1
 472 285 498 290 523 298 c 1
 523 600 l 1
 617 600 l 1
 617 350 l 1
 633 365 645 384 654 406 c 1
 704 356 l 1
 685 324 656 295 617 269 c 1
 617 135 l 2
 617 37 540 -12 387 -12 c 0
 232 -12 155 37 155 135 c 2
 155 387 l 1xdee0
 145 385 136 384 129 384 c 0
 62 384 15 437 15 499 c 0
 15 560 63 612 129 612 c 0
 197 612 248 562 248 490 c 2xede0
 248 140 l 2
 248 111 278 68 385 68 c 0
 495 68 523 111 523 140 c 2
 523 230 l 1
 500 225 479 223 460 223 c 0
 338 223 277 264 277 347 c 0
 277 402 314 448 379 448 c 0xdee0
129 447 m 256xede0
 159 447 181 471 181 498 c 256
 181 525 159 549 129 549 c 256
 99 549 78 525 78 498 c 256
 78 468 102 447 129 447 c 256xede0
376 305 m 256
 402 305 421 324 421 352 c 256
 421 380 402 399 376 399 c 256xdce0
 350 399 331 380 331 352 c 256
 331 324 350 305 376 305 c 256
EndSplineSet
EndChar
StartChar: uni0E2A
Encoding: 3626 3626 255
Width: 600
VWidth: 1504
Flags: W
HStem: -11 64<155.965 241.004> 155 63<171.361 240.382> 347 77<213.337 386.353> 532 80<189.624 357.128>
VStem: 35 90<432.533 489.345> 78 69<62.2613 146.246> 78 93<215 305.591> 250 66<62.3397 145.548> 430 93<0 309.424 373 489.375>
Fore
35 424 m 1xf980
 47 550 148 612 284 612 c 0
 329 612 370 604 406 588 c 1
 427 607 438 631 438 660 c 1
 543 660 l 1
 531 609 509 570 478 542 c 1
 508 509 523 472 523 430 c 2
 523 0 l 1
 430 0 l 1
 430 260 l 2
 430 326 345 347 292 347 c 0
 224 347 171 309 171 253 c 2
 171 215 l 1xf380
 186 217 195 218 199 218 c 0
 265 218 316 165 316 104 c 0
 316 36 257 -11 197 -11 c 0
 131 -11 78 35 78 104 c 2xf580
 78 242 l 2xf380
 78 356 166 424 290 424 c 0
 353 424 399 407 430 373 c 1
 430 441 l 2
 430 500 357 532 281 532 c 0
 199 532 136 489 125 424 c 1
 35 424 l 1xf980
199 53 m 256
 229 53 250 77 250 104 c 256
 250 134 226 155 199 155 c 256
 168 155 147 132 147 104 c 256xf580
 147 76 168 53 199 53 c 256
EndSplineSet
EndChar
StartChar: uni0E2B
Encoding: 3627 3627 256
Width: 658
VWidth: 1504
Flags: W
HStem: 0 21G<155 253.632 489 582> 375 72<448.735 487.598> 384 63<87.6013 154.443> 549 63<87.7416 171.296 448.246 532.051>
VStem: 15 63<456.677 539.918> 155 93<216.371 387> 181 67<456.735 539.265> 376 63<456.465 539.399> 489 93<0 361.889> 542 63<456.859 538.239>
Fore
490 612 m 256xbd
 558 612 605 561 605 498 c 0xbd40
 605 465 591 436 563 411 c 1
 576 386 582 358 582 329 c 2
 582 0 l 1
 489 0 l 1
 489 334 l 2
 489 361 483 375 472 375 c 0
 464 375 453 362 438 337 c 2
 242 0 l 1
 155 0 l 1
 155 387 l 1xdd80
 145 385 136 384 129 384 c 0
 62 384 15 437 15 499 c 0
 15 560 63 612 129 612 c 0
 197 612 248 562 248 490 c 2xbb
 248 266 l 2
 248 240 242 187 230 107 c 1
 240 150 255 189 275 226 c 2
 358 369 l 2
 376 399 392 416 406 420 c 1
 386 445 376 471 376 498 c 0
 376 565 428 612 490 612 c 256xbd
129 447 m 256
 159 447 181 471 181 498 c 256xbb
 181 525 159 549 129 549 c 256
 99 549 78 525 78 498 c 256
 78 468 102 447 129 447 c 256
490 447 m 256
 520 447 542 471 542 498 c 256xb940
 542 525 520 549 490 549 c 256
 460 549 439 525 439 498 c 256
 439 468 463 447 490 447 c 256
EndSplineSet
EndChar
StartChar: uni0E2C
Encoding: 3628 3628 257
AltUni2: 00f71d.ffffffff.0
Width: 703
VWidth: 1504
Flags: W
HStem: 0 21G<155 261.448 521.478 627> 384 63<87.6013 154.443 466.601 533.443> 549 63<87.7416 171.296 466.742 543.328>
VStem: 15 63<456.677 539.918> 155 93<198.57 387> 181 67<456.735 539.265> 394 63<456.677 539.918> 534 93<198.57 250 250 387> 560 67<456.735 520.332> 605 81<597.893 660>
Fore
394 499 m 0xfb
 394 560 442 612 508 612 c 0
 531 612 552 607 569 596 c 1
 588 612 600 633 605 660 c 1
 686 660 l 1xf240
 679 609 655 571 615 545 c 1
 623 528 627 510 627 490 c 2
 627 0 l 1
 532 0 l 1
 391 268 l 1
 251 0 l 1
 155 0 l 1
 155 387 l 1xfa80
 145 385 136 384 129 384 c 0
 62 384 15 437 15 499 c 0
 15 560 63 612 129 612 c 0
 197 612 248 562 248 490 c 2xf6
 248 250 l 2
 248 219 242 169 230 102 c 1
 239 126 250 150 263 174 c 2
 358 332 l 1
 424 332 l 1
 519 174 l 2
 532 150 543 126 552 102 c 1
 540 169 534 219 534 250 c 2
 534 387 l 1
 524 385 515 384 508 384 c 0
 441 384 394 437 394 499 c 0xfb
508 447 m 256
 538 447 560 471 560 498 c 256xf280
 560 525 538 549 508 549 c 256
 478 549 457 525 457 498 c 256
 457 468 481 447 508 447 c 256
129 447 m 256
 159 447 181 471 181 498 c 256xf6
 181 525 159 549 129 549 c 256
 99 549 78 525 78 498 c 256
 78 468 102 447 129 447 c 256
EndSplineSet
Substitution2: "Single Substitution lookup 42 subtable" uni0E2C.alt1
Substitution2: "Single Substitution lookup 42 subtable" uni0E2C.alt1
EndChar
StartChar: uni0E2D
Encoding: 3629 3629 258
Width: 592
VWidth: 1504
Flags: W
HStem: -12 80<205.96 392.53> 190 61<177.312 241.258> 353 62<157.955 241.694> 532 80<164.101 376.949>
VStem: 35 90<470.489 515.959> 84 65<259.898 343.739> 84 93<94.3823 193> 251 63<260.651 343.397> 423 93<94.6938 488.483>
Fore
272 612 m 0xf980
 416 612 516 555 516 430 c 2
 516 135 l 2
 516 31 415 -12 298 -12 c 256
 182 -12 84 30 84 135 c 2xf380
 84 287 l 2xf580
 84 336 107 415 200 415 c 0
 262 415 314 369 314 302 c 0
 314 241 266 190 200 190 c 0
 191 190 184 191 177 193 c 1
 177 146 l 2xf380
 177 94 218 68 299 68 c 0
 382 68 423 94 423 147 c 2
 423 436 l 2
 423 502 356 532 280 532 c 0
 185 532 133 508 125 459 c 1
 35 459 l 1
 48 560 127 611 272 612 c 0xf980
200 251 m 256
 230 251 251 275 251 302 c 256
 251 332 227 353 200 353 c 256
 170 353 149 329 149 302 c 256xf580
 149 272 173 251 200 251 c 256
EndSplineSet
EndChar
StartChar: uni0E2E
Encoding: 3630 3630 259
Width: 579
VWidth: 1504
Flags: W
HStem: -12 80<192.339 378.586> 161 62<164.451 228.258> 325 62<144.485 228.694> 423 61<138.834 314.261> 546 68<144.912 360.802>
VStem: 50 87<491.986 532.274> 71 64<231.754 315.739> 71 93<94.3823 135 135 164> 238 63<232.582 315.397> 409 93<94.6938 444.516>
Fore
390 505 m 1xfcc0
 359 532 315 546 257 546 c 0
 177 546 137 533 137 508 c 0
 137 492 174 484 248 484 c 0
 308 484 355 491 390 505 c 1xfcc0
301 274 m 0
 301 213 253 161 187 161 c 0
 178 161 170 162 164 164 c 1
 164 146 l 2xf9c0
 164 94 205 68 286 68 c 0
 368 68 409 94 409 147 c 2
 409 445 l 1
 363 430 307 423 241 423 c 0
 114 423 50 449 50 502 c 0xfcc0
 50 577 124 614 271 614 c 0
 343 614 402 594 448 555 c 1
 456 570 463 590 468 614 c 1
 558 614 l 1
 546 553 525 508 496 477 c 1
 500 464 502 447 502 426 c 2
 502 135 l 2
 502 31 401 -12 284 -12 c 256
 167 -12 71 30 71 135 c 2xf9c0
 71 259 l 2xfac0
 71 308 94 387 187 387 c 0
 249 387 301 341 301 274 c 0
187 223 m 256
 217 223 238 247 238 274 c 256
 238 304 214 325 187 325 c 256
 156 325 135 302 135 274 c 256xfac0
 135 246 156 223 187 223 c 256
EndSplineSet
EndChar
StartChar: uni0E2F
Encoding: 3631 3631 260
Width: 571
VWidth: 1504
Flags: W
HStem: 0 21G<400 493> 375 70<108.979 192.193> 548 64<109.761 191.694>
VStem: 36 63<453.963 538.112> 202 64<474.432 536.952> 400 93<0 513.419>
Fore
150 612 m 256
 218 612 266 560 266 496 c 0
 266 491 265 484 263 474 c 1
 296 499 316 541 323 600 c 1
 391 600 l 2
 459 600 493 564 493 492 c 2
 493 0 l 1
 400 0 l 1
 400 474 l 2
 400 510 395 529 384 531 c 1
 375 428 268 375 179 375 c 0
 98 375 36 421 36 496 c 0
 36 564 87 612 150 612 c 256
150 445 m 256
 180 445 202 469 202 496 c 256
 202 526 177 548 150 548 c 256
 123 548 99 526 99 496 c 256
 99 466 123 445 150 445 c 256
EndSplineSet
EndChar
StartChar: uni0E30
Encoding: 3632 3632 261
Width: 511
VWidth: 1504
Flags: W
HStem: 17 70<230 304.087> 194 57<107.265 184.928> 358 71<230 304.087> 535 58<107.419 185.449>
VStem: 44 57<109.081 187.137 449.424 528.504> 193 60<109.018 186.482 450.77 526.998> 370 84<152.467 256 498.235 597>
Fore
147 593 m 0
 216 593 253 539 253 489 c 0
 253 462 245 442 230 429 c 1
 323 433 370 489 370 597 c 1
 454 597 l 1
 449 438 375 358 230 358 c 0
 81 358 44 437 44 489 c 0
 44 549 91 593 147 593 c 0
146 444 m 256
 172 444 193 462 193 489 c 256
 193 514 173 535 146 535 c 256
 119 535 101 514 101 489 c 256
 101 462 119 444 146 444 c 256
147 251 m 0
 213 251 253 202 253 147 c 0
 253 120 245 100 230 87 c 1
 323 91 370 147 370 256 c 1
 454 256 l 1
 449 97 375 17 230 17 c 0
 80 17 44 95 44 147 c 0
 44 208 91 251 147 251 c 0
146 102 m 256
 173 102 193 122 193 147 c 256
 193 175 171 194 146 194 c 256
 120 194 101 175 101 147 c 256
 101 122 119 102 146 102 c 256
EndSplineSet
EndChar
StartChar: uni0E31
Encoding: 3633 3633 262
Width: 0
VWidth: 1504
Flags: W
HStem: 718 70<-196 -109.584> 895 57<-318.408 -240.896>
VStem: -382 57<810.123 888.137> -233 60<809.732 887.778> -14 89<856.557 967>
Fore
-278 952 m 0
 -214 952 -173 903 -173 848 c 0
 -173 821 -181 801 -196 788 c 1
 -91 792 -31 852 -14 967 c 1
 75 967 l 1
 49 801 -41 718 -196 718 c 0
 -346 718 -382 796 -382 848 c 0
 -382 909 -335 952 -278 952 c 0
-280 803 m 256
 -252 803 -233 823 -233 848 c 256
 -233 876 -254 895 -280 895 c 256
 -305 895 -325 876 -325 848 c 256
 -325 821 -305 803 -280 803 c 256
EndSplineSet
Substitution2: "Single Substitution lookup 42 subtable" uni0E31.alt1
Substitution2: "Single Substitution lookup 42 subtable" uni0E31.alt1
EndChar
StartChar: uni0E32
Encoding: 3634 3634 263
Width: 505
VWidth: 1504
Flags: W
HStem: 0 21G<335 429> 532 80<162.406 300.239>
VStem: 24 90<415 484.202> 335 94<0 496.403>
Fore
229 612 m 0
 311 612 429 577 429 439 c 2
 429 0 l 1
 335 0 l 1
 335 438 l 2
 335 494 295 532 229 532 c 256
 162 532 117 483 114 415 c 1
 24 415 l 1
 30 529 101 612 229 612 c 0
EndSplineSet
EndChar
StartChar: uni0E34
Encoding: 3636 3636 265
Width: 0
VWidth: 1504
Flags: MW
HStem: 737 59<-461.396 -218.755> 869 61<-419.203 -243.076>
Fore
-74 677 m 1
 -198 717 -312 737 -415 737 c 0
 -462 737 -510 734 -558 728 c 1
 -546 863 -473 930 -338 930 c 0
 -127 930 -82 750 -74 677 c 1
-170 766 m 1
 -179 805 -237 869 -326 869 c 0
 -406 869 -457 834 -469 790 c 1
 -452 794 -426 796 -390 796 c 0
 -315 796 -242 786 -170 766 c 1
EndSplineSet
Substitution2: "Single Substitution lookup 42 subtable" uni0E34.alt1
Substitution2: "Single Substitution lookup 42 subtable" uni0E34.alt1
EndChar
StartChar: uni0E35
Encoding: 3637 3637 266
Width: 0
VWidth: 1504
Flags: W
HStem: 737 59<-461.396 -218.755> 869 61<-419.203 -242.447>
VStem: -167 90<871 975>
Fore
-74 677 m 1
 -198 717 -312 737 -415 737 c 0
 -462 737 -510 734 -558 728 c 1
 -546 863 -473 930 -338 930 c 0
 -267 930 -210 910 -167 871 c 1
 -167 975 l 1
 -77 975 l 1
 -77 698 l 1
 -74 677 l 1
-170 766 m 1
 -179 805 -237 869 -326 869 c 0
 -406 869 -457 834 -469 790 c 1
 -452 794 -426 796 -390 796 c 0
 -315 796 -242 786 -170 766 c 1
EndSplineSet
Substitution2: "Single Substitution lookup 42 subtable" uni0E35.alt1
Substitution2: "Single Substitution lookup 42 subtable" uni0E35.alt1
EndChar
StartChar: uni0E36
Encoding: 3638 3638 267
Width: 0
VWidth: 1504
Flags: MW
HStem: 737 59<-461.396 -218.755> 869 61<-419.203 -266.001> 943 47<-183.274 -109.733>
VStem: -233 43<912 935.439> -104 47<862.42 936.94>
Fore
-170 766 m 1
 -179 805 -237 869 -326 869 c 0
 -406 869 -457 834 -469 790 c 1
 -452 794 -426 796 -390 796 c 0
 -315 796 -242 786 -170 766 c 1
-146 857 m 256
 -127 857 -104 871 -104 900 c 256
 -104 925 -124 943 -146 943 c 256
 -166 943 -190 926 -190 900 c 256
 -190 874 -168 857 -146 857 c 256
-146 990 m 0
 -94 990 -57 948 -57 900 c 0
 -57 856 -85 823 -119 814 c 1
 -95 775 -80 729 -74 677 c 1
 -198 717 -312 737 -415 737 c 0
 -462 737 -510 734 -558 728 c 1
 -546 863 -473 930 -338 930 c 0
 -299 930 -264 924 -233 912 c 1
 -228 951 -198 990 -146 990 c 0
EndSplineSet
Substitution2: "Single Substitution lookup 42 subtable" uni0E36.alt1
Substitution2: "Single Substitution lookup 42 subtable" uni0E36.alt1
EndChar
StartChar: uni0E37
Encoding: 3639 3639 268
Width: 0
VWidth: 1504
Flags: W
HStem: 737 59<-461.396 -218.755> 869 61<-419.203 -297.272>
VStem: -296 67<927 975> -167 90<871 975>
Fore
-74 677 m 1
 -198 717 -312 737 -415 737 c 0
 -462 737 -510 734 -558 728 c 1
 -546 863 -473 930 -338 930 c 0
 -323 930 -309 929 -296 927 c 1
 -296 975 l 1
 -229 975 l 1
 -229 912 l 1
 -207 903 -186 889 -167 871 c 1
 -167 975 l 1
 -77 975 l 1
 -77 698 l 1
 -74 677 l 1
-170 766 m 1
 -179 805 -237 869 -326 869 c 0
 -406 869 -457 834 -469 790 c 1
 -452 794 -426 796 -390 796 c 0
 -315 796 -242 786 -170 766 c 1
EndSplineSet
Substitution2: "Single Substitution lookup 42 subtable" uni0E37.alt1
Substitution2: "Single Substitution lookup 42 subtable" uni0E37.alt1
EndChar
StartChar: uni0E38
Encoding: 3640 3640 269
Width: 0
VWidth: 1504
Flags: W
HStem: -239 51<-204.864 -167.771> -105 46<-206.777 -133.651>
VStem: -263 51<-182.059 -110.805> -167 90<-353 -239> -129 52<-182.997 -111.344>
Fore
-171 -59 m 0xf0
 -127 -59 -77 -88 -77 -149 c 2xe8
 -77 -353 l 1
 -167 -353 l 1
 -167 -239 l 1
 -173 -239 l 2
 -225 -239 -263 -198 -263 -150 c 0
 -263 -102 -226 -59 -171 -59 c 0xf0
-170 -188 m 256
 -146 -188 -129 -167 -129 -146 c 256
 -129 -122 -148 -105 -170 -105 c 256
 -194 -105 -212 -124 -212 -146 c 256
 -212 -167 -193 -188 -170 -188 c 256
EndSplineSet
Substitution2: "Single Substitution lookup 41 subtable" a
Substitution2: "Single Substitution lookup 42 subtable" uni0E38.alt1
Substitution2: "Single Substitution lookup 41 subtable" a
Substitution2: "Single Substitution lookup 42 subtable" uni0E38.alt1
EndChar
StartChar: uni0E39
Encoding: 3641 3641 270
Width: 0
VWidth: 1504
Flags: W
HStem: -372 65<-256.666 -165.203> -239 51<-386.833 -344.924> -105 46<-387.455 -314.916>
VStem: -444 51<-182.059 -111.052> -344 87<-304.146 -284 -284 -239> -310 53<-182.997 -109.675> -164 87<-302.789 -72>
Fore
-352 -59 m 0xfa
 -305 -59 -257 -89 -257 -149 c 2xf6
 -257 -284 l 2
 -257 -299 -242 -307 -212 -307 c 0
 -180 -307 -164 -299 -164 -284 c 2
 -164 -72 l 1
 -77 -72 l 1
 -77 -274 l 2
 -77 -341 -137 -372 -214 -372 c 0
 -280 -372 -344 -341 -344 -284 c 2
 -344 -239 l 1
 -353 -239 l 2
 -405 -239 -444 -198 -444 -150 c 0
 -444 -102 -406 -59 -352 -59 c 0xfa
-350 -188 m 256
 -328 -188 -310 -167 -310 -146 c 256
 -310 -122 -329 -105 -350 -105 c 256
 -374 -105 -393 -124 -393 -146 c 256
 -393 -167 -374 -188 -350 -188 c 256
EndSplineSet
Substitution2: "Single Substitution lookup 41 subtable" b
Substitution2: "Single Substitution lookup 42 subtable" uni0E39.alt1
Substitution2: "Single Substitution lookup 41 subtable" b
Substitution2: "Single Substitution lookup 42 subtable" uni0E39.alt1
EndChar
StartChar: uni0E3A
Encoding: 3642 3642 271
Width: 0
VWidth: 1504
Flags: W
HStem: -167 105<-149.803 -66.6954>
VStem: -161 105<-155.803 -72.8358>
Fore
-108 -62 m 256
 -78 -62 -56 -87 -56 -114 c 256
 -56 -141 -78 -167 -108 -167 c 256
 -138 -167 -161 -141 -161 -114 c 256
 -161 -84 -135 -62 -108 -62 c 256
EndSplineSet
Substitution2: "Single Substitution lookup 41 subtable" c
Substitution2: "Single Substitution lookup 42 subtable" uni0E3A.alt1
Substitution2: "Single Substitution lookup 41 subtable" c
Substitution2: "Single Substitution lookup 42 subtable" uni0E3A.alt1
EndChar
StartChar: uni0E3F
Encoding: 3647 3647 272
Width: 585
VWidth: 1504
Flags: W
HStem: -84 195<236.146 316.036> 32 79<194.773 236> 335 83<185 350.006> 606 179<236.274 318.325>
VStem: 96 89<116 335 418 599> 236 83<-84 32 686 785> 391 89<455.708 570.147> 418 86<166.815 290.665>
Fore
504 227 m 0x7d
 504 120 442 57 319 38 c 1
 319 -84 l 1
 236 -84 l 1xbd
 236 32 l 1
 201 32 155 37 96 47 c 1
 96 665 l 1
 155 678 201 685 236 686 c 1
 236 785 l 1
 319 785 l 1
 319 681 l 1
 426 664 480 609 480 514 c 0x7e
 480 459 456 414 409 379 c 1
 472 342 504 291 504 227 c 0x7d
242 111 m 0
 334 111 418 146 418 226 c 0
 418 299 363 335 253 335 c 2
 185 335 l 1
 185 116 l 1
 202 113 221 111 242 111 c 0
268 418 m 2
 345 418 391 458 391 513 c 0x3e
 391 575 342 606 244 606 c 0
 238 606 218 604 185 599 c 1
 185 418 l 1
 268 418 l 2
EndSplineSet
EndChar
StartChar: uni0E40
Encoding: 3648 3648 273
Width: 312
VWidth: 1504
Flags: W
HStem: -12 63<150.442 234.341> 153 64<165.131 234.282> 580 20G<72 165>
VStem: 72 93<214 600> 72 69<60.1406 144.246> 244 63<60.6013 143.32>
Fore
193 217 m 0xf4
 253 217 307 168 307 102 c 256
 307 35 253 -12 193 -12 c 0
 125 -12 72 37 72 110 c 2xec
 72 600 l 1
 165 600 l 1
 165 214 l 1
 170 216 180 217 193 217 c 0xf4
193 51 m 256
 223 51 244 75 244 102 c 256
 244 132 220 153 193 153 c 256
 162 153 141 130 141 102 c 256
 141 74 162 51 193 51 c 256
EndSplineSet
EndChar
StartChar: uni0E41
Encoding: 3649 3649 274
Width: 594
VWidth: 1504
Flags: W
HStem: -12 63<150.442 234.341 432.372 515.341> 153 64<165.131 234.282 447.518 515.282> 580 20G<72 165 353 447>
VStem: 72 93<214 600> 72 69<60.1406 144.246> 244 63<60.6013 143.32> 353 94<214 600> 353 70<60.1406 143.982> 525 63<60.6013 143.32>
Fore
193 217 m 0xf480
 253 217 307 168 307 102 c 256
 307 35 253 -12 193 -12 c 0
 125 -12 72 37 72 110 c 2xec80
 72 600 l 1
 165 600 l 1
 165 214 l 1
 170 216 180 217 193 217 c 0xf480
474 217 m 0
 534 217 588 168 588 102 c 256
 588 35 534 -12 474 -12 c 0
 408 -12 353 37 353 110 c 2xe580
 353 600 l 1
 447 600 l 1
 447 214 l 1xe680
 452 216 461 217 474 217 c 0
193 51 m 256
 223 51 244 75 244 102 c 256
 244 132 220 153 193 153 c 256
 162 153 141 130 141 102 c 256xec80
 141 74 162 51 193 51 c 256
474 51 m 256
 504 51 525 75 525 102 c 256
 525 132 501 153 474 153 c 256
 444 153 423 129 423 102 c 256xe580
 423 72 447 51 474 51 c 256
EndSplineSet
EndChar
StartChar: uni0E42
Encoding: 3650 3650 275
Width: 379
VWidth: 1504
Flags: W
HStem: -12 63<217.172 300.341> 153 64<232.518 300.282> 862 75<199.523 282.056> 912 75<46.1623 182.976>
VStem: 138 94<214 749.89> 138 70<60.1406 143.982> 310 63<60.6013 143.32>
Fore
259 217 m 0xda
 319 217 373 168 373 102 c 256
 373 35 319 -12 259 -12 c 0
 192 -12 138 37 138 110 c 2xd6
 138 707 l 2
 128 778 24 815 -50 815 c 1
 -45 930 7 987 104 987 c 0xda
 170 987 222 937 260 937 c 0
 271 937 282 952 293 982 c 1
 363 964 l 1
 344 896 313 862 272 862 c 0xea
 222 862 163 912 104 912 c 0
 69 912 46 899 35 874 c 1
 166 840 232 782 232 699 c 2
 232 214 l 1
 237 216 246 217 259 217 c 0xda
259 51 m 256
 289 51 310 75 310 102 c 256
 310 132 286 153 259 153 c 256
 229 153 208 129 208 102 c 256
 208 72 232 51 259 51 c 256
EndSplineSet
EndChar
StartChar: uni0E43
Encoding: 3651 3651 276
Width: 404
VWidth: 1504
Flags: W
HStem: -12 63<242.233 325.617> 153 64<257.518 325.969> 719 51<7.30705 85.6645> 863 44<62 86.2462> 925 66<81.7985 195.657>
VStem: -51 51<777.647 854.43> 93 53<776.79 856.214> 164 93<214 752.469> 164 69<60.1406 143.982> 217 88<779.359 902.858> 335 64<60.6013 143.119>
Fore
284 217 m 0xff20
 347 217 399 167 399 102 c 256
 399 35 345 -12 284 -12 c 0
 217 -12 164 37 164 110 c 2xfea0
 164 677 l 2xff20
 164 736 217 800 217 853 c 0
 217 896 182 925 137 925 c 0
 103 925 78 919 62 907 c 1
 107 907 146 871 146 818 c 0
 146 767 106 719 47 719 c 0
 -15 719 -51 771 -51 824 c 0
 -51 930 21 991 134 991 c 0
 227 991 305 937 305 856 c 0xfe60
 305 794 257 722 257 665 c 2
 257 214 l 1
 262 216 271 217 284 217 c 0xff20
284 51 m 256
 314 51 335 75 335 102 c 256
 335 132 311 153 284 153 c 256
 254 153 233 129 233 102 c 256
 233 72 257 51 284 51 c 256
47 770 m 256
 72 770 93 789 93 817 c 256
 93 844 72 863 47 863 c 256
 19 863 0 842 0 817 c 256
 0 789 21 770 47 770 c 256
EndSplineSet
EndChar
StartChar: uni0E44
Encoding: 3652 3652 277
Width: 379
VWidth: 1504
Flags: W
HStem: -12 63<217.172 300.341> 153 64<232.518 300.282> 721 21G<-12 61.6364>
VStem: -54 81<813.648 990.919> -12 59<823 920.04> 138 94<214 853> 138 70<60.1406 143.982> 310 63<60.6013 143.32>
Fore
259 217 m 0xed
 319 217 373 168 373 102 c 256
 373 35 319 -12 259 -12 c 0
 192 -12 138 37 138 110 c 2xe3
 138 853 l 1
 48 721 l 1
 -12 739 l 1xed
 -16 833 -30 921 -54 1002 c 1
 27 1002 l 1xf1
 39 923 46 863 47 823 c 1
 153 990 l 1
 185 985 232 956 232 904 c 2
 232 214 l 1
 237 216 246 217 259 217 c 0xed
259 51 m 256
 289 51 310 75 310 102 c 256
 310 132 286 153 259 153 c 256
 229 153 208 129 208 102 c 256
 208 72 232 51 259 51 c 256
EndSplineSet
EndChar
StartChar: uni0E45
Encoding: 3653 3653 278
Width: 314
VWidth: 1504
Flags: W
HStem: -211 21G<144 238> 532 80<-28.5941 109.239>
VStem: -167 90<415 484.202> 144 94<-211 496.403>
Fore
38 612 m 0
 120 612 238 577 238 439 c 2
 238 -211 l 1
 144 -211 l 1
 144 438 l 2
 144 494 104 532 38 532 c 256
 -29 532 -74 483 -77 415 c 1
 -167 415 l 1
 -161 529 -90 612 38 612 c 0
EndSplineSet
EndChar
StartChar: uni0E46
Encoding: 3654 3654 279
Width: 657
VWidth: 1504
Flags: W
HStem: -211 21G<480 573> 257 60<191.49 277.991> 429 60<227.455 276.233>
VStem: 108 71<329.591 417.253> 290 63<329.347 416.241> 480 93<-211 499.57>
Fore
414 621 m 1
 500 599 573 536 573 436 c 2
 573 -211 l 1
 480 -211 l 1
 480 435 l 2
 480 476 460 509 421 534 c 1
 352 480 l 1
 263 535 l 1
 246 524 234 509 227 489 c 1
 238 489 l 2
 305 489 353 436 353 373 c 256
 353 308 303 257 238 257 c 0
 148 257 108 339 108 412 c 0
 108 517 182 598 277 621 c 1
 349 564 l 1
 414 621 l 1
235 317 m 256
 264 317 290 341 290 373 c 256
 290 405 264 429 235 429 c 256
 202 429 179 403 179 373 c 256
 179 340 205 317 235 317 c 256
EndSplineSet
EndChar
StartChar: uni0E47
Encoding: 3655 3655 280
Width: 0
VWidth: 1504
Flags: MW
HStem: 705 46<-203.985 -142.293> 769 60<-341 -331> 817 45<-203.917 -142.693> 887 61<-393.889 -176.272>
VStem: -490 82<798.051 873.063> -248 42<790 813.958> -162 72<963.38 1048> -140 45<753.558 814.172>
Fore
-173 862 m 0xbe
 -127 862 -95 825 -95 784 c 256xbd
 -95 743 -126 705 -173 705 c 0
 -222 705 -278 726 -341 769 c 1
 -369 761 -407 722 -411 698 c 1
 -464 733 -490 776 -490 826 c 0
 -490 899 -431 948 -338 948 c 2
 -236 948 l 2
 -187 948 -162 970 -162 1014 c 2
 -162 1048 l 1
 -90 1048 l 1
 -90 1015 l 2
 -90 917 -170 887 -235 887 c 2
 -344 887 l 2
 -378 887 -408 864 -408 830 c 0
 -408 814 -405 801 -399 791 c 1
 -384 814 -361 827 -331 829 c 1
 -308 814 -280 801 -248 790 c 1
 -248 832 -211 862 -173 862 c 0xbe
-173 751 m 256
 -153 751 -140 766 -140 784 c 256
 -140 801 -154 817 -173 817 c 256
 -192 817 -206 801 -206 784 c 256
 -206 764 -191 751 -173 751 c 256
EndSplineSet
Substitution2: "Single Substitution lookup 42 subtable" uni0E47.alt1
Substitution2: "Single Substitution lookup 42 subtable" uni0E47.alt1
EndChar
StartChar: uni0E48
Encoding: 3656 3656 281
Width: 0
VWidth: 1504
Flags: W
VStem: -167 90<1018 1190 1018 1190 1018 1018>
Fore
-77 1018 m 1
 -167 1018 l 1
 -167 1190 l 1
 -77 1190 l 1
 -77 1018 l 1
EndSplineSet
Substitution2: "Single Substitution lookup 42 subtable" uni0E48.alt2
Substitution2: "Single Substitution lookup 42 subtable" uni0E48.alt2
EndChar
StartChar: uni0E49
Encoding: 3657 3657 282
Width: 0
VWidth: 1504
Flags: MW
HStem: 1003 50<-322 -280> 1221 49<-273.749 -204.358>
VStem: -325 47<1146.88 1216.74> -200 50<1147.17 1216.71> -45 78<1159.5 1256>
Fore
-217 1056 m 1
 -118 1076 -52 1155 -45 1256 c 1
 33 1256 l 1
 0 1083 -78 1003 -280 1003 c 2
 -322 1003 l 1
 -322 1053 l 1
 -282 1056 -257 1070 -248 1097 c 1
 -299 1110 -325 1139 -325 1185 c 0
 -325 1236 -284 1270 -238 1270 c 0
 -182 1270 -150 1232 -150 1181 c 0
 -150 1142 -172 1100 -217 1056 c 1
-239 1143 m 256
 -216 1143 -200 1161 -200 1182 c 256
 -200 1205 -218 1221 -239 1221 c 256
 -263 1221 -278 1204 -278 1182 c 256
 -278 1161 -262 1143 -239 1143 c 256
EndSplineSet
Substitution2: "Single Substitution lookup 42 subtable" uni0E49.alt2
Substitution2: "Single Substitution lookup 42 subtable" uni0E49.alt2
EndChar
StartChar: uni0E4A
Encoding: 3658 3658 283
Width: 0
VWidth: 1504
Flags: MW
HStem: 1005 43<-396.732 -326.202> 1125 45<-362.118 -328.047> 1203 55<-317 -302>
VStem: -444 44<1052.09 1120.58> -323 46<1051.12 1121.31> -179 54<1098.47 1189.13> -72 63<1133.06 1247>
Fore
-233 1258 m 1
 -174 1255 -125 1214 -125 1149 c 0
 -125 1121 -131 1096 -143 1074 c 1
 -96 1103 -72 1161 -72 1247 c 1
 -9 1247 l 1
 -13 1090 -89 1011 -238 1011 c 1
 -238 1054 l 1
 -199 1073 -179 1104 -179 1145 c 0
 -179 1174 -194 1192 -223 1200 c 1
 -269 1152 l 1
 -317 1203 l 1
 -334 1199 -350 1188 -363 1170 c 1
 -312 1170 -277 1133 -277 1086 c 0
 -277 1042 -311 1005 -360 1005 c 0
 -407 1005 -444 1036 -444 1092 c 0
 -444 1154 -404 1244 -302 1258 c 1
 -268 1218 l 1
 -233 1258 l 1
-361 1048 m 256
 -338 1048 -323 1063 -323 1086 c 256
 -323 1109 -338 1125 -361 1125 c 256
 -385 1125 -400 1108 -400 1086 c 256
 -400 1063 -384 1048 -361 1048 c 256
EndSplineSet
Substitution2: "Single Substitution lookup 42 subtable" uni0E4A.alt2
Substitution2: "Single Substitution lookup 42 subtable" uni0E4A.alt2
EndChar
StartChar: uni0E4B
Encoding: 3659 3659 284
Width: 0
VWidth: 1504
Flags: MW
HStem: 1085 61<-235 -162 -80 -2>
VStem: -162 82<1018 1085 1146 1209 1018 1209 1018 1018>
Fore
-2 1085 m 1
 -80 1085 l 1
 -80 1018 l 1
 -162 1018 l 1
 -162 1085 l 1
 -235 1085 l 1
 -235 1146 l 1
 -162 1146 l 1
 -162 1209 l 1
 -80 1209 l 1
 -80 1146 l 1
 -2 1146 l 1
 -2 1085 l 1
EndSplineSet
Substitution2: "Single Substitution lookup 42 subtable" uni0E4B.alt2
Substitution2: "Single Substitution lookup 42 subtable" uni0E4B.alt2
EndChar
StartChar: uni0E4C
Encoding: 3660 3660 285
Width: 0
VWidth: 1504
Flags: W
HStem: 961 53<-213.807 -144.039>
VStem: -269 52<1018.07 1086.99> -140 51<1017.84 1087.41> -77 62<1213.54 1256>
Fore
-179 961 m 256
 -233 961 -269 1005 -269 1053 c 0
 -269 1214 -77 1158 -77 1256 c 1
 -15 1256 l 1
 -22 1176 -71 1150 -138 1131 c 1
 -105 1115 -89 1088 -89 1051 c 0
 -89 1003 -127 961 -179 961 c 256
-177 1014 m 256
 -155 1014 -140 1031 -140 1051 c 256
 -140 1073 -155 1091 -177 1091 c 256
 -201 1091 -217 1073 -217 1051 c 256
 -217 1029 -199 1014 -177 1014 c 256
EndSplineSet
Substitution2: "Single Substitution lookup 42 subtable" uni0E4C.alt2
Substitution2: "Single Substitution lookup 42 subtable" uni0E4C.alt2
EndChar
StartChar: uni0E4D
Encoding: 3661 3661 286
Width: 0
VWidth: 1504
Flags: W
HStem: 699 67<-190.065 -96.5703> 887 67<-188.836 -96.6479>
VStem: -271 66<779.784 870.645> -83 66<780.105 872.402>
Fore
-143 954 m 256
 -73 954 -17 900 -17 826 c 0
 -17 752 -74 699 -143 699 c 0
 -218 699 -271 757 -271 826 c 256
 -271 896 -215 954 -143 954 c 256
-143 766 m 256
 -108 766 -83 792 -83 826 c 256
 -83 858 -107 887 -143 887 c 256
 -178 887 -205 858 -205 826 c 256
 -205 790 -176 766 -143 766 c 256
EndSplineSet
Substitution2: "Single Substitution lookup 42 subtable" uni0E4D.alt1
Substitution2: "Single Substitution lookup 42 subtable" uni0E4D.alt1
EndChar
StartChar: uni0E4E
Encoding: 3662 3662 287
Width: 0
VWidth: 1504
Flags: W
HStem: 684 58<-264.679 -185.971> 951 60<-193.325 -104.736>
VStem: -329 63<746.926 809.408> -263 66<886.845 945.159>
Fore
-263 915 m 0
 -263 978 -212 1011 -140 1011 c 0
 -112 1011 -85 1006 -59 996 c 1
 -81 940 l 1
 -101 947 -121 951 -141 951 c 0
 -178 951 -197 939 -197 915 c 0
 -197 888 -171 871 -119 866 c 1
 -143 809 l 1
 -162 816 -178 820 -191 820 c 0
 -241 820 -266 804 -266 772 c 0
 -266 752 -247 742 -209 742 c 0
 -194 742 -176 746 -153 755 c 1
 -153 698 l 1
 -174 689 -199 684 -229 684 c 0
 -282 684 -329 720 -329 773 c 0
 -329 822 -294 860 -248 868 c 1
 -258 883 -263 898 -263 915 c 0
EndSplineSet
Substitution2: "Single Substitution lookup 42 subtable" uni0E4E.alt1
Substitution2: "Single Substitution lookup 42 subtable" uni0E4E.alt1
EndChar
StartChar: uni0E4F
Encoding: 3663 3663 288
Width: 676
VWidth: 1504
Flags: W
HStem: -9 51<249.479 425.555> 95 54<276.954 398.45> 341 53<278.081 398.027> 447 52<250.62 429.976>
VStem: 84 53<155.754 335.088> 190 52<184.051 304.894> 435 52<184.425 304.051> 540 53<157.027 336.102>
Fore
338 149 m 256
 395 149 435 193 435 245 c 0
 435 296 394 341 338 341 c 256
 283 341 242 296 242 245 c 0
 242 189 286 149 338 149 c 256
338 394 m 256
 423 394 487 327 487 245 c 256
 487 165 424 95 338 95 c 256
 255 95 190 163 190 245 c 256
 190 331 259 394 338 394 c 256
338 42 m 256
 450 42 540 134 540 245 c 0
 540 354 456 447 338 447 c 0
 227 447 137 357 137 245 c 256
 137 130 229 42 338 42 c 256
593 245 m 0
 593 102 478 -9 338 -9 c 256
 200 -9 84 100 84 245 c 256
 84 387 197 499 338 499 c 0
 479 499 593 381 593 245 c 0
EndSplineSet
EndChar
StartChar: uni0E50
Encoding: 3664 3664 289
Width: 685
VWidth: 1504
Flags: W
HStem: -14 83<254.555 430.625> 370 83<254.226 433.11>
VStem: 77 100<140.504 295.889> 508 100<140.504 296.446>
Fore
343 69 m 256
 426 69 508 119 508 220 c 256
 508 311 437 370 343 370 c 256
 250 370 177 311 177 220 c 256
 177 119 260 69 343 69 c 256
608 220 m 256
 608 80 478 -14 343 -14 c 0
 205 -14 77 80 77 220 c 256
 77 360 206 453 343 453 c 0
 472 453 608 363 608 220 c 256
EndSplineSet
EndChar
StartChar: uni0E51
Encoding: 3665 3665 290
Width: 685
VWidth: 1504
Flags: W
HStem: -11 77<215.137 317.853> 235 60<289.071 372.417> 369 82<250.38 431.305>
VStem: 71 90<125.956 284.815> 215 65<141.51 225.897> 382 69<142.844 225.013> 525 89<80.3945 276.871>
Fore
341 451 m 0
 510 451 614 324 614 179 c 0
 614 99 587 29 534 -30 c 1
 423 -30 l 1
 491 35 525 105 525 179 c 0
 525 292 456 369 338 369 c 0
 239 369 161 300 161 209 c 0
 161 133 204 66 283 66 c 0
 298 66 313 69 328 74 c 1
 255 74 215 131 215 184 c 0
 215 248 271 295 329 295 c 0
 406 295 451 237 451 164 c 0
 451 59 373 -11 268 -11 c 0
 150 -11 71 88 71 206 c 0
 71 353 200 451 341 451 c 0
331 132 m 256
 359 132 382 153 382 184 c 256
 382 214 358 235 331 235 c 256
 301 235 280 211 280 184 c 256
 280 153 303 132 331 132 c 256
EndSplineSet
EndChar
StartChar: uni0E52
Encoding: 3666 3666 291
Width: 685
VWidth: 1504
Flags: W
HStem: 0 78<154.557 538.185> 108 57<251.133 327.167> 254 57<277.437 327.5> 375 79<291.672 374.337 472.091 536.71>
VStem: 59 91<83.352 98 98 538.542> 171 74<171.297 304.752> 334 57<171.256 247.779> 542 91<80.54 369.556>
Fore
514 454 m 0
 597 454 633 381 633 320 c 2
 633 105 l 2
 633 35 599 0 532 0 c 2
 143 0 l 2
 87 0 59 33 59 98 c 2
 59 523 l 2
 59 536 54 545 44 549 c 1
 43 549 34 550 17 552 c 1
 17 629 l 1
 103 629 150 606 150 522 c 2
 150 126 l 2
 150 94 164 78 193 78 c 2
 502 78 l 2
 529 78 542 90 542 114 c 2
 542 317 l 2
 542 354 531 372 508 372 c 0
 476 372 460 343 460 284 c 1
 400 284 l 1
 389 345 366 375 329 375 c 0
 299 375 278 343 277 311 c 1
 289 311 l 2
 348 311 391 266 391 211 c 0
 391 150 345 108 289 108 c 0
 210 108 171 153 171 244 c 0
 171 361 224 454 329 454 c 0
 378 454 411 435 426 396 c 1
 443 435 472 454 514 454 c 0
289 165 m 256
 314 165 334 183 334 209 c 256
 334 236 314 254 289 254 c 256
 263 254 245 236 245 209 c 256
 245 183 263 165 289 165 c 256
EndSplineSet
EndChar
StartChar: uni0E53
Encoding: 3667 3667 292
Width: 685
VWidth: 1504
Flags: W
HStem: -11 59<136.192 218.383> 146 65<142.375 217.618> 370 83<172.523 289.15 433.531 523.875>
VStem: 39 89<70.2531 222.419 197 310.131> 226 63<56.0205 136.55> 317 89<0 343.247> 539 87<0 356.928>
Fore
481 453 m 0
 581 453 626 374 626 287 c 2
 626 0 l 1
 539 0 l 1
 539 286 l 2
 539 343 519 372 478 372 c 0
 435 372 406 322 406 281 c 2
 406 0 l 1
 317 0 l 1
 317 281 l 2
 317 340 285 370 221 370 c 0
 152 370 123 286 123 197 c 1
 139 206 157 211 176 211 c 0
 238 211 289 167 289 101 c 0
 289 37 237 -11 174 -11 c 0
 66 -11 39 107 39 194 c 0
 39 333 104 453 226 453 c 0
 285 453 329 430 360 385 c 1
 388 431 428 454 481 453 c 0
176 48 m 256
 204 48 226 67 226 96 c 256
 226 126 203 146 176 146 c 256
 147 146 128 124 128 96 c 256
 128 67 148 48 176 48 c 256
EndSplineSet
EndChar
StartChar: uni0E54
Encoding: 3668 3668 293
Width: 685
VWidth: 1504
Flags: W
HStem: -11 77<186.932 316.951> 275 65<292.475 368.825> 373 83<209.562 444.689>
VStem: 29 93<135.836 299.696> 223 63<191.466 268.229> 376 66<191.359 268.211> 641 86<524.854 629>
Fore
397 140 m 1
 473 102 522 136 648 57 c 1
 605 -14 l 1
 548 13 502 27 465 27 c 0
 400 27 314 -11 250 -11 c 0
 119 -11 29 81 29 208 c 0
 29 373 136 456 350 456 c 0
 435 456 496 462 532 475 c 0
 591 496 628 548 641 629 c 1
 727 629 l 1
 704 520 662 447 600 411 c 0
 557 386 481 373 372 373 c 0
 225 373 122 352 122 214 c 0
 122 130 190 66 247 66 c 0
 253 66 291 72 361 83 c 1
 269 107 223 155 223 227 c 0
 223 299 279 340 334 340 c 0
 405 340 442 279 442 229 c 0
 442 194 427 164 397 140 c 1
331 185 m 256
 358 185 376 205 376 230 c 256
 376 257 356 275 331 275 c 256
 304 275 286 257 286 230 c 256
 286 205 304 185 331 185 c 256
EndSplineSet
EndChar
StartChar: uni0E55
Encoding: 3669 3669 294
Width: 685
VWidth: 1504
Flags: W
HStem: -11 77<186.932 316.951> 275 65<292.475 368.825> 373 107<331.865 409.504> 570 59<330.889 408.59>
VStem: 29 93<135.836 301.902> 223 63<191.466 268.229> 268 57<485.873 563.984> 376 66<191.359 268.211> 415 57<491.756 563.783> 641 86<523.333 629>
Fore
397 140 m 1xfd40
 475 101 520 137 648 57 c 1
 605 -14 l 1
 548 13 502 27 465 27 c 0
 400 27 314 -11 250 -11 c 0
 119 -11 29 81 29 208 c 0
 29 359 118 441 296 454 c 1
 277 473 268 497 268 526 c 256
 268 588 316 629 370 629 c 0
 427 629 472 587 472 526 c 0xfac0
 472 500 464 477 447 457 c 1
 548 467 620 500 641 629 c 1
 727 629 l 1
 704 520 662 447 600 411 c 0
 557 386 481 373 372 373 c 0
 225 373 122 352 122 214 c 0
 122 130 190 66 247 66 c 0
 253 66 291 72 361 83 c 1
 269 107 223 155 223 227 c 0
 223 299 279 340 334 340 c 0
 405 340 442 279 442 229 c 0
 442 194 427 164 397 140 c 1xfd40
331 185 m 256
 358 185 376 205 376 230 c 256
 376 257 356 275 331 275 c 256
 304 275 286 257 286 230 c 256xfd40
 286 205 304 185 331 185 c 256
370 480 m 256
 397 480 415 498 415 525 c 256
 415 552 397 570 370 570 c 256
 343 570 325 552 325 525 c 256xfac0
 325 498 343 480 370 480 c 256
EndSplineSet
EndChar
StartChar: uni0E56
Encoding: 3670 3670 295
Width: 685
VWidth: 1504
Flags: W
HStem: -14 85<259.53 458.953> 188 63<177.561 258.616> 369 84<239.034 473.3>
VStem: 104 66<97.9565 179.893> 268 63<97.998 179.147> 552 90<152.933 298.725>
Fore
370 453 m 0
 527 453 642 373 642 230 c 0
 642 70 508 -14 353 -14 c 0
 143 -14 104 75 104 135 c 0
 104 204 149 251 215 251 c 256
 285 251 331 199 331 138 c 0
 331 110 324 88 311 72 c 1
 318 71 330 71 346 71 c 0
 459 71 552 123 552 227 c 0
 552 323 466 369 373 369 c 0
 264 369 186 337 140 274 c 1
 108 274 l 1
 104 401 99 521 17 629 c 1
 119 629 l 1
 155 564 176 491 181 412 c 1
 224 439 287 453 370 453 c 0
218 90 m 256
 246 90 268 109 268 138 c 256
 268 168 245 188 218 188 c 256
 189 188 170 166 170 138 c 256
 170 109 190 90 218 90 c 256
EndSplineSet
EndChar
StartChar: uni0E57
Encoding: 3671 3671 296
Width: 685
VWidth: 1504
Flags: W
HStem: -6 63<112.984 197.538> 161 62<124.153 196.73> 375 78<142.726 229.49 358.321 425.114>
VStem: 21 89<80.934 245.495 211 339.502> 208 66<67.8336 150.09> 248 90<221 355.196> 444 87<168.566 356.163> 572 85<172.399 329 329 523.986>
Fore
693 629 m 1xfb
 649 562 657 476 657 347 c 0
 657 120 597 -5 382 -5 c 1
 423 106 444 202 444 283 c 0
 444 324 424 375 394 375 c 0
 359 375 338 327 338 281 c 2
 338 221 l 1
 248 221 l 1
 248 278 l 2xf7
 248 343 226 375 181 375 c 0
 129 375 110 296 110 227 c 2
 110 211 l 1
 128 219 144 223 158 223 c 0
 219 223 274 175 274 105 c 0
 274 41 226 -6 158 -6 c 0
 61 -6 21 93 21 212 c 0
 21 340 70 453 177 453 c 0
 232 453 270 433 292 394 c 1
 315 433 347 453 388 453 c 0
 483 453 531 374 531 269 c 0
 531 217 523 163 508 107 c 1
 551 135 572 209 572 329 c 0
 572 486 582 586 602 629 c 1
 693 629 l 1xfb
155 57 m 256
 182 57 208 78 208 108 c 256xfb
 208 138 182 161 155 161 c 256
 125 161 104 135 104 108 c 256
 104 78 128 57 155 57 c 256
EndSplineSet
EndChar
StartChar: uni0E58
Encoding: 3672 3672 297
Width: 685
VWidth: 1504
Flags: MW
HStem: -12 75<470.906 555.589> 102 91<281 307> 171 74<470.57 555.783> 373 80<195.764 422.389> 586 20G<561 648.5>
VStem: 35 85<126.682 306.729> 390 69<126 160.09> 561 89<513.301 605.623> 567 74<74.5051 158.42 596.687 606>
Fore
513 245 m 0xbf
 588 245 641 186 641 117 c 0xbe80
 641 51 587 -12 513 -12 c 0
 441 -12 364 26 281 102 c 1
 235 85 173 18 165 -24 c 1
 78 35 35 119 35 226 c 0
 35 408 128 453 340 453 c 0
 417 453 471 460 501 474 c 0
 541 494 561 534 561 593 c 2
 561 606 l 1
 648 606 l 1
 649 598 650 587 650 573 c 0
 650 395 516 373 307 373 c 0
 182 373 120 323 120 223 c 0
 120 162 134 123 162 105 c 1
 184 151 255 193 307 193 c 1
 330 162 357 140 390 126 c 1
 391 196 453 245 513 245 c 0xbf
513 63 m 256
 544 63 567 89 567 117 c 0
 567 144 544 171 513 171 c 256
 481 171 459 145 459 117 c 0
 459 89 481 63 513 63 c 256
EndSplineSet
EndChar
StartChar: uni0E59
Encoding: 3673 3673 298
Width: 685
VWidth: 1504
Flags: W
HStem: -11 59<213.758 296.492> 146 60<213.844 294.965> 326 82<530.156 590.489> 370 83<184.694 327.129 453.828 510.401>
VStem: 36 89<158.295 303.559> 304 59<55.5986 136.759> 599 72<410.652 548.132>
Fore
453 343 m 0xee
 453 267 599 71 660 42 c 1
 599 -15 l 1
 526 42 457 135 393 262 c 2
 375 302 l 2
 361 334 307 370 247 370 c 256
 169 370 125 288 125 223 c 0
 125 188 133 155 150 126 c 1
 165 179 201 206 256 206 c 0
 312 206 363 160 363 98 c 0
 363 38 313 -11 256 -11 c 0
 124 -11 36 96 36 221 c 0
 36 355 134 453 256 453 c 0xde
 312 453 358 436 394 403 c 1
 405 435 426 451 457 451 c 0
 497 451 530 408 570 408 c 0
 589 408 599 436 599 493 c 0
 599 544 593 587 581 624 c 1
 654 624 l 1
 665 574 671 525 671 478 c 0
 671 377 642 326 584 326 c 0
 550 326 503 372 480 372 c 0
 462 372 453 362 453 343 c 0xee
254 48 m 256
 282 48 304 67 304 96 c 256
 304 126 281 146 254 146 c 256
 225 146 206 124 206 96 c 256
 206 67 226 48 254 48 c 256
EndSplineSet
EndChar
StartChar: uni0E5A
Encoding: 3674 3674 299
Width: 789
VWidth: 1504
Flags: W
HStem: 0 21G<400 493 627 721> 375 70<108.205 192.193> 548 64<109.761 191.694>
VStem: 36 63<455.35 538.112> 202 64<474.432 536.952> 400 93<0 391 475 513.419> 627 94<0 513.419>
Fore
150 612 m 256
 218 612 266 560 266 496 c 0
 266 491 265 484 263 474 c 1
 296 499 316 541 323 600 c 1
 391 600 l 2
 459 600 493 564 493 492 c 2
 493 475 l 1
 526 501 545 543 551 600 c 1
 618 600 l 2
 687 600 721 564 721 492 c 2
 721 0 l 1
 627 0 l 1
 627 474 l 2
 627 510 622 529 611 531 c 1
 605 465 566 418 493 391 c 1
 493 0 l 1
 400 0 l 1
 400 474 l 2
 400 510 395 529 384 531 c 1
 375 428 268 375 179 375 c 0
 108 375 36 412 36 496 c 0
 36 564 87 612 150 612 c 256
150 445 m 256
 180 445 202 469 202 496 c 256
 202 526 177 548 150 548 c 256
 123 548 99 526 99 496 c 256
 99 466 123 445 150 445 c 256
EndSplineSet
EndChar
StartChar: uni0E5B
Encoding: 3675 3675 300
Width: 1048
VWidth: 1504
Flags: W
HStem: 36 50<244.104 405.01> 194 41<283.725 359.72> 253 16<917.913 973.975> 319 41<283.284 360.289> 465 15<245 256 283 294.453> 465 6<232.347 238.998 242 245 256 259 263 277 280 283 305.69 318.399> 472 18<224.916 235.062> 481 9<236 239 283 291.796 326 334.888> 492 19<221.316 298.437 242 245 256 259 263 266 280 294.453 263.588 338.297 323 337.609 343 346 353 357.969>
VStem: 116 54<167.326 390.866> 224 18<472.562 489.438> 239 3<471.975 478> 241 39<238.73 315.491> 245 11<471 481 483 492> 259 4<471 492> 266 14<474 492> 277 3<471 474> 283 9<481.204 489.888> 295 10<482.906 491.225> 308 9<472.211 477 486 489.888> 319 4<471.475 480.094 486 491.625> 326 17<471 480> 326 9<481.023 489.988> 338 5<480.475 491.525> 387 52<330.976 369> 501 41<197.661 323> 721 96<242.643 325.592 326.502 382> 728 26<290.455 331>
Fore
283 481 m 1xf1c078c0
 283 490 l 1
 287 490 l 2
 290 490 292 489 292 486 c 256
 292 483 290 481 287 481 c 2
 283 481 l 1xf1c078c0
283 471 m 1xf4c0f8c0
 283 480 l 1
 287 480 l 2
 292 480 295 482 295 486 c 256
 295 490 292 492 287 492 c 2
 280 492 l 1xf8c178c0
 280 471 l 1
 283 471 l 1xf4c0f8c0
326 481 m 1xf1c07ac0
 326 490 l 1
 331 490 l 2
 334 490 335 489 335 486 c 256
 335 483 334 481 331 481 c 2
 326 481 l 1xf1c07ac0
277 471 m 1xf4c2f8c0
 277 474 l 1xf4c2f8c0
 266 474 l 1
 266 492 l 1xf4c178c0
 263 492 l 1
 263 471 l 1
 277 471 l 1xf4c2f8c0
236 478 m 1
 236 474 234 472 230 472 c 256xf6d078c0
 226 472 224 475 224 481 c 256xf1e078c0
 224 487 226 490 230 490 c 0xf2e078c0
 233 490 235 488 236 484 c 1
 239 484 l 1
 237 489 234 492 230 492 c 0
 224 492 221 488 221 481 c 256
 221 474 224 471 230 471 c 256
 236 471 239 473 239 478 c 1xf5d078c0
 236 478 l 1
319 486 m 1
 319 490 317 492 313 492 c 0
 308 492 305 490 305 486 c 1
 308 483 312 480 317 477 c 1
 317 474 316 472 313 472 c 256xf2c078c0
 310 472 308 474 308 478 c 1
 305 478 l 1
 305 473 308 471 313 471 c 256
 318 471 320 473 320 477 c 1
 317 480 313 483 308 486 c 1
 308 489 310 490 313 490 c 1xf5c078c0
 315 488 316 487 316 486 c 1
 319 486 l 1
259 471 m 1xf5d678c0
 259 492 l 1
 256 492 l 1
 256 483 l 1
 245 483 l 1
 245 492 l 1
 242 492 l 1
 242 471 l 1
 245 471 l 1
 245 481 l 1
 256 481 l 1
 256 471 l 1
 259 471 l 1xf5d678c0
358 471 m 1
 350 483 l 1
 358 492 l 1
 353 492 l 1
 346 481 l 1
 346 492 l 1
 343 492 l 1xf5c079c0
 343 471 l 1xf5c07cc0
 346 471 l 1
 346 478 l 1
 349 481 l 1
 353 471 l 1
 358 471 l 1
326 471 m 1xf4c07cc0
 326 480 l 1xf8c07cc0
 331 480 l 2
 336 480 338 482 338 486 c 256xf8c079c0
 338 490 336 492 331 492 c 2
 323 492 l 1
 323 471 l 1
 326 471 l 1xf4c07cc0
322 235 m 256
 350 235 364 249 364 277 c 256
 364 305 350 319 322 319 c 256
 294 319 280 305 280 277 c 256xf0c878c0
 280 249 294 235 322 235 c 256
827 349 m 1
 856 342 913 269 999 269 c 2
 1006 269 l 1
 986 258 966 253 945 253 c 0
 912 253 882 265 857 290 c 1
 851 242 837 215 815 208 c 1
 793 208 772 311 754 331 c 1xf4c078d0
 754 239 740 193 713 193 c 0
 697 193 678 296 656 323 c 1
 650 225 631 176 599 176 c 0
 584 176 559 301 542 323 c 1
 542 132 467 36 317 36 c 0
 187 36 116 134 116 275 c 0
 116 411 169 511 293 511 c 0
 385 511 439 452 439 356 c 0
 439 265 400 194 322 194 c 0
 275 194 241 235 241 277 c 0
 241 320 273 360 322 360 c 0
 348 360 370 350 387 329 c 1
 387 332 l 1
 390 369 l 2
 395 433 364 465 298 465 c 0
 204 465 170 373 170 268 c 0
 170 153 234 86 317 86 c 0
 448 86 501 191 501 334 c 0
 501 365 499 389 496 405 c 1
 553 394 590 340 609 245 c 1
 618 274 623 302 623 329 c 0
 623 348 619 373 611 402 c 1
 653 390 690 346 721 271 c 1xf4c878e0
 726 296 728 314 728 326 c 0xf4c078d0
 728 335 726 354 721 382 c 1
 764 370 796 328 817 256 c 1xf4c078e0
 827 269 832 286 832 308 c 0
 832 320 830 334 827 349 c 1
EndSplineSet
EndChar
StartChar: zerowidthnonjoiner
Encoding: 8204 8204 301
Width: 0
VWidth: 1504
Flags: W
VStem: -26 53<-376 432>
Fore
27 -376 m 1
 -26 -376 l 1
 -26 432 l 1
 27 432 l 1
 27 -376 l 1
EndSplineSet
EndChar
StartChar: zerowidthjoiner
Encoding: 8205 8205 302
Width: 0
VWidth: 1504
Flags: W
VStem: -26 53<-376 298>
Fore
27 -376 m 1
 -26 -376 l 1
 -26 298 l 1
 -56 268 l 1
 -81 293 l 1
 -26 349 l 1
 -81 408 l 1
 -54 432 l 1
 0 376 l 1
 56 432 l 1
 83 408 l 1
 27 349 l 1
 83 293 l 1
 56 268 l 1
 27 298 l 1
 27 -376 l 1
EndSplineSet
EndChar
StartChar: lefttorightmark
Encoding: 8206 8206 303
Width: 0
VWidth: 1504
Flags: W
HStem: 326 53<27 173>
VStem: -26 53<-376 326>
Fore
27 -376 m 1
 -26 -376 l 1
 -26 379 l 1
 173 379 l 1
 147 406 l 1
 171 430 l 1
 250 352 l 1
 171 274 l 1
 147 299 l 1
 173 326 l 1
 27 326 l 1
 27 -376 l 1
EndSplineSet
EndChar
StartChar: righttoleftmark
Encoding: 8207 8207 304
Width: 0
VWidth: 1504
Flags: W
HStem: 326 53<-171 -26>
VStem: -26 53<-376 326>
Fore
27 -376 m 1
 -26 -376 l 1
 -26 326 l 1
 -171 326 l 1
 -146 299 l 1
 -170 274 l 1
 -248 352 l 1
 -170 430 l 1
 -168 427.333 -164.5 423.5 -159.5 418.5 c 0
 -154.5 413.5 -150 409.333 -146 406 c 1
 -171 379 l 1
 27 379 l 1
 27 -376 l 1
EndSplineSet
EndChar
StartChar: endash
Encoding: 8211 8211 305
Width: 503
VWidth: 1504
Flags: MW
HStem: 236 81<14 490>
Fore
490 236 m 1
 14 236 l 1
 14 317 l 1
 490 317 l 1
 490 236 l 1
EndSplineSet
EndChar
StartChar: emdash
Encoding: 8212 8212 306
Width: 1042
VWidth: 1504
Flags: MW
HStem: 236 81<14 1029>
Fore
1029 236 m 1
 14 236 l 1
 14 317 l 1
 1029 317 l 1
 1029 236 l 1
EndSplineSet
EndChar
StartChar: quoteleft
Encoding: 8216 8216 307
Width: 380
VWidth: 1504
Flags: MW
HStem: 493 137<174.5 195.5 174.5 195.5>
VStem: 108 139<561 561>
Fore
177 630 m 0
 214 630 247 602 247 561 c 256
 247 520 214 493 177 493 c 256
 139 493 111 521 108 561 c 0
 109 621 124 669 153 706 c 0
 182 743 207 766 230 775 c 1
 253 749 l 1
 202 716 172 676 164 629 c 1
 169 629 172 630 177 630 c 0
EndSplineSet
EndChar
StartChar: quoteright
Encoding: 8217 8217 308
Width: 380
VWidth: 1504
Flags: MW
HStem: 617 137<182.5 206>
VStem: 134 138<686 686>
Fore
203 754 m 256
 241 754 271 725 272 686 c 0
 271 626 257 578 228 541 c 0
 199 504 173 481 150 472 c 1
 128 498 l 1
 179 531 209 571 217 618 c 1
 211 618 209 617 203 617 c 0
 162 617 134 650 134 686 c 256
 134 723 162 754 203 754 c 256
EndSplineSet
EndChar
StartChar: quotesinglbase
Encoding: 8218 8218 309
Width: 380
VWidth: 1504
Flags: MW
HStem: -6 137<184 206>
VStem: 134 138<63 63>
Fore
203 131 m 256
 244 131 271 100 272 63 c 0
 271 3 257 -45 228 -82 c 0
 199 -119 173 -141 150 -150 c 1
 128 -125 l 1
 179 -92 209 -52 217 -5 c 1
 211 -5 209 -6 203 -6 c 0
 162 -6 134 26 134 63 c 256
 134 104 165 131 203 131 c 256
EndSplineSet
EndChar
StartChar: quotedblleft
Encoding: 8220 8220 310
Width: 577
VWidth: 1504
Flags: W
HStem: 493 136<164.91 170.5 170.5 228.234 362.616 368 368 425.337>
VStem: 108 139<512 610.875> 305 139<512.753 611.291>
Fore
177 630 m 0
 214 630 247 602 247 561 c 256
 247 520 214 493 177 493 c 256
 139 493 111 521 108 561 c 0
 109 621 124 669 153 706 c 0
 182 743 207 766 230 775 c 1
 253 749 l 1
 202 716 172 676 164 629 c 1
 169 629 172 630 177 630 c 0
375 630 m 0
 412 630 444 602 444 561 c 256
 444 520 411 493 375 493 c 256
 336 493 308 522 305 561 c 0
 306 621 321 669 350 706 c 0
 379 743 404 766 427 775 c 1
 450 749 l 1
 399 716 369 676 361 629 c 1
 367 629 369 630 375 630 c 0
EndSplineSet
EndChar
StartChar: quotedblright
Encoding: 8221 8221 311
Width: 577
VWidth: 1504
Flags: W
HStem: 617 137<153.125 210 210 216.834 349.366 407 407 413.834>
VStem: 134 138<635.709 735.021> 331 138<635.709 735.747>
Fore
203 754 m 256
 241 754 271 725 272 686 c 0
 271 626 257 578 228 541 c 0
 199 504 173 481 150 472 c 1
 128 498 l 1
 179 531 209 571 217 618 c 1
 211 618 209 617 203 617 c 0
 162 617 134 650 134 686 c 256
 134 723 162 754 203 754 c 256
400 754 m 256
 438 754 468 725 469 686 c 0
 468 626 454 578 425 541 c 0
 396 504 370 481 347 472 c 1
 325 498 l 1
 376 531 406 571 414 618 c 1
 408 618 406 617 400 617 c 0
 363 617 331 645 331 686 c 256
 331 722 360 754 400 754 c 256
EndSplineSet
EndChar
StartChar: quotedblbase
Encoding: 8222 8222 312
Width: 577
VWidth: 1504
Flags: W
HStem: -6 137<152.003 210 210 215.935 350.5 407 407 412.935>
VStem: 134 138<12.7092 112.375> 331 138<12.7092 112.375>
Fore
203 131 m 256
 244 131 271 100 272 63 c 0
 271 3 257 -45 228 -82 c 0
 199 -119 173 -141 150 -150 c 1
 128 -125 l 1
 179 -92 209 -52 217 -5 c 1
 211 -5 209 -6 203 -6 c 0
 162 -6 134 26 134 63 c 256
 134 104 165 131 203 131 c 256
400 131 m 256
 441 131 468 100 469 63 c 0
 468 3 454 -45 425 -82 c 0
 396 -119 370 -141 347 -150 c 1
 325 -125 l 1
 376 -92 406 -52 414 -5 c 1
 408 -5 406 -6 400 -6 c 0
 360 -6 331 27 331 63 c 256
 331 104 364 131 400 131 c 256
EndSplineSet
EndChar
StartChar: dagger
Encoding: 8224 8224 313
Width: 571
VWidth: 1504
Flags: W
HStem: 421 72<59 153.5 153.5 153.5 153.5 248 323 418 418 418 418 513>
VStem: 248 75<-50 427 487 714>
Fore
323 -50 m 1
 248 -50 l 1
 248 427 l 1
 59 421 l 1
 59 493 l 1
 248 487 l 1
 248 714 l 1
 323 714 l 1
 323 487 l 1
 513 493 l 1
 513 421 l 1
 323 427 l 1
 323 -50 l 1
EndSplineSet
EndChar
StartChar: daggerdbl
Encoding: 8225 8225 314
Width: 571
VWidth: 1504
Flags: W
HStem: 164 71<59 153.5 153.5 153.5 153.5 248 323 418 418 418 418 513> 421 72<59 153.5 153.5 153.5 153.5 248 323 418 418 418 418 513>
VStem: 248 75<-50 168 229 427 487 714>
Fore
323 -50 m 1
 248 -50 l 1
 248 168 l 1
 59 164 l 1
 59 235 l 1
 248 229 l 1
 248 427 l 1
 59 421 l 1
 59 493 l 1
 248 487 l 1
 248 714 l 1
 323 714 l 1
 323 487 l 1
 513 493 l 1
 513 421 l 1
 323 427 l 1
 323 229 l 1
 513 235 l 1
 513 164 l 1
 323 168 l 1
 323 -50 l 1
EndSplineSet
EndChar
StartChar: bullet
Encoding: 8226 8226 315
Width: 339
VWidth: 1504
Flags: W
HStem: 174 253<99.6926 239.422>
VStem: 44 252<228.413 370.311>
Fore
170 427 m 0
 243 427 296 368 296 301 c 0
 296 227 239 174 170 174 c 256
 95 174 44 233 44 301 c 256
 44 369 96 427 170 427 c 0
EndSplineSet
EndChar
StartChar: ellipsis
Encoding: 8230 8230 316
Width: 758
VWidth: 1504
Flags: W
HStem: -14 145<78.0743 181.25 328.074 429.926 578.074 679.926>
VStem: 57 145<7.59771 109.926> 307 144<7.36134 110.478> 557 144<7.36134 110.478>
Fore
129 131 m 256
 171 131 202 98 202 59 c 256
 202 16 168 -14 129 -14 c 256
 86 -14 57 22 57 59 c 256
 57 102 91 131 129 131 c 256
379 131 m 256
 422 131 451 97 451 59 c 256
 451 17 418 -14 379 -14 c 256
 336 -14 307 22 307 59 c 256
 307 102 341 131 379 131 c 256
629 131 m 256
 672 131 701 97 701 59 c 256
 701 17 668 -14 629 -14 c 256
 586 -14 557 22 557 59 c 256
 557 102 591 131 629 131 c 256
EndSplineSet
EndChar
StartChar: perthousand
Encoding: 8240 8240 317
Width: 1462
VWidth: 1504
Flags: W
HStem: -12 81<740.034 852.569 1167.03 1279.57> 289 81<183.158 292.353> 350 79<740.034 852.569 1167.03 1279.57> 650 80<183.158 292.353>
VStem: 59 90<405.804 612.449> 326 89<406.899 611.325> 617 90<106.84 311.504> 886 90<106.84 311.504> 1044 90<106.84 311.504> 1313 90<106.84 311.504>
Fore
326 -14 m 1x9fc0
 235 -14 l 1
 693 716 l 1
 785 716 l 1
 326 -14 l 1x9fc0
415 508 m 0
 415 362 355 289 236 289 c 0xdfc0
 118 289 59 362 59 508 c 0
 59 656 118 730 236 730 c 0
 355 730 415 656 415 508 c 0
326 508 m 0
 326 603 296 650 236 650 c 0
 178 650 149 603 149 508 c 0
 149 416 178 370 236 370 c 0
 296 370 326 416 326 508 c 0
976 209 m 0
 976 62 916 -12 796 -12 c 0
 677 -12 617 62 617 209 c 0
 617 356 677 429 796 429 c 0xbfc0
 916 429 976 356 976 209 c 0
886 209 m 0
 886 303 856 350 796 350 c 0
 737 350 707 303 707 209 c 0
 707 116 737 69 796 69 c 0
 856 69 886 116 886 209 c 0
1403 209 m 0
 1403 62 1343 -12 1223 -12 c 0
 1104 -12 1044 62 1044 209 c 0
 1044 356 1104 429 1223 429 c 0
 1343 429 1403 356 1403 209 c 0
1313 209 m 0
 1313 303 1283 350 1223 350 c 0
 1164 350 1134 303 1134 209 c 0
 1134 116 1164 69 1223 69 c 0
 1283 69 1313 116 1313 209 c 0
EndSplineSet
EndChar
StartChar: minute
Encoding: 8242 8242 318
Width: 197
VWidth: 1504
Flags: W
HStem: 558 158<68 84 84 84>
Fore
68 558 m 1
 27 558 l 1
 84 716 l 1
 167 716 l 1
 68 558 l 1
EndSplineSet
EndChar
StartChar: second
Encoding: 8243 8243 319
Width: 330
VWidth: 1504
Flags: W
HStem: 558 158<68 84 84 84>
Fore
68 558 m 1
 27 558 l 1
 84 716 l 1
 167 716 l 1
 68 558 l 1
202 558 m 1
 161 558 l 1
 218 716 l 1
 301 716 l 1
 202 558 l 1
EndSplineSet
EndChar
StartChar: guilsinglleft
Encoding: 8249 8249 320
Width: 351
VWidth: 1504
Flags: MW
Fore
307 71 m 1
 217 71 l 1
 45 269 l 1
 214 474 l 1
 305 474 l 1
 135 269 l 1
 307 71 l 1
EndSplineSet
EndChar
StartChar: guilsinglright
Encoding: 8250 8250 321
Width: 351
VWidth: 1504
Flags: MW
Fore
135 71 m 1
 45 71 l 1
 217 271 l 1
 47 474 l 1
 137 474 l 1
 307 269 l 1
 135 71 l 1
EndSplineSet
EndChar
StartChar: fraction
Encoding: 8260 8260 322
Width: 221
VWidth: 1504
Flags: MW
HStem: 0 21G<-81 17.3008> 698 20G<209.671 307>
Fore
9 0 m 1
 -81 0 l 1
 218 718 l 1
 307 718 l 1
 9 0 l 1
EndSplineSet
EndChar
StartChar: Euro
Encoding: 8364 8364 323
Width: 779
VWidth: 1504
Flags: W
HStem: -14 85<383.547 649.767> 215 81<44 114 235 602> 406 80<44 114 232 602> 599 21G<673 707.905> 645 83<386.357 647.163>
VStem: 114 94<296 351.023 351.023 351.023 351.023 406>
Fore
508 71 m 0
 582 71 644 86 698 111 c 1
 734 38 l 1
 671 8 580 -14 490 -14 c 0
 348 -14 199 82 135 215 c 1
 44 215 l 1
 44 296 l 1
 114 296 l 1
 111 333 111 370 114 406 c 1
 44 406 l 1
 44 486 l 1
 135 486 l 1
 199 622 332 728 516 728 c 0
 584 728 655 713 730 683 c 1
 701 599 l 1
 645 630 584 645 519 645 c 0
 370 645 277 582 232 486 c 1
 602 486 l 1
 602 406 l 1
 206 406 l 1
 202 370 203 333 208 296 c 1
 602 296 l 1
 602 215 l 1
 235 215 l 1
 265 164 344 71 508 71 c 0
EndSplineSet
EndChar
StartChar: uni2113
Encoding: 8467 8467 324
Width: 382
VWidth: 1504
Flags: MW
HStem: -8 79<172.508 258.061> 599 78<191.777 243.76>
VStem: 102 86<75.338 113 113 275 421 595.347> 250 84<472.353 595.16>
Fore
218 71 m 0
 249 71 289 120 296 128 c 1
 320 66 l 1
 291 33 241 -8 188 -8 c 0
 154 -8 102 13 102 113 c 2
 102 275 l 1
 51 241 l 1
 15 301 l 1
 102 355 l 1
 102 540 l 2
 102 655 179 677 218 677 c 0
 277 677 334 635 334 551 c 0
 334 434 243 363 188 322 c 1
 188 119 l 2
 188 83 200 71 218 71 c 0
188 421 m 1
 205 436 250 488 250 542 c 0
 250 585 236 599 215 599 c 0
 193 599 188 584 188 540 c 2
 188 421 l 1
EndSplineSet
EndChar
StartChar: trademark
Encoding: 8482 8482 325
Width: 914
VWidth: 1504
Flags: MW
HStem: 651 63<32 182 250 400>
VStem: 182 68<271 651>
Fore
250 271 m 1
 182 271 l 1
 182 651 l 1
 32 651 l 1
 32 714 l 1
 400 714 l 1
 400 651 l 1
 250 651 l 1
 250 271 l 1
875 271 m 1
 806 271 l 1
 788 588 l 1
 663 271 l 1
 612 271 l 1
 492 588 l 1
 469 271 l 1
 403 271 l 1
 430 714 l 1
 504 714 l 1
 639 366 l 1
 775 714 l 1
 847 714 l 1
 875 271 l 1
EndSplineSet
EndChar
StartChar: Ohm
Encoding: 8486 8486 326
Width: 715
VWidth: 1504
Flags: W
HStem: 0 81<48 226 492 669> 603 81<267.2 449.282>
VStem: 68 94<309.678 495.346> 226 82<81 140> 409 83<81 140> 555 95<308.439 497.264>
Fore
650 400 m 0
 650 244 544 162 492 140 c 1
 492 81 l 1
 669 81 l 1
 669 0 l 1
 409 0 l 1
 409 197 l 1
 506 240 555 310 555 405 c 0
 555 522 470 603 360 603 c 256
 244 603 162 517 162 405 c 0
 162 310 211 240 308 197 c 1
 308 0 l 1
 48 0 l 1
 48 81 l 1
 226 81 l 1
 226 140 l 1
 157 174 68 273 68 400 c 0
 68 627 234 684 360 684 c 0
 527 684 650 588 650 400 c 0
EndSplineSet
EndChar
StartChar: estimated
Encoding: 8494 8494 327
Width: 524
VWidth: 1504
Flags: W
HStem: -11 79<204.087 319.912> 278 77<149 373> 504 77<202.872 319.509>
VStem: 57 89<145.921 278 355 438.137> 375 85<102.185 182>
Fore
373 355 m 1
 362 454 325 504 262 504 c 256
 199 504 161 454 149 355 c 1
 373 355 l 1
262 68 m 0
 326 68 359 132 375 182 c 1
 460 182 l 1
 431 53 365 -11 262 -11 c 0
 125 -11 57 94 57 304 c 0
 57 536 180 581 262 581 c 0
 424 581 462 419 465 278 c 1
 146 278 l 1
 151 185 169 68 262 68 c 0
EndSplineSet
EndChar
StartChar: partialdiff
Encoding: 8706 8706 328
Width: 524
VWidth: 1504
Flags: W
HStem: -8 94<167.503 271.452> 356 85<272.07 379> 596 88<272.341 353.161>
VStem: 51 102<99.2875 249.128> 379 95<268.85 356 441 560.637>
Fore
51 162 m 0
 51 329 187 441 369 441 c 2
 382 441 l 1
 377 544 356 596 317 596 c 0
 280 596 250 560 226 487 c 1
 143 532 l 1
 189 633 247 684 316 684 c 0
 421 684 474 597 474 423 c 0
 474 239 384 -8 199 -8 c 0
 136 -8 51 35 51 162 c 0
379 356 m 1
 369 356 l 2
 236 356 153 265 153 162 c 256
 153 111 174 86 215 86 c 0
 310 86 364 238 379 356 c 1
EndSplineSet
EndChar
StartChar: Delta
Encoding: 8710 8710 329
Width: 722
VWidth: 1504
Flags: W
HStem: 0 71<131 591>
Fore
591 71 m 1
 361 543 l 1
 131 71 l 1
 591 71 l 1
718 0 m 1
 5 0 l 1
 361 710 l 1
 718 0 l 1
EndSplineSet
EndChar
StartChar: product
Encoding: 8719 8719 330
Width: 741
VWidth: 1504
Flags: W
HStem: 635 81<176 566>
VStem: 80 96<-113 635> 566 94<-113 635>
Fore
660 -113 m 1
 566 -113 l 1
 566 635 l 1
 176 635 l 1
 176 -113 l 1
 80 -113 l 1
 80 716 l 1
 660 716 l 1
 660 -113 l 1
EndSplineSet
EndChar
StartChar: summation
Encoding: 8721 8721 331
Width: 627
VWidth: 1504
Flags: W
HStem: -113 81<134 611> 635 81<134 588>
Fore
611 -113 m 1
 38 -113 l 1
 38 -24 l 1
 316 320 l 1
 38 629 l 1
 38 716 l 1
 588 716 l 1
 588 635 l 1
 134 635 l 1
 405 352 l 1
 405 299 l 1
 134 -32 l 1
 611 -32 l 1
 611 -113 l 1
EndSplineSet
EndChar
StartChar: minus
Encoding: 8722 8722 332
Width: 627
VWidth: 1504
Flags: MW
HStem: 236 81<95 531>
Fore
531 236 m 1
 95 236 l 1
 95 317 l 1
 531 317 l 1
 531 236 l 1
EndSplineSet
EndChar
StartChar: radical
Encoding: 8730 8730 333
Width: 582
VWidth: 1504
Flags: W
HStem: -15 21G<219.718 303.641> 332 73<36 117>
Fore
296 -15 m 1
 226 -15 l 1
 117 332 l 1
 36 332 l 1
 36 405 l 1
 184 405 l 1
 266 116 l 1
 481 710 l 1
 573 710 l 1
 296 -15 l 1
EndSplineSet
EndChar
StartChar: infinity
Encoding: 8734 8734 334
Width: 950
VWidth: 1504
Flags: W
HStem: 153 77<187.466 336.585 618.34 760.021> 426 75<189.002 330.641 613.121 759.493>
VStem: 71 84<262.903 391.96> 796 84<262.982 391.303>
Fore
262 426 m 0
 176 426 155 368 155 332 c 0
 155 264 191 230 263 230 c 0
 318 230 371 264 420 331 c 1
 359 394 307 426 262 426 c 0
687 501 m 0
 805 501 880 432 880 319 c 0
 880 255 845 153 689 153 c 0
 618 153 545 193 471 272 c 1
 411 193 341 153 262 153 c 0
 146 153 71 223 71 335 c 0
 71 399 103 501 260 501 c 0
 327 501 400 462 478 384 c 1
 539 462 609 501 687 501 c 0
687 229 m 0
 772 229 796 285 796 322 c 0
 796 390 759 424 686 424 c 0
 628 424 576 390 531 323 c 1
 592 260 644 229 687 229 c 0
EndSplineSet
EndChar
StartChar: integral
Encoding: 8747 8747 335
Width: 373
VWidth: 1504
Flags: MW
HStem: -147 84<-49.4876 37.0181> 648 79<268.78 356.421>
Fore
147 -2 m 2
 131 -99 82 -147 0 -147 c 0
 -21 -147 -49 -144 -83 -137 c 1
 -66 -57 l 1
 -50 -61 -36 -63 -24 -63 c 0
 24 -63 52 -40 60 6 c 2
 161 582 l 2
 177 679 228 728 313 727 c 0
 337 727 362 724 387 718 c 1
 372 641 l 1
 353 646 336 648 320 648 c 0
 278 648 253 624 245 576 c 2
 147 -2 l 2
EndSplineSet
EndChar
StartChar: approxequal
Encoding: 8776 8776 336
Width: 627
VWidth: 1504
Flags: W
HStem: 20 84<367.498 468.4> 113 80<157.898 258.618> 247 84<368.826 470.361> 340 80<158.76 259.994>
VStem: 57 83<20 96.6584 247 323.287> 484 82<168 193 396 420>
Fore
197 420 m 0
 267 420 381 331 435 331 c 0
 466 331 483 361 486 420 c 1
 567 420 l 1
 567 396 l 2
 567 301 511 247 432 247 c 0
 370 247 244 340 197 340 c 0
 162 340 143 309 141 247 c 1
 59 247 l 1
 59 275 l 2
 59 369 123 420 197 420 c 0
196 193 m 0
 264 193 381 104 433 104 c 0
 464 104 481 134 484 193 c 1
 566 193 l 1
 566 168 l 2
 566 74 509 20 430 20 c 0
 369 20 243 113 196 113 c 0
 161 113 142 82 140 20 c 1
 57 20 l 1
 57 48 l 2
 57 143 123 193 196 193 c 0
EndSplineSet
EndChar
StartChar: notequal
Encoding: 8800 8800 337
Width: 627
VWidth: 1504
Flags: W
HStem: 0 21G<116 224> 146 80<68 188 328 558> 335 80<68 286 427 558>
VStem: 68 490<146 226 335 415>
Fore
558 146 m 1
 287 146 l 1
 214 0 l 1
 116 0 l 1
 188 146 l 1
 68 146 l 1
 68 226 l 1
 227 226 l 1
 286 335 l 1
 68 335 l 1
 68 415 l 1
 325 415 l 1
 412 582 l 1
 513 582 l 1
 427 415 l 1
 558 415 l 1
 558 335 l 1
 385 335 l 1
 328 226 l 1
 558 226 l 1
 558 146 l 1
EndSplineSet
EndChar
StartChar: lessequal
Encoding: 8804 8804 338
Width: 627
VWidth: 1504
Flags: W
HStem: 23 78<47 579>
Fore
579 23 m 1
 47 23 l 1
 47 101 l 1
 579 101 l 1
 579 23 l 1
539 132 m 1
 71 319 l 1
 71 409 l 1
 539 596 l 1
 539 502 l 1
 174 363 l 1
 539 224 l 1
 539 132 l 1
EndSplineSet
EndChar
StartChar: greaterequal
Encoding: 8805 8805 339
Width: 627
VWidth: 1504
Flags: W
HStem: 23 78<47 579>
Fore
579 23 m 1
 47 23 l 1
 47 101 l 1
 579 101 l 1
 579 23 l 1
539 319 m 1
 71 132 l 1
 71 224 l 1
 435 363 l 1
 71 502 l 1
 71 596 l 1
 539 409 l 1
 539 319 l 1
EndSplineSet
EndChar
StartChar: lozenge
Encoding: 9674 9674 340
Width: 609
VWidth: 1504
Flags: W
HStem: 0 21G<249.647 359.353>
Fore
567 331 m 1
 346 0 l 1
 263 0 l 1
 42 331 l 1
 263 663 l 1
 346 663 l 1
 567 331 l 1
477 331 m 1
 305 588 l 1
 132 331 l 1
 305 74 l 1
 477 331 l 1
EndSplineSet
EndChar
StartChar: dottedcircle
Encoding: 9676 9676 341
Width: 610
VWidth: 1504
Flags: W
HStem: 33 57<275.976 331.051> 51 56<182.783 237.086 385.595 426.364> 104 55<102.636 157.257 451.743 506.466> 187 55<50.6359 104.361 517.595 559.417> 281 56<30.7828 85.086 523.949 565.405> 373 56<50.7828 91.4052 502.914 557.217> 456 55<102.504 157.257 450.639 504.364> 508 56<182.783 237.086 370.914 425.217> 525 57<275.976 331.051>
VStem: 30 56<281.783 336.086> 50 55<200.595 241.496 373.636 428.257> 102 56<117.595 158.217 456.783 510.051> 182 56<51.914 106.217 508.783 563.148> 275 57<33.914 89.0505 525.914 581.051> 372 55<64.3745 105.879 508.783 563.148> 451 56<105.127 157.879 456.504 497.405> 504 56<200.734 228.928 373.783 428.086> 523 56<281.636 336.369>
Fore
304 582 m 256x1c8e
 321 582 332 569 332 554 c 256
 332 539 321 525 304 525 c 256
 287 525 275 538 275 554 c 256
 275 571 289 582 304 582 c 256x1c8e
304 90 m 256x9c0e
 321 90 332 77 332 62 c 256
 332 47 321 33 304 33 c 256
 287 33 275 46 275 62 c 256
 275 79 289 90 304 90 c 256x9c0e
57 337 m 256
 74 337 86 324 86 308 c 256
 86 292 73 281 57 281 c 256
 41 281 30 292 30 308 c 256x1c4e
 30 324 41 337 57 337 c 256
551 337 m 256
 568 337 579 323 579 308 c 256
 579 286 561 281 551 281 c 256
 534 281 523 292 523 308 c 256x1c0e40
 523 323 534 337 551 337 c 256
77 429 m 256
 94 429 105 415 105 400 c 256
 105 378 87 373 77 373 c 256
 61 373 50 384 50 400 c 256x1c2e
 50 416 61 429 77 429 c 256
129 511 m 256x1e1e
 144 511 158 500 158 483 c 256
 158 467 145 456 129 456 c 256
 113 456 102 467 102 483 c 256
 102 500 113 511 129 511 c 256x1e1e
209 564 m 256x1d0e
 225 564 238 552 238 535 c 256
 238 519 225 508 209 508 c 256
 193 508 182 519 182 535 c 256
 182 552 193 564 209 564 c 256x1d0e
531 429 m 256
 547 429 558 416 558 400 c 256
 558 384 547 373 531 373 c 256
 515 373 502 384 502 400 c 256
 502 417 515 429 531 429 c 256
478 511 m 256x1e0e
 500 511 505 493 505 483 c 256
 505 467 494 456 478 456 c 256
 461 456 450 467 450 483 c 256
 450 500 463 511 478 511 c 256x1e0e
399 564 m 256x1d0e
 415 564 426 552 426 535 c 256
 426 519 415 508 399 508 c 256
 383 508 370 519 370 535 c 256
 370 552 383 564 399 564 c 256x1d0e
77 242 m 256
 94 242 105 231 105 215 c 256
 105 198 92 187 77 187 c 256
 55 187 50 205 50 215 c 256x1c2e
 50 231 61 242 77 242 c 256
129 159 m 256x3c1e
 145 159 158 148 158 132 c 256
 158 115 144 104 129 104 c 256
 107 104 102 122 102 132 c 256
 102 148 113 159 129 159 c 256x3c1e
209 107 m 256x5c0e
 225 107 238 96 238 80 c 256
 238 63 225 51 209 51 c 256
 193 51 182 64 182 80 c 256
 182 96 193 107 209 107 c 256x5c0e
560 215 m 256x1c0e80
 560 204 554 187 532 187 c 256
 515 187 504 200 504 215 c 256
 504 237 522 242 532 242 c 256
 554 242 560 226 560 215 c 256x1c0e80
507 132 m 256x3c0f
 507 117 498 104 480 104 c 256
 465 104 451 115 451 132 c 256
 451 148 464 159 480 159 c 256
 496 159 507 148 507 132 c 256x3c0f
427 80 m 256
 427 68 422 51 400 51 c 256
 383 51 372 65 372 80 c 256
 372 102 390 107 400 107 c 256x5c0e
 416 107 427 96 427 80 c 256
EndSplineSet
EndChar
StartChar: uni0E10.alt1
Encoding: 63232 63232 342
Width: 559
VWidth: 1504
Flags: W
HStem: -12 78<291.807 371.168> 164 57<132.447 190.482> 308 58<131.819 207.563> 495 87<321.474 446.232> 532 80<200.995 342.606>
VStem: 69 57<227.954 301.979> 191 93<73.1602 117 117 167> 214 70<227.112 299.919> 379 93<71.814 361.664>
Fore
158 492 m 1xee80
 430 447 472 404 472 346 c 2
 472 125 l 2
 472 34 424 -12 329 -12 c 0
 237 -12 191 31 191 117 c 2
 191 167 l 1xee80
 183 165 176 164 170 164 c 0
 108 164 69 211 69 265 c 0
 69 326 124 366 174 366 c 0
 235 366 284 326 284 266 c 2xed80
 284 120 l 2
 284 84 300 66 331 66 c 0
 363 66 379 84 379 120 c 2
 379 337 l 2
 379 387 114 426 51 426 c 1
 62 539 131 612 248 612 c 0xee80
 296 612 369 582 421 582 c 0
 436 582 446 594 450 618 c 1
 526 599 l 1
 508 530 472 495 417 495 c 0xf680
 366 495 299 532 248 532 c 0
 230 532 173 520 158 492 c 1xee80
170 221 m 256
 195 221 214 242 214 265 c 256xe580
 214 288 195 308 170 308 c 256
 145 308 126 288 126 265 c 256
 126 240 147 221 170 221 c 256
EndSplineSet
EndChar
StartChar: uni0E48.alt1
Encoding: 63237 63237 347
Width: 0
VWidth: 1504
Flags: W
VStem: -350 93<698 910 698 910 698 698>
Back
-257 698 m 1
 -350 698 l 1
 -350 910 l 1
 -257 910 l 1
 -257 698 l 1
EndSplineSet
Refer: 352 63242 N 1 0 0 1 -180 0 2
Substitution2: "Single Substitution lookup 42 subtable" uni0E48.alt3
Substitution2: "Single Substitution lookup 42 subtable" uni0E48.alt3
EndChar
StartChar: uni0E49.alt1
Encoding: 63238 63238 348
Width: 0
VWidth: 1504
Flags: W
HStem: 934 59<-432.915 -363.836>
VStem: -496 59<859.22 930.696> -360 58<860.842 929.977>
Back
-122 945 m 1
 -126 895.667 -136.5 854.167 -153.5 820.5 c 128
 -170.5 786.833 -193 759.5 -221 738.5 c 128
 -249 717.5 -282.333 702.167 -321 692.5 c 128
 -359.667 682.833 -402 678 -448 678 c 2
 -493 678 l 1
 -493 736 l 1
 -473 736.667 -456.833 743.333 -444.5 756 c 128
 -432.167 768.667 -424.333 781 -421 793 c 1
 -443 797.667 -461 808.833 -475 826.5 c 128
 -489 844.167 -496 864.333 -496 887 c 0
 -496 913.667 -487 935.5 -469 952.5 c 128
 -451 969.5 -429.667 978 -405 978 c 0
 -375.667 978 -352.667 969 -336 951 c 128
 -319.333 933 -311 909.667 -311 881 c 0
 -311 856.333 -318 830.667 -332 804 c 128
 -346 777.333 -360.333 756.667 -375 742 c 1
 -326.333 752 -287.333 775.667 -258 813 c 128
 -228.667 850.333 -213 894.333 -211 945 c 1
 -122 945 l 1
-369 884 m 0
 -369 895.333 -372.5 904.5 -379.5 911.5 c 128
 -386.5 918.5 -395.333 922 -406 922 c 0
 -416 922 -424.5 918.5 -431.5 911.5 c 128
 -438.5 904.5 -442 895.333 -442 884 c 0
 -442 874 -438.5 865.5 -431.5 858.5 c 128
 -424.5 851.5 -416 848 -406 848 c 0
 -395.333 848 -386.5 851.5 -379.5 858.5 c 128
 -372.5 865.5 -369 874 -369 884 c 0
EndSplineSet
Refer: 353 63243 S 1 0 0 1 -118 0 2
Substitution2: "Single Substitution lookup 42 subtable" uni0E49.alt3
Substitution2: "Single Substitution lookup 42 subtable" uni0E49.alt3
EndChar
StartChar: uni0E4A.alt1
Encoding: 63239 63239 349
Width: 0
VWidth: 1504
Flags: W
HStem: 683 48<-540.829 -468.103> 814 49<-504.939 -469.375> 900 58<-457 -440>
VStem: -594 48<737.516 806.373> -463 51<735.67 808.159> -307 59<785.906 883.51> -191 69<827.745 946>
Back
-122 946 m 1
 -126.667 774.667 -209.333 689 -370 689 c 1
 -370 737 l 1
 -328 758.333 -307 791 -307 835 c 0
 -307 867 -322.333 887 -353 895 c 1
 -405 844 l 1
 -457 900 l 1
 -465 898 -473.833 893.167 -483.5 885.5 c 128
 -493.167 877.833 -500.333 870.333 -505 863 c 1
 -479 863 -457 854.333 -439 837 c 128
 -421 819.667 -412 798 -412 772 c 0
 -412 746.667 -421 725.5 -439 708.5 c 128
 -457 691.5 -478 683 -502 683 c 0
 -527.333 683 -549 691.333 -567 708 c 128
 -585 724.667 -594 748 -594 778 c 0
 -594 798 -591.5 818 -586.5 838 c 128
 -581.5 858 -573 876.333 -561 893 c 128
 -549 909.667 -533.167 924 -513.5 936 c 128
 -493.833 948 -469.667 955.333 -441 958 c 1
 -403 915 l 1
 -366 958 l 1
 -330.667 957.333 -302.167 945.833 -280.5 923.5 c 128
 -258.833 901.167 -248 873 -248 839 c 0
 -248 808.333 -254.667 781.333 -268 758 c 1
 -244.667 772 -226 795.5 -212 828.5 c 128
 -198 861.5 -191 900.667 -191 946 c 1
 -122 946 l 1
-463 772 m 256
 -463 782.667 -467 792.333 -475 801 c 128
 -483 809.667 -492.667 814 -504 814 c 256
 -514.667 814 -524.333 809.667 -533 801 c 128
 -541.667 792.333 -546 782.667 -546 772 c 256
 -546 760.667 -541.667 751 -533 743 c 128
 -524.333 735 -514.667 731 -504 731 c 256
 -492.667 731 -483 735 -475 743 c 128
 -467 751 -463 760.667 -463 772 c 256
EndSplineSet
Refer: 354 63244 N 1 0 0 1 -90 0 2
Substitution2: "Single Substitution lookup 42 subtable" uni0E4A.alt3
Substitution2: "Single Substitution lookup 42 subtable" uni0E4A.alt3
EndChar
StartChar: uni0E4B.alt1
Encoding: 63240 63240 350
Width: 0
VWidth: 1504
Flags: W
HStem: 773 62<-475 -389 -305 -219>
VStem: -389 84<698 773 835 907 698 907 698 698>
Back
-220 773 m 1
 -305 773 l 1
 -305 698 l 1
 -390 698 l 1
 -390 773 l 1
 -475 773 l 1
 -475 835 l 1
 -390 835 l 1
 -390 907 l 1
 -305 907 l 1
 -305 835 l 1
 -220 835 l 1
 -220 773 l 1
EndSplineSet
Refer: 355 63245 N 1 0 0 1 -224 0 2
Substitution2: "Single Substitution lookup 42 subtable" uni0E4B.alt3
Substitution2: "Single Substitution lookup 42 subtable" uni0E4B.alt3
EndChar
StartChar: uni0E4C.alt1
Encoding: 63241 63241 351
Width: 0
VWidth: 1504
Flags: W
HStem: 683 56<-375.567 -302.935>
VStem: -439 57<745.761 815.981> -297 54<745.523 816.521>
Back
-162 1003 m 1
 -166 961 -179.667 930.667 -203 912 c 128
 -226.333 893.333 -257.333 878.667 -296 868 c 1
 -280 860 -267.333 848.167 -258 832.5 c 128
 -248.667 816.833 -244 799.667 -244 781 c 0
 -244 753.667 -253.5 730.5 -272.5 711.5 c 128
 -291.5 692.5 -314.333 683 -341 683 c 256
 -368.333 683 -391.5 692.5 -410.5 711.5 c 128
 -429.5 730.5 -439 754 -439 782 c 0
 -439 854 -402 900.667 -328 922 c 0
 -286 933.333 -259.167 947.5 -247.5 964.5 c 128
 -235.833 981.5 -230 994.333 -230 1003 c 1
 -162 1003 l 1
-298 781 m 256
 -298 791.667 -302.167 801.333 -310.5 810 c 128
 -318.833 818.667 -328.667 823 -340 823 c 256
 -350.667 823 -360.333 818.667 -369 810 c 128
 -377.667 801.333 -382 791.667 -382 781 c 256
 -382 769.667 -377.667 759.833 -369 751.5 c 128
 -360.333 743.167 -350.667 739 -340 739 c 256
 -328.667 739 -318.833 743.167 -310.5 751.5 c 128
 -302.167 759.833 -298 769.667 -298 781 c 256
EndSplineSet
Refer: 356 63246 S 1 0 0 1 -147 0 2
Substitution2: "Single Substitution lookup 42 subtable" uni0E4C.alt3
Substitution2: "Single Substitution lookup 42 subtable" uni0E4C.alt3
EndChar
StartChar: uni0E48.alt2
Encoding: 63242 63242 352
Width: 0
VWidth: 1504
Flags: W
VStem: -170 93<698 910 698 910 698 698>
Fore
-77 698 m 1
 -170 698 l 1
 -170 910 l 1
 -77 910 l 1
 -77 698 l 1
EndSplineSet
Substitution2: "Single Substitution lookup 40 subtable" uni0E48.alt3
Substitution2: "Single Substitution lookup 41 subtable" uni0E48
Substitution2: "Single Substitution lookup 42 subtable" uni0E48.alt1
Substitution2: "Single Substitution lookup 40 subtable" uni0E48.alt3
Substitution2: "Single Substitution lookup 41 subtable" uni0E48
Substitution2: "Single Substitution lookup 42 subtable" uni0E48.alt1
EndChar
StartChar: uni0E49.alt2
Encoding: 63243 63243 353
Width: 0
VWidth: 1504
Flags: MW
HStem: 934 59<-314.915 -245.836>
VStem: -378 59<859.22 930.696> -242 58<860.842 929.977>
Fore
-248 745 m 1
 -151 762 -79 845 -75 958 c 1
 15 958 l 1
 -23 755 -115 678 -325 678 c 2
 -375 678 l 1
 -375 739 l 1
 -326 741 -303 782 -296 799 c 1
 -346 807 -378 845 -378 898 c 0
 -378 956 -330 993 -280 993 c 0
 -218 993 -184 950 -184 892 c 256
 -184 826 -226 767 -248 745 c 1
-281 856 m 256
 -260 856 -242 872 -242 895 c 256
 -242 918 -260 934 -281 934 c 256
 -304 934 -319 918 -319 895 c 256
 -319 872 -304 856 -281 856 c 256
EndSplineSet
Substitution2: "Single Substitution lookup 40 subtable" uni0E49.alt3
Substitution2: "Single Substitution lookup 41 subtable" uni0E49
Substitution2: "Single Substitution lookup 42 subtable" uni0E49.alt1
Substitution2: "Single Substitution lookup 40 subtable" uni0E49.alt3
Substitution2: "Single Substitution lookup 41 subtable" uni0E49
Substitution2: "Single Substitution lookup 42 subtable" uni0E49.alt1
EndChar
StartChar: uni0E4A.alt2
Encoding: 63244 63244 354
Width: 0
VWidth: 1504
Flags: MW
HStem: 683 48<-450.829 -378.103> 814 49<-414.939 -379.375> 900 58<-367 -350>
VStem: -504 48<737.516 806.373> -373 51<735.67 808.159> -217 59<785.906 883.51> -101 69<827.745 946>
Fore
-177 758 m 1
 -121 792 -101 875 -101 946 c 1
 -32 946 l 1
 -37 775 -119 689 -280 689 c 1
 -280 737 l 1
 -238 758 -217 791 -217 835 c 0
 -217 867 -232 887 -263 895 c 1
 -314 844 l 1
 -367 900 l 1
 -389 895 -409 873 -415 863 c 1
 -365 863 -322 827 -322 772 c 0
 -322 719 -366 683 -412 683 c 0
 -460 683 -504 714 -504 778 c 0
 -504 876 -450 949 -350 958 c 1
 -313 915 l 1
 -275 958 l 1
 -203 957 -158 906 -158 839 c 0
 -158 808 -164 781 -177 758 c 1
-414 731 m 256
 -390 731 -373 750 -373 772 c 256
 -373 793 -390 814 -414 814 c 256
 -434 814 -456 795 -456 772 c 256
 -456 748 -435 731 -414 731 c 256
EndSplineSet
Substitution2: "Single Substitution lookup 40 subtable" uni0E4A.alt3
Substitution2: "Single Substitution lookup 41 subtable" uni0E4A
Substitution2: "Single Substitution lookup 42 subtable" uni0E4A.alt1
Substitution2: "Single Substitution lookup 40 subtable" uni0E4A.alt3
Substitution2: "Single Substitution lookup 41 subtable" uni0E4A
Substitution2: "Single Substitution lookup 42 subtable" uni0E4A.alt1
EndChar
StartChar: uni0E4B.alt2
Encoding: 63245 63245 355
Width: 0
VWidth: 1504
Flags: MW
HStem: 773 62<-251 -165 -81 5>
VStem: -165 84<698 773 835 907 698 907 698 698>
Fore
5 773 m 1
 -81 773 l 1
 -81 698 l 1
 -165 698 l 1
 -165 773 l 1
 -251 773 l 1
 -251 835 l 1
 -165 835 l 1
 -165 907 l 1
 -81 907 l 1
 -81 835 l 1
 5 835 l 1
 5 773 l 1
EndSplineSet
Substitution2: "Single Substitution lookup 40 subtable" uni0E4B.alt3
Substitution2: "Single Substitution lookup 41 subtable" uni0E4B
Substitution2: "Single Substitution lookup 42 subtable" uni0E4B.alt1
Substitution2: "Single Substitution lookup 40 subtable" uni0E4B.alt3
Substitution2: "Single Substitution lookup 41 subtable" uni0E4B
Substitution2: "Single Substitution lookup 42 subtable" uni0E4B.alt1
EndChar
StartChar: uni0E4C.alt2
Encoding: 63246 63246 356
Width: 0
VWidth: 1504
Flags: W
HStem: 683 56<-228.567 -155.935>
VStem: -292 57<745.761 815.981> -150 54<745.523 816.521>
Fore
-194 683 m 256
 -248 683 -292 724 -292 782 c 0
 -292 937 -137 908 -100 964 c 0
 -89 982 -83 994 -83 1003 c 1
 -15 1003 l 1
 -21 945 -41 897 -149 868 c 1
 -120 854 -96 821 -96 781 c 0
 -96 724 -141 683 -194 683 c 256
-193 739 m 256
 -171 739 -150 757 -150 781 c 256
 -150 802 -169 823 -193 823 c 256
 -213 823 -235 804 -235 781 c 256
 -235 757 -214 739 -193 739 c 256
EndSplineSet
Substitution2: "Single Substitution lookup 40 subtable" uni0E4C.alt3
Substitution2: "Single Substitution lookup 41 subtable" uni0E4C
Substitution2: "Single Substitution lookup 42 subtable" uni0E4C.alt1
Substitution2: "Single Substitution lookup 40 subtable" uni0E4C.alt3
Substitution2: "Single Substitution lookup 41 subtable" uni0E4C
Substitution2: "Single Substitution lookup 42 subtable" uni0E4C.alt1
EndChar
StartChar: uni0E0D.alt1
Encoding: 63247 63247 357
Width: 849
VWidth: 1504
Flags: W
HStem: -12 80<516.05 661.517> -12 65<152.965 238.035> 155 62<168.222 237.724> 531 81<194.513 348.731>
VStem: 75 93<215 343.79> 75 69<63.361 146.246> 247 61<62.9457 144.823> 405 93<86.3174 471.861> 680 93<87.4782 128 128 600>
Fore
196 53 m 256x7780
 226 53 247 77 247 104 c 256
 247 134 223 155 196 155 c 256
 165 155 144 132 144 104 c 256
 144 76 165 53 196 53 c 256x7780
588 68 m 0xbb80
 624 68 680 80 680 128 c 2
 680 600 l 1
 773 600 l 1
 773 141 l 2
 773 45 694 -12 587 -12 c 0
 478 -12 405 42 405 141 c 2
 405 399 l 2
 405 480 347 531 277 531 c 0
 216 531 172 506 146 456 c 1
 185 453 218 430 245 388 c 1
 197 362 168 328 168 287 c 2
 168 215 l 1xbb80
 177 216 185 217 194 217 c 0
 261 217 308 164 308 102 c 256
 308 35 256 -12 194 -12 c 0
 128 -12 75 38 75 110 c 2x7780
 75 286 l 2
 75 328 96 361 137 385 c 1
 121 396 102 402 81 402 c 0
 70 402 58 400 45 397 c 1
 49 522 134 612 272 612 c 0
 409 612 498 531 498 397 c 2
 498 128 l 2
 498 80 551 68 588 68 c 0xbb80
EndSplineSet
EndChar
StartChar: fi
Encoding: 64257 64257 369
Width: 609
VWidth: 1504
Flags: W
HStem: 0 21G<111 206 444 539> 433 78<26 111 206 444> 687 82<278.116 420.77>
VStem: 111 95<0 433 511 607.403> 444 95<0 433>
Fore
113 511 m 1
 113 679 211 769 346 769 c 0
 418 769 477 742 523 687 c 1
 474 620 l 1
 435 665 391 687 343 687 c 0
 277 687 206 628 206 511 c 1
 539 511 l 1
 539 0 l 1
 444 0 l 1
 444 433 l 1
 206 433 l 1
 206 0 l 1
 111 0 l 1
 111 433 l 1
 26 433 l 1
 26 511 l 1
 113 511 l 1
EndSplineSet
LCarets2: 1 0 
Ligature2: "'liga' Standard Ligatures in Latin lookup 38 subtable" f i
Ligature2: "'rlig' Required Ligatures in Latin lookup 19 subtable" f i
EndChar
StartChar: fl
Encoding: 64258 64258 370
Width: 684
VWidth: 1504
Flags: W
HStem: -12 86<604.552 668> 433 78<26 111 206 384> 687 82<278.116 422.564>
VStem: 111 95<0 433 511 607.403> 444 95<146.815 263 263 650>
Fore
539 284 m 2
 539 127 585 82 678 74 c 1
 668 -12 l 1
 519 -5 444 86 444 263 c 2
 444 650 l 1
 414 675 380 687 343 687 c 0
 277 687 206 628 206 511 c 1
 384 511 l 1
 384 433 l 1
 206 433 l 1
 206 0 l 1
 111 0 l 1
 111 433 l 1
 26 433 l 1
 26 511 l 1
 113 511 l 1
 113 679 211 769 346 769 c 0
 426 769 490 737 539 672 c 1
 539 284 l 2
EndSplineSet
LCarets2: 1 0 
Ligature2: "'liga' Standard Ligatures in Latin lookup 38 subtable" f l
Ligature2: "'rlig' Required Ligatures in Latin lookup 19 subtable" f l
EndChar
StartChar: PSK
Encoding: 65541 -1 371
Width: 1435
VWidth: 1504
Flags: W
HStem: 0 65<326 341 379 394 462 478 502 506.563 529 543 629 645 678 695 722 740 799 817 841 843.602 863 880 985 1002 1041 1056 1080 1082.97 1167 1185 1224 1242> 0 14<341 375 394 427 570.219 602.759 880 915 930.285 968.629 1002 1036 1185 1217 1242 1268.13> 14 12<272 295> 27 12<478 495.295 590 603 645 678 817 836.229 880 912 1002 1033 1056 1073.35 1185 1215> 51 14<478 497.45 570.057 609.75 699 722 740 761 817 836.497 880 913 930.87 967.111 1002 1036 1056 1075.5 1185 1217 1242 1273.98> 119 27<138.344 206.389 280.902 353.543 907.67 966.976> 125 119<409 441 677 711 766 769.653 812 850 1024 1060 1121 1155 1215 1250> 162 25<441 481.53> 170 20<711 750.33 939 967 1060 1121> 218 26<137.169 206.369 280.844 353.341 441 481.53 711 755.067 905.387 977.746 1169 1215 1250 1300> 299 38<87 1304> 391 51<497.834 694.731> 671 68<196 312.243> 824 65<196 312.492> 928 12<1281.92 1389.13> 963 19<1314.41 1362.16> 973 51<628.763 818.298> 1050 21<1313.71 1358.74> 1089 15<1283.37 1388.46>
VStem: 99 36<147.927 218.914> 108 88<551 671 739 824> 244 34<147.251 217.044> 319 89<748.272 815.448> 326 15<14 65> 356 37<146.061 217.504> 379 15<14 65> 385 62<488.316 573.734 573.398 574.069 574.069 587> 409 32<125 162 187 218> 462 16<0 26 39 53> 483 66<791.787 909.833> 489 34<187.145 217.852> 499 20<39.86 51.9558> 529 14<0 65> 552 18<12.2498 52.9301> 573 35<125 165> 603 17<14 24> 629 16<0 27 39 65> 677 34<125 170 190 218> 678 17<0 27 39 65> 722 18<0 51> 766 33<125 138.125 190.172 217.749> 782 63<518.364 641.414> 799 18<0 26 39 53> 812 38<125 244> 838 18<39.8168 52.0157> 842 55<854 868.708 868.708 886.112 877.41 946.747> 863 17<14 27 39 51> 866 37<148.8 219.077> 921 16<14.5337 23 35.7279 53.3165> 958 90<551 722 745 889> 960 18<12.8158 27.3616 45 52.1521> 967 38<149 170> 985 17<14 27 39 51> 1024 36<125 173 197 244> 1041 15<0 26 39 53> 1077 18<39.8168 58.1138> 1121 34<125 173 197 244> 1167 18<14 27 39 51> 1215 35<125 217> 1224 18<15 51> 1247 15<960.569 1067.15> 1274 17<18.0478 50.8918> 1286 27<982.023 1049.95> 1352 26<987.817 1002> 1411 13<961.464 1066.66>
Fore
319 782 m 0x003e6e08490081c180
 319 810 297 824 253 824 c 2
 196 824 l 1
 196 739 l 1
 253 739 l 2
 297 739 319 753 319 782 c 0x003e6e08490081c180
408 781 m 0
 408 708 358 671 257 671 c 2
 196 671 l 1
 196 551 l 1
 108 551 l 1
 108 889 l 1
 274 889 l 2
 363 889 408 853 408 781 c 0
1172 551 m 1
 1048 722 l 1
 1048 551 l 1
 958 551 l 1
 958 889 l 1
 1048 889 l 1
 1048 745 l 1x003e64084900c1c180
 1172 889 l 1
 1277 889 l 1
 1143 739 l 1
 1288 551 l 1
 1172 551 l 1
1378 1002 m 1
 1373 976 1358 963 1333 963 c 0
 1302 963 1286 981 1286 1017 c 256
 1286 1053 1302 1071 1333 1071 c 0
 1360 1071 1374 1059 1376 1035 c 1
 1352 1035 l 1
 1349 1045 1343 1050 1333 1050 c 0
 1320 1050 1313 1039 1313 1018 c 0
 1313 994 1320 982 1334 982 c 0x003f6408490081c380
 1345 982 1351 989 1352 1002 c 1
 1378 1002 l 1
356 181 m 0x003e6488490081c180
 356 207 344 220 319 220 c 0
 292 220 278 207 278 182 c 256
 278 157 292 144 319 144 c 0x003e6608490081c180
 344 144 356 156 356 181 c 0x003e6488490081c180
393 182 m 0x047e6488490081c180
 393 140 367 119 316 119 c 0
 268 119 244 140 244 182 c 0
 244 223 269 244 319 244 c 0x047e6608490081c180
 368 244 393 223 393 182 c 0x047e6488490081c180
489 203 m 0x017e641a490081c180
 489 213 480 218 463 218 c 2
 441 218 l 1
 441 187 l 1
 463 187 l 2
 480 187 489 192 489 203 c 0x017e641a490081c180
523 203 m 256
 523 176 504 162 466 162 c 2
 441 162 l 1x017e641a490081c180
 441 125 l 1
 409 125 l 1
 409 244 l 1x023e641a490081c180
 471 244 l 2
 506 244 523 230 523 203 c 256
608 125 m 1x023e6409690081c180
 573 125 l 1x023e6409690081c180
 573 167 l 1
 519 244 l 1
 558 244 l 1
 594 193 l 1
 597 197 608 214 627 244 c 1
 662 244 l 1x007e6409690081c180
 608 165 l 1
 608 125 l 1x023e6409690081c180
295 26 m 1x283e6408490081c180
 284 51 l 1
 272 26 l 1
 295 26 l 1x283e6408490081c180
323 0 m 1x483e6408490081c180
 304 0 l 1
 298 14 l 1
 268 14 l 1x683e6408490081c180
 262 0 l 1
 244 0 l 1
 274 65 l 1
 296 65 l 1
 323 0 l 1x483e6408490081c180
1036 0 m 1
 985 0 l 1
 985 65 l 1x803e6408490089c180
 1036 65 l 1
 1036 51 l 1
 1002 51 l 1
 1002 39 l 1
 1033 39 l 1
 1033 27 l 1
 1002 27 l 1
 1002 14 l 1x583e6408490089c180
 1036 14 l 1
 1036 0 l 1
1164 65 m 1x483e6408490081c180
 1139 0 l 1
 1121 0 l 1
 1094 65 l 1
 1112 65 l 1
 1130 17 l 1
 1148 65 l 1
 1164 65 l 1x483e6408490081c180
1274 32 m 0x083e6408490081d580
 1274 45 1268 51 1255 51 c 2
 1242 51 l 1
 1242 15 l 1
 1255 15 l 2
 1268 15 1274 21 1274 32 c 0x083e6408490081d580
1291 32 m 0
 1291 11 1279 -0 1255 0 c 2x483e6408490081d580
 1224 0 l 1
 1224 65 l 1x803e6408490081d580
 1255 65 l 2
 1279 65 1291 54 1291 32 c 0
375 0 m 1
 326 0 l 1
 326 65 l 1
 341 65 l 1x803e6508490081c180
 341 14 l 1x403e6508490081c180
 375 14 l 1
 375 0 l 1
499 45 m 0x103e6409490081c180
 499 50 495 53 487 53 c 2
 478 53 l 1
 478 39 l 1
 487 39 l 2
 495 39 499 41 499 45 c 0x103e6409490081c180
502 0 m 1x803e6409490081c180
 502 21 493 26 487 26 c 2
 478 26 l 1x203e6409490081c180
 478 0 l 1
 462 0 l 1
 462 65 l 1x803e6409490081c180
 493 65 l 2
 510 65 519 59 519 48 c 0
 519 40 515 35 507 32 c 1
 513 30 518 19 522 0 c 1x483e6409490081c180
 502 0 l 1x803e6409490081c180
543 65 m 1x803e6408c90081c180
 543 0 l 1
 529 0 l 1
 529 65 l 1
 543 65 l 1x803e6408c90081c180
620 5 m 1x203e6408590081c180
 611 0 601 -2 591 -2 c 0
 565 -2 552 9 552 32 c 0
 552 55 565 66 590 66 c 0
 609 66 619 58 620 42 c 1
 603 42 l 1
 602 49 598 53 590 53 c 0
 577 53 570 46 570 33 c 0
 570 19 577 12 591 12 c 0
 596 12 600 13 603 14 c 1
 603 24 l 1
 590 24 l 1
 590 36 l 1
 620 36 l 1
 620 5 l 1x203e6408590081c180
695 0 m 1x803e64084b0081c180
 678 0 l 1x803e64084b0081c180
 678 27 l 1
 645 27 l 1x103e64084b0081c180
 645 0 l 1
 629 0 l 1
 629 65 l 1
 645 65 l 1x803e64084b0081c180
 645 39 l 1
 678 39 l 1x103e64084b0081c180
 678 65 l 1
 695 65 l 1
 695 0 l 1x803e64084b0081c180
761 51 m 1x083e6408490081c180
 740 51 l 1x083e6408490081c180
 740 0 l 1
 722 0 l 1x803e6408490081c180
 722 51 l 1
 699 51 l 1
 699 65 l 1
 761 65 l 1
 761 51 l 1x083e6408490081c180
850 125 m 1x023e6408491081c180
 812 125 l 1
 812 244 l 1
 850 244 l 1
 850 125 l 1x023e6408491081c180
1005 129 m 1x04be6408490191c180
 987 124 966 122 943 122 c 0
 892 122 866 143 866 184 c 256
 866 225 891 245 940 245 c 0
 980 245 1002 232 1005 205 c 1
 966 205 l 1
 964 216 955 221 939 221 c 0
 915 221 903 209 903 185 c 0
 903 159 916 146 943 146 c 2
 967 149 l 1
 967 170 l 1
 939 170 l 1
 939 190 l 1
 1005 190 l 1
 1005 129 l 1x04be6408490191c180
1155 125 m 1x023e6408490085c180
 1121 125 l 1
 1121 173 l 1
 1060 173 l 1
 1060 125 l 1
 1024 125 l 1
 1024 244 l 1
 1060 244 l 1
 1060 197 l 1
 1121 197 l 1
 1121 244 l 1
 1155 244 l 1
 1155 125 l 1x023e6408490085c180
1300 217 m 1
 1250 217 l 1
 1250 125 l 1
 1215 125 l 1x023e6408490081e180
 1215 217 l 1
 1169 217 l 1
 1169 244 l 1
 1300 244 l 1x007e6408490081e180
 1300 217 l 1
761 206 m 0
 761 214 752 218 734 218 c 2
 711 218 l 1
 711 190 l 1
 734 190 l 2x00fe64084d0081c180
 752 190 761 195 761 206 c 0
799 125 m 1x023e64084d8081c180
 766 125 l 1x023e64084d8081c180
 758 155 l 1
 757 165 749 170 733 170 c 2
 711 170 l 1x00be64084d8081c180
 711 125 l 1
 677 125 l 1
 677 244 l 1x023e64084d8081c180
 745 244 l 2x007e64084d8081c180
 779 244 796 233 796 212 c 0
 796 199 787 190 770 184 c 1
 785 181 793 171 793 155 c 1
 799 125 l 1x023e64084d8081c180
939 47 m 0
 939 35 978 39 978 20 c 0
 978 5 968 -2 948 -2 c 0
 930 -2 921 6 921 23 c 1
 937 23 l 1
 937 16 941 12 949 12 c 0
 956 12 960 14 960 18 c 0
 960 23 922 26 922 45 c 0
 922 59 931 66 949 66 c 256
 967 66 976 59 976 45 c 1
 960 45 l 1x003e64084900a1c180
 960 51 956 54 949 54 c 256
 942 54 939 52 939 47 c 0
1217 0 m 1x583e6408490081e180
 1167 0 l 1
 1167 65 l 1x803e6408490081e180
 1217 65 l 1
 1217 51 l 1
 1185 51 l 1
 1185 39 l 1
 1215 39 l 1
 1215 27 l 1
 1185 27 l 1
 1185 14 l 1
 1217 14 l 1
 1217 0 l 1x583e6408490081e180
915 14 m 1x583e6408490281c180
 915 0 l 1x583e6408490281c180
 863 0 l 1
 863 65 l 1x803e6408490281c180
 913 65 l 1
 913 51 l 1
 880 51 l 1
 880 39 l 1
 912 39 l 1
 912 27 l 1
 880 27 l 1
 880 14 l 1
 915 14 l 1x583e6408490281c180
235 164 m 1
 232 134 210 119 170 119 c 0
 123 119 99 141 99 184 c 0x043e7408490081c180
 99 226 124 247 173 247 c 0
 210 247 231 232 235 202 c 1
 196 202 l 1x043e6c08490081c180
 195 215 186 221 170 221 c 0
 147 221 135 209 135 184 c 256x043e7408490081c180
 135 159 146 146 168 146 c 0
 185 146 195 152 196 164 c 1x043e6c08490081c180
 235 164 l 1
1304 299 m 1
 87 299 l 1
 87 337 l 1
 1304 337 l 1
 1304 299 l 1
746 973 m 0x003ee408494081c180
 635 973 549 930 549 845 c 0
 549 791 581 773 690 742 c 0
 791 714 845 681 845 611 c 0
 845 435 699 391 581 391 c 0
 469 391 385 437 385 540 c 0
 385 556 387 572 391 587 c 1
 448 587 l 1
 447 580 447 571 447 561 c 0
 447 482 497 442 596 442 c 0
 670 442 782 481 782 590 c 0x003ee42c494081c180
 782 628 756 657 704 677 c 2
 561 725 l 2
 509 747 483 779 483 821 c 0
 483 957 589 1024 740 1024 c 0
 830 1024 904 987 904 904 c 0
 904 889 902 872 897 854 c 1
 842 854 l 1x003ee40c490481c180
 844 868 845 878 845 883 c 0
 845 943 812 973 746 973 c 0x003ee408494081c180
1334 1104 m 0
 1386 1104 1424 1068 1424 1015 c 256
 1424 964 1387 928 1334 928 c 0
 1286 928 1247 961 1247 1015 c 256x003e6408490081c980
 1247 1069 1286 1104 1334 1104 c 0
1334 940 m 0
 1378 940 1411 972 1411 1014 c 256
 1411 1055 1379 1089 1334 1089 c 0
 1291 1089 1262 1053 1262 1014 c 256
 1262 974 1291 940 1334 940 c 0
838 45 m 0x103e6408492881c180
 838 50 834 53 827 53 c 2
 817 53 l 1
 817 39 l 1
 827 39 l 2
 834 39 838 41 838 45 c 0x103e6408492881c180
841 0 m 1x803e6408492881c180
 841 5 838 26 827 26 c 2
 817 26 l 1x203e6408492881c180
 817 0 l 1
 799 0 l 1
 799 65 l 1x803e6408492881c180
 832 65 l 2
 848 65 856 59 856 48 c 0
 856 40 852 35 844 32 c 1
 850 30 855 19 859 0 c 1x483e6408492881c180
 841 0 l 1x803e6408492881c180
1056 39 m 1x103e6408490083c180
 1066 39 l 2
 1073 39 1077 41 1077 45 c 0
 1077 50 1073 53 1066 53 c 2
 1056 53 l 1
 1056 39 l 1x103e6408490083c180
1080 0 m 1x803e6408490083c180
 1080 20 1072 26 1066 26 c 2
 1056 26 l 1x203e6408490083c180
 1056 0 l 1
 1041 0 l 1
 1041 65 l 1x803e6408490083c180
 1072 65 l 2
 1087 65 1095 59 1095 48 c 0
 1095 40 1091 35 1083 32 c 1
 1089 30 1094 19 1098 0 c 1x483e6408490083c180
 1080 0 l 1x803e6408490083c180
427 0 m 1x403e6448490081c180
 379 0 l 1
 379 65 l 1
 394 65 l 1x803e6448490081c180
 394 14 l 1
 427 14 l 1
 427 0 l 1x403e6448490081c180
EndSplineSet
LCarets2: 12 0 0 0 0 0 0 0 0 0 0 0 0 
Ligature2: "'liga' Standard Ligatures in Latin lookup 38 subtable" P S K period D e s i g n parenleft c parenright
Ligature2: "'rlig' Required Ligatures in Latin lookup 19 subtable" P S K period D e s i g n parenleft c parenright
EndChar
StartChar: franc
Encoding: 8355 8355 462
Width: 591
VWidth: 1504
Flags: W
HStem: 0 21G<114 205> 135 79<9 114 205 397> 329 82<205 513> 636 82<205 534>
VStem: 114 91<0 135 214 329 411 636>
Fore
397 135 m 1
 205 135 l 1
 205 0 l 1
 114 0 l 1
 114 135 l 1
 9 135 l 1
 9 214 l 1
 114 214 l 1
 114 718 l 1
 534 718 l 1
 534 636 l 1
 205 636 l 1
 205 411 l 1
 513 411 l 1
 513 329 l 1
 205 329 l 1
 205 214 l 1
 397 214 l 1
 397 135 l 1
EndSplineSet
EndChar
StartChar: dong
Encoding: 8363 8363 463
Width: 654
VWidth: 1504
Flags: W
HStem: -155 87<51 624> -14 83<217.945 411.59> 453 78<217.334 390.73> 617 66<331 478 573 660> 738 20G<478 573>
VStem: 39 93<161.224 360.657> 478 95<129.13 137 137 374.557 460 617 683 758>
Fore
39 266 m 0
 39 421 150 531 295 531 c 0
 370 531 431 507 478 460 c 1
 478 617 l 1
 331 617 l 1
 331 683 l 1
 478 683 l 1
 478 758 l 1
 573 758 l 1
 573 683 l 1
 660 683 l 1
 660 617 l 1
 573 617 l 1
 573 137 l 2
 573 95 575 49 579 0 c 1
 489 0 l 1
 486 11 484 30 484 56 c 1
 437 9 377 -14 302 -14 c 256
 158 -14 39 96 39 266 c 0
310 69 m 0
 412 69 478 119 478 194 c 2
 478 311 l 2
 478 394 383 453 304 453 c 0
 198 453 132 373 132 266 c 0
 132 146 195 69 310 69 c 0
624 -155 m 1
 51 -155 l 1
 51 -68 l 1
 624 -68 l 1
 624 -155 l 1
EndSplineSet
EndChar
